<svg width="144" height="38" viewBox="0 0 144 38" fill="none" xmlns="http://www.w3.org/2000/svg">
<path d="M2.07031 5.27371L10.9419 10.418L19.9809 5.27371L10.9419 0.129395L2.07031 5.27371Z" fill="#0C0C0C"/>
<path d="M21.8945 8.49756V18.7862L12.8555 23.9305V13.6419L21.8945 8.49756Z" fill="#0C0C0C"/>
<path d="M12.8555 27.5821V37.8707L24.9075 31.0669V20.7783L12.8555 27.5821Z" fill="#0C0C0C"/>
<path d="M0.132812 18.7862L9.1718 23.9305V13.6419L0.132812 8.49756V18.7862Z" fill="#0C0C0C"/>
<path d="M0.132812 32.7256L9.1718 37.87V27.5813L0.132812 22.437V32.7256Z" fill="#0C0C0C"/>
<path d="M54.0784 25.3062C54.0784 29.1941 52.1176 31.138 48.1959 31.138H35.8091C35.3309 31.138 34.9961 30.8298 34.9961 30.332V9.32799C34.9961 8.85386 35.307 8.52197 35.8091 8.52197H46.8807C50.8024 8.52197 52.7632 10.4659 52.7632 14.3538V14.9939C52.7632 18.0757 50.4915 18.7158 50.4915 18.7158V18.8817C50.4915 18.8817 54.0784 19.5218 54.0784 23.2437V25.3062ZM48.6981 14.4723C48.6981 13.0025 47.885 12.2202 46.4264 12.2202H39.0852V17.2223H46.4264C47.9089 17.2223 48.6981 16.4162 48.6981 14.9701V14.4723ZM50.0133 23.22C50.0133 21.7502 49.2002 20.9679 47.7415 20.9679H39.1091V27.4398H47.7176C49.2002 27.4398 49.9893 26.6338 49.9893 25.1877V23.22H50.0133Z" fill="#0C0C0C"/>
<path d="M72.0156 30.3319C72.0156 30.8061 71.7047 31.138 71.2025 31.138H69.2417C68.7634 31.138 68.4287 30.8298 68.4287 30.3319V29.5259H68.2613C68.2613 29.5259 67.4483 31.4698 64.9852 31.4698H62.5462C59.2701 31.4698 57.668 29.8578 57.668 26.6337V26.1596C57.668 22.9118 59.294 21.3235 62.5462 21.3235H68.4287V19.7114C68.4287 18.4076 67.6156 17.6015 66.3004 17.6015H64.0287C62.8809 17.6015 62.2353 18.2416 62.2353 19.3795C62.2353 19.8537 61.9244 20.1855 61.4223 20.1855H59.4614C58.9832 20.1855 58.6484 19.8774 58.6484 19.3795C58.6484 16.1317 60.4418 14.3774 63.8613 14.3774H66.8026C70.246 14.3774 72.0156 16.1554 72.0156 19.5455V30.3319ZM68.4287 25.4721V24.3342H63.0483C61.9005 24.3342 61.2549 24.9743 61.2549 26.1122V26.4204C61.2549 27.5583 61.9005 28.1984 63.0483 28.1984H65.6548C67.2809 28.2221 68.4287 27.0841 68.4287 25.4721Z" fill="#0C0C0C"/>
<path d="M91.4323 30.3315C91.4323 30.8056 91.1214 31.1375 90.6192 31.1375H88.6584C88.1802 31.1375 87.8454 30.8293 87.8454 30.3315V19.6636C87.8454 18.3597 87.0323 17.5537 85.7171 17.5537H82.9433C81.3172 17.5537 80.1694 18.6916 80.1694 20.3036V30.3315C80.1694 30.8056 79.8585 31.1375 79.3564 31.1375H77.3716C76.8934 31.1375 76.5586 30.8293 76.5586 30.3315V15.4675C76.5586 14.9934 76.8695 14.6615 77.3716 14.6615H79.3325C79.8107 14.6615 80.1455 14.9697 80.1455 15.4675V16.2735H80.3129C80.3129 16.2735 81.1259 14.3296 83.5889 14.3296H86.1954C89.6388 14.3296 91.4084 16.1076 91.4084 19.4976L91.4323 30.3315Z" fill="#0C0C0C"/>
<path d="M107.071 25.6376C107.071 25.1635 107.382 24.8316 107.884 24.8316H109.845C110.323 24.8316 110.658 25.1398 110.658 25.6376V26.2777C110.658 29.6914 108.864 31.4457 105.445 31.4457H101.045C97.6016 31.4457 95.832 29.6677 95.832 26.2777V19.4976C95.832 16.0839 97.6255 14.3296 101.045 14.3296H105.421C108.864 14.3296 110.634 16.1076 110.634 19.4976V20.1377C110.634 20.6118 110.323 20.9437 109.821 20.9437H107.86C107.382 20.9437 107.047 20.6355 107.047 20.1377V19.6636C107.047 18.3597 106.234 17.5537 104.919 17.5537H101.475C100.16 17.5537 99.3472 18.3597 99.3472 19.6636V26.1354C99.3472 27.4393 100.16 28.2453 101.475 28.2453H104.919C106.234 28.2453 107.047 27.4393 107.047 26.1354L107.071 25.6376Z" fill="#0C0C0C"/>
<path d="M114.578 19.4976C114.578 16.0839 116.372 14.3296 119.791 14.3296H124.502C127.945 14.3296 129.715 16.1076 129.715 19.4976V26.2777C129.715 29.6914 127.921 31.4457 124.502 31.4457H119.791C116.348 31.4457 114.578 29.6677 114.578 26.2777V19.4976ZM118.165 26.1354C118.165 27.4393 118.978 28.2453 120.293 28.2453H124.048C125.363 28.2453 126.176 27.4393 126.176 26.1354V19.6636C126.176 18.3597 125.363 17.5537 124.048 17.5537H120.293C118.978 17.5537 118.165 18.3597 118.165 19.6636V26.1354Z" fill="#0C0C0C"/>
<path d="M142.797 14.3296C143.275 14.3296 143.61 14.6378 143.61 15.1356V16.9136C143.61 17.3877 143.299 17.7196 142.797 17.7196H140.501C138.875 17.7196 137.728 18.8575 137.728 20.4696V30.3078C137.728 30.7819 137.417 31.1138 136.914 31.1138H134.954C134.475 31.1138 134.141 30.8056 134.141 30.3078V15.4675C134.141 14.9934 134.451 14.6615 134.954 14.6615H136.914C137.393 14.6615 137.728 14.9697 137.728 15.4675V16.2735H137.895C137.895 16.2735 138.708 14.3296 141.171 14.3296H142.797Z" fill="#0C0C0C"/>
</svg>
