<svg width="174" height="38" viewBox="0 0 174 38" fill="none" xmlns="http://www.w3.org/2000/svg">
<g clip-path="url(#clip0_1039_50942)">
<mask id="mask0_1039_50942" style="mask-type:alpha" maskUnits="userSpaceOnUse" x="0" y="0" width="34" height="21">
<path d="M0.773438 15.9066L22.9195 16.068C22.9195 16.068 27.8074 16.6284 31.9826 19.938C32.2201 20.1248 33.1493 19.938 33.1493 19.938L33.0363 0.0888672L0.773438 0.122834V15.9066Z" fill="white"/>
</mask>
<g mask="url(#mask0_1039_50942)">
<path fill-rule="evenodd" clip-rule="evenodd" d="M28.4454 4.55968C25.8109 2.60236 22.1862 1.62158 17.5712 1.62158C11.4013 1.62158 8.6657 1.62158 6.07356 1.62158V3.07153C6.07356 3.07153 12.314 3.07153 17.3595 3.07153C21.2829 3.07153 24.8348 3.80181 27.0035 5.49164C29.1723 7.18359 30.8165 9.70136 30.8165 12.8093C30.8165 15.809 29.3934 18.0316 27.1376 19.713C24.8818 21.3943 20.8595 22.1352 16.8326 22.1352C12.027 22.1352 3.86719 22.1352 3.86719 22.1352V23.5852C3.86719 23.5852 14.9061 23.583 16.922 23.583C21.7793 23.583 25.5734 22.6299 28.3043 20.7277C31.0352 18.8235 32.3995 16.1465 32.3995 12.6925C32.3995 9.23007 31.0823 6.51912 28.4454 4.55968Z" fill="#0C0C0C"/>
<path fill-rule="evenodd" clip-rule="evenodd" d="M27.4715 6.66116C25.8321 5.53815 23.9479 4.63379 18.6178 4.63379C12.869 4.63591 12.1657 4.63379 9.75 4.63379V6.04764C9.75 6.04764 13.7182 6.00094 18.4202 6.04764C22.9647 6.0901 24.6324 6.55289 26.1614 7.57401C28.1184 8.8796 29.3321 10.4909 29.3321 12.7454C29.3321 14.9193 28.0996 16.4584 26.1331 17.764C24.122 19.1014 21.0477 19.1162 19.7963 19.1417C19.3235 19.1523 13.2125 19.1417 13.2125 19.1417V20.5556C13.2125 20.5556 16.2539 20.5938 18.1333 20.5535C22.4472 20.4664 25.0064 20.235 27.3892 18.6365C29.6262 17.1398 30.8093 15.1634 30.8093 12.6605C30.8093 9.35938 28.9793 7.69502 27.4715 6.66116Z" fill="#0C0C0C"/>
<path fill-rule="evenodd" clip-rule="evenodd" d="M26.6781 8.52729C25.4479 7.83098 24.3682 7.36182 19.2757 7.36182C14.1008 7.36182 15.077 7.36182 12.9012 7.36182V8.29165C12.9012 8.29165 14.8677 8.29165 19.0993 8.29165C23.6108 8.29165 25.3209 9.01556 25.8384 9.30215C26.8522 9.8626 28.1882 10.7754 28.1882 12.6351C28.1882 13.8239 27.4096 15.3163 26.2594 15.9023C25.2103 16.4351 23.2933 16.9128 19.9155 16.9128C19.4898 16.9128 -0.90625 16.9128 -0.90625 16.9128V17.8426C-0.90625 17.8426 18.2995 17.8426 19.9931 17.8426C24.0648 17.8426 25.462 17.435 26.8969 16.7196C28.3364 16.0042 29.2961 14.533 29.2961 12.6436C29.2961 10.5334 27.9906 9.26819 26.6781 8.52729Z" fill="#0C0C0C"/>
</g>
<path fill-rule="evenodd" clip-rule="evenodd" d="M30.7306 18.784C28.0961 16.8245 24.469 15.8459 19.8563 15.8459C13.6841 15.8459 14.7591 15.8438 12.1646 15.8438V17.2937C12.1646 17.2937 14.5968 17.2937 19.6423 17.2937C23.5658 17.2937 27.1199 18.024 29.2887 19.7138C31.4574 21.4058 33.0993 23.9235 33.0993 27.0336C33.0993 30.0311 31.6785 32.2538 29.4227 33.9351C27.167 35.6165 23.1424 36.3574 19.1154 36.3574C14.3122 36.3574 6.15234 36.3574 6.15234 36.3574V37.8073C6.15234 37.8073 17.1889 37.8052 19.2071 37.8052C24.0644 37.8052 27.8562 36.8541 30.5871 34.9499C33.318 33.0478 34.6846 30.3687 34.6846 26.9168C34.6846 23.4522 33.3674 20.7413 30.7306 18.784Z" fill="#0C0C0C"/>
<path fill-rule="evenodd" clip-rule="evenodd" d="M29.7564 20.8838C28.117 19.7629 26.2328 18.8564 20.9027 18.8564C15.1516 18.8586 11.2634 18.8564 8.84766 18.8564V20.2703C8.84766 20.2703 16.0007 20.2236 20.7051 20.2703C25.2496 20.3128 26.915 20.7756 28.4439 21.7967C30.4033 23.1044 31.617 24.7135 31.617 26.9681C31.617 29.1419 30.3845 30.681 28.418 31.9887C26.4069 33.324 23.3326 33.341 22.0788 33.3665C21.606 33.375 15.495 33.3665 15.495 33.3665V34.7782C15.495 34.7782 18.5364 34.8164 20.4182 34.7782C24.7298 34.6891 27.2913 34.4577 29.6741 32.8612C31.9087 31.3625 33.0919 29.3861 33.0919 26.8831C33.0919 23.5842 31.2642 21.9177 29.7564 20.8838Z" fill="#0C0C0C"/>
<path fill-rule="evenodd" clip-rule="evenodd" d="M11.4297 25.6823H22.7273V24.8926H11.4297V25.6823Z" fill="#0C0C0C"/>
<path fill-rule="evenodd" clip-rule="evenodd" d="M16.0898 28.443H22.6619V27.7637H16.0898V28.443Z" fill="#0C0C0C"/>
<path fill-rule="evenodd" clip-rule="evenodd" d="M6.15234 25.6823H9.49954V24.8926H6.15234V25.6823Z" fill="#0C0C0C"/>
<path fill-rule="evenodd" clip-rule="evenodd" d="M4.06641 28.4987H14.2327V27.709H4.06641V28.4987Z" fill="#0C0C0C"/>
<path fill-rule="evenodd" clip-rule="evenodd" d="M6.57031 8.22986H10.5314V7.57812H6.57031V8.22986Z" fill="#0C0C0C"/>
<path fill-rule="evenodd" clip-rule="evenodd" d="M3.8125 13.5147H12.885V12.7568H3.8125V13.5147Z" fill="#0C0C0C"/>
<path fill-rule="evenodd" clip-rule="evenodd" d="M4.06641 34.6807H13.6328V33.7339H4.06641V34.6807Z" fill="#0C0C0C"/>
<path fill-rule="evenodd" clip-rule="evenodd" d="M1.67969 37.7503H4.07188V36.3789H1.67969V37.7503Z" fill="#0C0C0C"/>
<path fill-rule="evenodd" clip-rule="evenodd" d="M7.66016 11.2012H22.6814V10.4434H7.66016V11.2012Z" fill="#0C0C0C"/>
<path fill-rule="evenodd" clip-rule="evenodd" d="M15.1719 13.5147H22.3979V12.7568H15.1719V13.5147Z" fill="#0C0C0C"/>
<path fill-rule="evenodd" clip-rule="evenodd" d="M28.9633 22.8917C27.7307 22.2188 26.651 21.7666 21.5609 21.7666C16.386 21.7666 15.6121 21.7666 13.4387 21.7666V22.6646C13.4387 22.6646 17.1505 22.6646 21.3821 22.6646C25.8936 22.6646 27.606 23.363 28.1235 23.6411C29.135 24.1825 30.4734 25.0614 30.4734 26.8573C30.4734 28.0058 29.6948 29.4451 28.5422 30.0098C27.4931 30.5257 25.5761 30.9864 22.1983 30.9864C21.7726 30.9864 1.37891 30.9864 1.37891 30.9864V31.8844C1.37891 31.8844 20.5847 31.8822 22.2759 31.8822C26.35 31.8822 27.7472 31.4895 29.182 30.7996C30.6192 30.1075 31.5789 28.6873 31.5789 26.8637C31.5789 24.8278 30.2758 23.6072 28.9633 22.8917Z" fill="#0C0C0C"/>
<path fill-rule="evenodd" clip-rule="evenodd" d="M50.3593 20.863V29.1253H55.3601C57.5218 29.1253 59.1989 28.7517 60.3915 28.0044C61.5817 27.2572 62.1768 26.2318 62.1768 24.9305C62.1768 22.2174 59.6482 20.863 54.591 20.863H50.3593ZM50.3593 11.0276V18.4429H54.1323C56.1481 18.4429 57.7335 18.0884 58.8885 17.3793C60.0434 16.6681 60.622 15.6682 60.622 14.3754C60.622 12.1442 58.6109 11.0276 54.591 11.0276H50.3593ZM46.6758 31.5603V8.59473H55.6236C58.3404 8.59473 60.4974 9.08087 62.0898 10.051C63.6823 11.0233 64.4797 12.2886 64.4797 13.8468C64.4797 15.1503 63.9975 16.2818 63.033 17.2434C62.0686 18.203 60.7373 18.8866 59.0437 19.292V19.3557C61.163 19.5383 62.8566 20.1221 64.1292 21.1093C65.4017 22.0985 66.0368 23.3829 66.0368 24.9623C66.0368 26.926 65.0724 28.5182 63.1436 29.7346C61.2124 30.951 58.7803 31.5603 55.8423 31.5603H46.6758Z" fill="#0C0C0C"/>
<path fill-rule="evenodd" clip-rule="evenodd" d="M70.1385 31.5601H73.7326V15.1606H70.1385V31.5601ZM71.9802 10.9955C71.3357 10.9955 70.7877 10.8363 70.336 10.5157C69.8821 10.1952 69.6562 9.78968 69.6562 9.29929C69.6562 8.80678 69.8821 8.39918 70.336 8.07225C70.7877 7.74745 71.3357 7.58398 71.9802 7.58398C72.6365 7.58398 73.1963 7.74745 73.6574 8.07225C74.1184 8.39918 74.3466 8.80678 74.3466 9.29929C74.3466 9.76845 74.1184 10.1697 73.6574 10.4987C73.1963 10.8299 72.6365 10.9955 71.9802 10.9955Z" fill="#0C0C0C"/>
<path fill-rule="evenodd" clip-rule="evenodd" d="M89.6307 31.4013C88.7816 31.7431 87.6643 31.9129 86.2765 31.9129C82.3436 31.9129 80.3772 30.3122 80.3772 27.1088V17.4029H76.5195V15.1611H80.3772V11.1573L83.9737 10.3081V15.1611H89.6307V17.4029H83.9737V26.6439C83.9737 27.7435 84.2301 28.529 84.7405 28.9982C85.2533 29.4673 86.1001 29.703 87.2856 29.703C88.1912 29.703 88.9721 29.5225 89.6307 29.1574V31.4013Z" fill="#0C0C0C"/>
<path fill-rule="evenodd" clip-rule="evenodd" d="M122.279 31.5593H118.91V17.3868C118.91 16.2659 119.004 14.8966 119.193 13.2747H119.113C118.79 14.2279 118.499 14.9093 118.245 15.3233L108.361 31.5593H106.707L96.8443 15.4401C96.562 14.9688 96.2727 14.247 95.9763 13.2747H95.8963C96.0045 14.1196 96.0586 15.4995 96.0586 17.4144V31.5593H92.7891V10.4321H97.2677L106.143 25.1651C106.829 26.2945 107.272 27.1394 107.474 27.6998H107.594C108.173 26.5407 108.636 25.6767 108.986 25.1057L118.042 10.4321H122.279V31.5593Z" fill="#0C0C0C"/>
<path fill-rule="evenodd" clip-rule="evenodd" d="M140.552 23.2633L135.137 23.8088C133.469 23.9787 132.213 24.2801 131.364 24.7132C130.517 25.1463 130.094 25.9126 130.094 27.0102C130.094 27.8126 130.484 28.4665 131.267 28.9739C132.048 29.4812 133.09 29.7339 134.391 29.7339C136.174 29.7339 137.647 29.2774 138.809 28.3646C139.971 27.4517 140.552 26.2969 140.552 24.8979V23.2633ZM144.148 31.5596H140.552V28.9972H140.465C138.9 30.9609 136.598 31.9438 133.559 31.9438C131.322 31.9438 129.572 31.5107 128.306 30.6467C127.043 29.7827 126.41 28.6342 126.41 27.2034C126.41 24.14 128.88 22.3568 133.822 21.8536L140.552 21.1658C140.552 18.3784 139.009 16.9858 135.925 16.9858C133.222 16.9858 130.781 17.6588 128.602 19.0026V16.3129C130.809 15.2875 133.354 14.7759 136.233 14.7759C141.509 14.7759 144.148 16.8139 144.148 20.8941V31.5596Z" fill="#0C0C0C"/>
<path fill-rule="evenodd" clip-rule="evenodd" d="M160.834 17.8187C160.206 17.4663 159.298 17.2901 158.115 17.2901C156.581 17.2901 155.297 17.8187 154.267 18.8759C153.237 19.9331 152.722 21.3745 152.722 23.2002V31.5602H149.125V15.1608H152.722V18.5405H152.809C153.321 17.3856 154.102 16.4876 155.156 15.8401C156.207 15.1948 157.384 14.8721 158.684 14.8721C159.621 14.8721 160.336 14.9464 160.834 15.0971V17.8187Z" fill="#0C0C0C"/>
<path fill-rule="evenodd" clip-rule="evenodd" d="M173.353 31.4013C172.504 31.7431 171.387 31.9129 169.999 31.9129C166.066 31.9129 164.1 30.3122 164.1 27.1088V17.4029H160.242V15.1611H164.1V11.1573L167.696 10.3081V15.1611H173.353V17.4029H167.696V26.6439C167.696 27.7435 167.953 28.529 168.463 28.9982C168.976 29.4673 169.823 29.703 171.008 29.703C171.914 29.703 172.695 29.5225 173.353 29.1574V31.4013Z" fill="#0C0C0C"/>
</g>
<defs>
<clipPath id="clip0_1039_50942">
<rect width="172.652" height="38" fill="white" transform="translate(0.738281)"/>
</clipPath>
</defs>
</svg>
