<svg width="138" height="37" viewBox="0 0 138 37" fill="none" xmlns="http://www.w3.org/2000/svg">
<g id="Group">
<g id="Group_2">
<g id="Group_3">
<path id="Vector" d="M136.49 10.769C136.643 10.769 136.795 10.769 136.947 10.9211C137.099 11.0733 137.099 11.2255 137.099 11.3777V14.7255C137.099 14.8777 137.099 15.0298 136.947 15.182C136.795 15.3342 136.643 15.3342 136.49 15.3342H133.599V28.7255C133.599 28.8777 133.599 29.0298 133.447 29.182C133.295 29.3342 133.143 29.3342 132.99 29.3342H128.577C128.425 29.3342 128.273 29.3342 128.121 29.182C127.969 29.0298 127.969 28.8777 127.969 28.7255V15.182H125.077C124.925 15.182 124.773 15.182 124.621 15.0298C124.469 14.8777 124.469 14.7255 124.469 14.5733V11.2255C124.469 11.0733 124.469 10.9211 124.621 10.769C124.773 10.769 124.925 10.769 125.077 10.769H127.969V6.05157C127.969 5.89939 127.969 5.74722 128.121 5.59504C128.273 5.44287 128.425 5.44287 128.577 5.44287H132.99C133.143 5.44287 133.295 5.44287 133.447 5.59504C133.599 5.74722 133.599 5.89939 133.599 6.05157V10.769H136.49Z" fill="black"/>
<path id="Vector_2" d="M123.863 19.7473C123.863 20.5082 123.711 21.1169 123.559 21.5734C123.407 21.8777 123.102 22.0299 122.494 22.0299H111.537C111.841 23.0951 112.298 23.856 113.059 24.3125C113.82 24.769 114.885 25.0734 116.102 25.0734C116.711 25.0734 117.32 25.0734 117.776 24.9212C118.385 24.769 118.994 24.4647 119.602 24.0082C119.754 23.856 119.907 23.856 120.059 23.856C120.211 23.856 120.363 23.856 120.515 24.0082L122.494 25.8343C122.646 25.9864 122.646 25.9864 122.646 26.1386C122.646 26.2908 122.646 26.443 122.494 26.5951C121.58 27.5082 120.667 28.1169 119.45 28.7256C118.385 29.1821 117.167 29.4864 115.798 29.4864C113.972 29.4864 112.298 29.0299 110.776 28.269C109.407 27.356 108.189 26.2908 107.428 24.769C106.667 23.3995 106.211 21.7256 106.211 20.0517C106.211 18.3777 106.667 16.7038 107.428 15.3343C108.189 13.9647 109.407 12.7473 110.776 11.9864C112.146 11.0734 113.667 10.769 115.494 10.769C117.167 10.769 118.689 11.2256 119.907 11.9864C121.276 12.7473 122.189 13.9647 122.95 15.3343C123.559 16.5517 123.863 18.0734 123.863 19.7473ZM115.341 15.3343C114.428 15.3343 113.515 15.6386 112.907 16.0951C112.146 16.5517 111.841 17.3125 111.537 18.3777H118.994C118.841 17.3125 118.385 16.5517 117.776 16.0951C117.015 15.6386 116.254 15.3343 115.341 15.3343Z" fill="black"/>
<path id="Vector_3" d="M103.776 11.0732C103.928 11.0732 104.08 11.0732 104.233 11.2254C104.385 11.3776 104.385 11.5297 104.385 11.6819V29.1819C104.385 31.008 103.928 32.5297 102.863 33.595C101.95 34.8124 100.733 35.5732 99.2109 36.0297C97.6892 36.3341 96.3196 36.6384 94.6457 36.6384C93.124 36.6384 91.6022 36.4863 90.2327 36.0297C88.8631 35.5732 87.6457 34.9645 86.7327 34.3558C86.5805 34.2037 86.5805 34.0515 86.5805 33.8993C86.5805 33.7471 86.5805 33.595 86.5805 33.595L87.9501 31.008C88.1022 30.8558 88.2544 30.7037 88.4066 30.7037C88.5588 30.7037 88.5588 30.7037 88.7109 30.7037C89.4718 31.1602 90.3849 31.6167 91.2979 31.7689C92.2109 31.921 93.124 32.0732 94.3414 32.0732C95.5588 32.0732 96.7762 31.7689 97.6892 31.3124C98.7544 30.8558 99.2109 29.9428 99.2109 28.7254V27.0515C97.8414 28.7254 96.0153 29.4863 93.8849 29.4863C92.2109 29.4863 90.6892 29.0297 89.4718 28.2689C88.1022 27.3558 87.037 26.2906 86.2762 24.7689C85.5153 23.3993 85.2109 21.7254 85.2109 20.0515C85.2109 18.3776 85.5153 16.8558 86.2762 15.3341C87.1892 13.8124 88.1022 12.7471 89.4718 11.8341C90.8414 10.921 92.2109 10.6167 93.8849 10.6167C95.8631 10.6167 97.537 11.3776 99.0588 13.0515L99.2109 11.5297C99.2109 11.2254 99.5153 10.921 99.8196 10.921H103.776V11.0732ZM94.6457 24.3124C95.7109 24.3124 96.7762 23.8558 97.537 22.9428C98.2979 22.0297 98.7544 21.1167 98.7544 19.8993C98.7544 18.6819 98.2979 17.7689 97.537 16.8558C96.7762 15.9428 95.8631 15.4863 94.6457 15.4863C93.4283 15.4863 92.5153 15.9428 91.7544 16.7037C90.9935 17.4645 90.537 18.5297 90.537 19.7471C90.537 20.9645 90.8414 22.0297 91.6022 22.7906C92.5153 23.8558 93.4283 24.3124 94.6457 24.3124Z" fill="black"/>
<path id="Vector_4" d="M83.3811 10.769C83.5333 10.769 83.6855 10.769 83.8376 10.9211C83.9898 11.0733 83.9898 11.2255 83.9898 11.3777V14.7255C83.9898 14.8777 83.9898 15.0298 83.8376 15.182C83.6855 15.3342 83.5333 15.3342 83.3811 15.3342H80.4898V28.7255C80.4898 28.8777 80.4898 29.0298 80.3376 29.182C80.1855 29.3342 80.0333 29.3342 79.8811 29.3342H75.4681C75.3159 29.3342 75.1637 29.3342 75.0116 29.182C75.0116 29.0298 75.0116 28.8777 75.0116 28.7255V15.182H71.9681C71.8159 15.182 71.6637 15.182 71.5116 15.0298C71.3594 14.8777 71.3594 14.7255 71.3594 14.5733V11.2255C71.3594 11.0733 71.3594 10.9211 71.5116 10.769C71.6637 10.769 71.8159 10.769 71.9681 10.769H75.0116V6.05157C75.0116 5.89939 75.0115 5.74722 75.1637 5.59504C75.3159 5.44287 75.4681 5.44287 75.6202 5.44287H80.0333C80.1855 5.44287 80.3376 5.44287 80.4898 5.59504C80.642 5.74722 80.642 5.89939 80.642 6.05157V10.769H83.3811Z" fill="black"/>
<path id="Vector_5" d="M66.6413 9.24711C65.8804 9.24711 65.1196 8.94277 64.5109 8.33407C64.0543 7.72537 63.75 7.11668 63.75 6.20363C63.75 5.29059 64.0544 4.6819 64.663 4.0732C65.1196 3.4645 65.8804 3.16016 66.6413 3.16016C67.4022 3.16016 68.163 3.4645 68.7717 4.0732C69.3804 4.6819 69.6848 5.44276 69.6848 6.20363C69.6848 6.9645 69.3804 7.72537 68.7717 8.33407C68.163 8.94277 67.5544 9.24711 66.6413 9.24711ZM63.9022 11.2254C63.9022 11.0732 63.9022 10.921 64.0543 10.7689C64.2065 10.7689 64.3587 10.7689 64.5109 10.7689H68.9239C69.0761 10.7689 69.2283 10.7689 69.3804 10.921C69.5326 11.0732 69.5326 11.2254 69.5326 11.3775V28.7254C69.5326 28.8775 69.5326 29.0297 69.3804 29.1819C69.2283 29.3341 69.0761 29.3341 68.9239 29.3341H64.5109C64.3587 29.3341 64.2065 29.3341 64.0543 29.1819C63.9022 29.0297 63.9022 28.8775 63.9022 28.7254V11.2254Z" fill="black"/>
<path id="Vector_6" d="M56.9061 15.3341C58.2756 15.6384 59.493 16.3993 60.4061 17.6167C61.4713 18.8341 61.9278 20.2036 61.9278 21.7254C61.9278 24.1602 61.167 26.1384 59.493 27.3558C57.9713 28.5732 55.5365 29.1819 52.3409 29.1819H43.3626C43.2104 29.1819 43.0583 29.1819 42.9061 29.0297C42.7539 28.8775 42.7539 28.7254 42.7539 28.5732V3.76885C42.7539 3.61668 42.7539 3.4645 42.9061 3.31233C42.9061 3.31233 43.0583 3.16016 43.2104 3.16016H52.1887C53.8626 3.16016 55.2322 3.4645 56.2974 4.0732C57.5148 4.6819 58.4278 5.44276 58.8843 6.50798C59.493 7.5732 59.7974 8.63842 59.7974 10.008C59.7974 11.2254 59.493 12.4428 58.8843 13.3558C58.4278 14.2689 57.6669 15.0297 56.9061 15.3341ZM54.6235 10.7689C54.6235 9.24711 53.7104 8.33407 51.7322 8.33407H48.3843V13.3558H51.7322C52.6452 13.3558 53.4061 13.2036 53.8626 12.7471C54.3191 12.2906 54.6235 11.5297 54.6235 10.7689ZM52.493 24.1602C53.5583 24.1602 54.4713 23.8558 55.2322 23.3993C55.8409 22.9428 56.2974 22.0297 56.2974 21.1167C56.2974 20.0515 55.993 19.2906 55.2322 18.8341C54.6235 18.3775 53.7104 18.0732 52.493 18.0732H48.3843V24.1602H52.493Z" fill="black"/>
<path id="Vector_7" d="M11.2527 0.877569C11.7092 0.421047 12.3179 0.116699 12.9266 0.116699H17.3396C17.9483 0.116699 18.2527 0.725395 17.7961 1.18192L9.12222 10.6167H13.9918L18.8614 15.7906H9.12222L18.8614 26.2906H12.9266C12.3179 26.2906 11.557 25.9863 11.1005 25.5297L1.20918 14.8776C0.44831 13.9645 0.44831 12.4428 1.36135 11.5297L11.2527 0.877569Z" fill="black"/>
<path id="Vector_8" d="M24.7962 35.8774C24.3397 36.3339 23.731 36.6383 22.9701 36.6383H18.5571C17.9484 36.6383 17.644 36.0296 18.1005 35.5731L26.9266 26.1383H22.0571L17.1875 20.9644H26.9266L17.1875 10.4644H23.1223C23.731 10.4644 24.4918 10.7687 24.9484 11.2252L34.8397 21.8774C35.7527 22.7904 35.7527 24.3122 34.8397 25.2252L24.7962 35.8774Z" fill="black"/>
</g>
</g>
</g>
</svg>
