<svg width="171" height="58" viewBox="0 0 171 58" fill="none" xmlns="http://www.w3.org/2000/svg">
<g id="Bitstamp" clip-path="url(#clip0_6163_97223)">
<path id="Vector" d="M25.1821 32.1925C25.1821 28.9477 23.3035 26.3576 20.258 25.3045C22.5635 24.2513 24.1574 22.0596 24.1574 19.2418C24.1574 14.83 20.4572 11.756 15.1915 11.756H0.191406V15.5131C2.55385 15.5131 4.46089 17.4201 4.46089 19.7826C4.46089 22.145 2.55385 24.0521 0.191406 24.0521V27.4392C2.55385 27.4392 4.46089 29.3462 4.46089 31.7087C4.46089 34.0711 2.55385 35.9781 0.191406 35.9781V40.0484H15.8462C21.2257 40.0484 25.1252 36.8605 25.1252 32.221M8.24649 15.8262H14.423C16.9562 15.8262 18.7494 17.4771 18.7494 19.7826C18.7494 22.0881 16.9562 23.682 14.423 23.682H8.24649V15.8262ZM8.24649 35.9212V27.3823H14.9923C17.7817 27.3823 19.6602 29.1185 19.6602 31.6233C19.6602 34.128 17.7817 35.9212 14.9923 35.9212H8.24649ZM31.2732 10.2759C33.1518 10.2759 34.518 11.6136 34.518 13.5207C34.518 15.4277 33.1803 16.7655 31.2732 16.7655C29.3946 16.7655 28.0853 15.4277 28.0853 13.5207C28.0853 11.6136 29.4231 10.2759 31.2732 10.2759ZM28.5692 19.4126H33.9488V40.0199H28.5692V19.4126ZM44.3663 19.3841H50.0874V23.4828H44.3663V33.3311C44.3663 34.8965 45.6187 36.2059 47.1841 36.2343C48.0096 36.2343 48.9204 36.1205 49.9166 35.8643L50.6282 39.9061C48.9773 40.333 47.4403 40.5323 45.9602 40.5323C41.8331 40.5323 38.9583 37.8282 38.9583 33.8719V14.6877C38.9583 13.9476 39.556 13.3499 40.296 13.3499H44.3378V19.3841H44.3663ZM60.9888 18.9002C63.3797 18.9002 65.9414 19.3841 68.56 20.3234L67.393 24.1944C65.3152 23.3974 63.2659 22.8851 61.4157 22.8851C59.5656 22.8851 58.2279 23.7674 58.2279 25.1052C58.2279 28.8339 69.2431 26.1299 69.2431 34.0996C69.2431 37.8567 65.856 40.5038 60.9888 40.5038C58.4556 40.5038 55.6946 39.9345 52.7914 38.8529L53.9299 35.0104C56.3208 35.9781 58.5979 36.4905 60.5903 36.4905C62.5827 36.4905 63.9774 35.5227 63.9774 34.0996C63.9774 30.2001 52.9906 32.9326 52.9906 25.1052C52.9906 21.4904 56.2639 18.8718 61.0457 18.8718M77.8105 19.3841H83.5316V23.4828H77.8105V33.3311C77.8105 34.8965 79.0629 36.2059 80.6284 36.2343C81.4538 36.2343 82.3647 36.1205 83.3609 35.8643L84.0724 39.9061C82.4216 40.333 80.8846 40.5323 79.4045 40.5323C75.2773 40.5323 72.4025 37.8282 72.4025 33.8719V14.6877C72.4025 13.9192 73.0287 13.3499 73.7403 13.3499H77.7821V19.3841H77.8105ZM111.995 19.3841H116.293L116.976 22.202C118.627 20.0672 121.018 18.9002 123.75 18.9002C126.739 18.9002 129.158 20.3234 130.354 22.6858C132.232 20.238 134.822 18.9002 137.811 18.9002C142.308 18.9002 145.524 22.0312 145.524 26.4145V39.9915H140.145V27.2399C140.145 24.9344 138.494 23.2836 136.16 23.2836C133.428 23.2836 131.492 25.3614 131.492 28.2931V39.9915H126.113V27.2399C126.113 24.9344 124.462 23.2836 122.156 23.2836C119.367 23.2836 117.46 25.3614 117.46 28.2931V39.9915H112.08V19.3841H111.995ZM149.936 19.3841H154.234L154.917 22.0312C156.426 20.0103 158.788 18.8718 161.521 18.8718C167.071 18.8718 170.999 23.3405 170.999 29.6878C170.999 36.0351 167.1 40.4753 161.521 40.4753C158.988 40.4753 156.824 39.4507 155.316 37.629V46.7942C155.316 47.5342 154.718 48.1319 153.978 48.1319H149.908L149.936 19.3841ZM160.098 23.1412C157.251 23.1412 155.202 25.276 155.202 28.3215V31.1109C155.202 34.0996 157.223 36.2912 160.098 36.2912C163.257 36.2912 165.477 33.5588 165.477 29.7447C165.506 25.9306 163.257 23.1697 160.098 23.1412ZM101.833 31.0825C101.833 34.0711 99.8126 36.2628 96.9378 36.2628C93.7784 36.2628 91.5583 33.5303 91.5583 29.7162C91.5583 25.9022 93.7784 23.1412 96.9378 23.1412C99.7841 23.1412 101.833 25.276 101.833 28.3215V31.0825ZM107.128 29.887V19.3841H102.83L102.147 22.0312C100.638 20.0103 98.2756 18.8718 95.5431 18.8718C89.9928 18.8718 86.0649 23.3405 86.0649 29.6878C86.0649 36.0351 89.9643 40.4753 95.5431 40.4753C95.8562 40.4753 96.1693 40.4753 96.4824 40.4184C98.8164 40.1907 100.78 39.0806 102.147 37.3159L102.83 39.963H107.128V29.887Z" fill="#0C0C0C"/>
</g>
<defs>
<clipPath id="clip0_6163_97223">
<rect width="170.714" height="56.635" fill="white" transform="translate(0.285156 0.88623)"/>
</clipPath>
</defs>
</svg>
