<svg width="148" height="38" viewBox="0 0 148 38" fill="none" xmlns="http://www.w3.org/2000/svg">
<path d="M58.617 9.43394C58.2868 9.07494 57.9069 8.7739 57.491 8.54168C57.2859 8.4243 57.0722 8.32553 56.852 8.24637L56.9923 8.17254C57.2617 8.02193 57.5097 7.83012 57.7286 7.60301C58.0926 7.19753 58.3641 6.70564 58.5215 6.16652C58.6938 5.58883 58.7786 4.98479 58.7728 4.37777C58.779 3.79054 58.688 3.20686 58.504 2.65441C58.3383 2.15998 58.072 1.71227 57.7248 1.34449C56.9689 0.547148 55.6968 0.00292969 53.9864 0.00292969H45.0117V17.2639H54.6332C55.3844 17.2803 56.1321 17.1496 56.8403 16.8779C57.4259 16.6423 57.9575 16.2725 58.3988 15.7937C58.769 15.3826 59.0516 14.8887 59.2267 14.3467C59.4246 13.75 59.5242 13.1202 59.5209 12.4862C59.5257 11.9026 59.4522 11.3214 59.3027 10.7607C59.1731 10.2665 58.9382 9.81204 58.617 9.43394ZM55.0871 13.4354C54.9123 13.5745 54.7136 13.6742 54.5027 13.7286C54.2242 13.8028 53.9381 13.8382 53.6514 13.8341H48.752V10.3389H53.6903C54.1775 10.3147 54.658 10.4693 55.054 10.7776C55.2271 10.9324 55.3573 11.1361 55.4299 11.3661C55.5127 11.6338 55.5522 11.915 55.5468 12.1972C55.5511 12.4479 55.5135 12.6973 55.4358 12.9334C55.3637 13.1319 55.2432 13.3054 55.0871 13.4354ZM54.6741 4.36512C54.7648 4.6187 54.8111 4.88839 54.8105 5.16035C54.8152 5.46426 54.769 5.76658 54.6741 6.05262C54.6003 6.27288 54.481 6.472 54.3254 6.6348C54.1964 6.76719 54.0421 6.86729 53.8734 6.92801C53.6919 6.99283 53.5016 7.02421 53.3104 7.02082H48.752V3.41379H52.9832C53.2566 3.40795 53.5296 3.43985 53.7955 3.50871C53.9956 3.55959 54.1818 3.66076 54.339 3.80402C54.4922 3.9612 54.6095 4.15471 54.6819 4.36934L54.6741 4.36512Z" fill="#0C0C0C"/>
<path d="M62.5 17.2639H62.7084H66.3766V0.00292969H62.5V17.2639Z" fill="#0C0C0C"/>
<path d="M68.7305 3.56145H73.7818V17.2639H77.6584V3.56145H82.7273V0.00292969H68.7305V3.56145Z" fill="#0C0C0C"/>
<path d="M84.1172 3.56145H89.1666V17.2639H93.0432V3.56145H98.114V0.00292969H84.1172V3.56145Z" fill="#0C0C0C"/>
<path d="M113.47 8.29942C113.85 7.58856 114.068 6.55497 114.068 5.25137C114.077 4.63034 114.02 4.01027 113.897 3.40356C113.792 2.90324 113.606 2.42736 113.345 1.99872C112.993 1.3511 112.466 0.835806 111.836 0.522156C111.043 0.150512 110.184 -0.0266889 109.321 0.00325028H100.465V17.2643H104.225V10.7252H107.973L111 17.2643H115.286L111.619 9.91731C112.011 9.79309 112.376 9.58619 112.694 9.30852C113.012 9.03086 113.275 8.68791 113.47 8.29942ZM110.116 6.75325C110.072 6.84326 110.013 6.92289 109.94 6.98739C109.798 7.1065 109.634 7.19201 109.459 7.23841C109.227 7.30168 108.989 7.33217 108.75 7.32911H104.244V3.56177H108.553C108.913 3.54685 109.272 3.61293 109.607 3.75583C109.727 3.81266 109.838 3.89032 109.934 3.98575C110.025 4.07769 110.099 4.18625 110.154 4.30638C110.181 4.37467 110.202 4.44523 110.217 4.51731C110.281 4.85662 110.313 5.20236 110.31 5.5488C110.309 5.76662 110.291 5.98393 110.256 6.19848C110.23 6.38899 110.183 6.57534 110.116 6.75325Z" fill="#0C0C0C"/>
<path d="M113.472 8.29932H113.469V8.30285L113.472 8.29932Z" fill="#0C0C0C"/>
<path d="M121.436 10.4549H129.649V6.81199H121.436V3.62684H129.964V0.00292969H117.695V17.2639H117.906H130.062V13.6632H121.436V10.4549Z" fill="#0C0C0C"/>
<path fill-rule="evenodd" clip-rule="evenodd" d="M45.1016 22.5908H147.371V37.734H45.1016V22.5908ZM81.986 34.37L81.9081 33.5832C81.4951 34.1042 80.8951 34.4881 79.6464 34.4881C78.4289 34.4881 77.4549 34.0198 76.886 33.2436C76.4633 32.6677 76.1477 31.594 76.1477 30.1786C76.1477 28.9552 76.2763 28.0503 76.8568 27.1981C77.3575 26.464 78.3003 25.8375 79.8529 25.8375C81.5049 25.8375 82.4575 26.4218 82.9192 27.3141C83.1648 27.7845 83.2937 28.3157 83.2932 28.8561H81.6412C81.6214 28.4997 81.483 28.1633 81.2516 27.909C81.0705 27.7295 80.8582 27.591 80.6271 27.5015C80.3959 27.4121 80.1506 27.3734 79.9055 27.3879C79.2159 27.3879 78.725 27.5799 78.3919 27.9743C78.0588 28.3688 77.8815 29.0712 77.8815 30.2208C77.8815 31.3704 78.049 31.9758 78.3627 32.4019C78.6198 32.7436 79.1886 33.02 79.9367 33.02C80.9283 33.02 81.6354 32.4757 81.7737 31.786V31.0097H79.5295V29.4994H83.3361V32.0961C83.3361 32.9738 83.3431 33.9753 83.3452 34.2738L83.3458 34.3615L81.986 34.37ZM84.4717 34.3685V25.9627H86.1821V32.8055H90.0645V34.3685H84.4717ZM97.7086 30.1154C97.7086 28.8054 97.5021 27.8372 97.0501 27.1875C96.4618 26.3164 95.4683 25.8375 93.9274 25.8375C92.3534 25.8375 91.3949 26.3902 90.8105 27.2635C90.3488 27.9216 90.1423 28.8898 90.1423 30.1365C90.1423 31.4548 90.3683 32.4547 90.8495 33.1676C91.4105 34.0409 92.4021 34.4881 93.9254 34.4881C95.4488 34.4881 96.4813 34.0198 97.0209 33.1465C97.4631 32.4357 97.7086 31.4865 97.7086 30.1154ZM96.0001 30.1576C96.0001 31.0836 95.8423 31.9653 95.4683 32.3703C95.1547 32.7099 94.7417 32.9778 93.941 32.9778C93.1852 32.9778 92.7722 32.7542 92.4566 32.4125C92.067 31.9864 91.8722 31.1152 91.8722 30.1681C91.8722 29.2632 92.0475 28.4004 92.3534 28.0292C92.6865 27.6242 93.0703 27.369 93.9254 27.369C94.7806 27.369 95.1917 27.6474 95.517 28.0186C95.8423 28.3899 96.0001 29.2315 96.0001 30.1576ZM103.477 34.3685H98.7703V25.9627H103.153C103.989 25.9627 104.597 26.2285 104.951 26.5955C105.119 26.7865 105.249 27.0123 105.333 27.2592C105.417 27.5061 105.455 27.769 105.442 28.032C105.47 28.5923 105.294 29.1421 104.951 29.5634C104.742 29.7732 104.484 29.9188 104.205 29.9852C104.657 30.0547 105.074 30.283 105.394 30.6349C105.678 30.9534 105.816 31.4787 105.816 32.082C105.835 32.6617 105.645 33.2268 105.287 33.6577C104.893 34.0922 104.313 34.3685 103.477 34.3685ZM103.399 27.6649C103.183 27.4966 102.918 27.4173 102.653 27.4413H100.432V29.4748H102.816C103.031 29.487 103.241 29.4066 103.401 29.2512C103.496 29.1422 103.57 29.0131 103.617 28.8719C103.664 28.7307 103.684 28.5805 103.675 28.4306C103.679 28.2896 103.657 28.1492 103.61 28.0176C103.563 27.8861 103.492 27.7662 103.401 27.6649H103.399ZM104.038 31.9427C104.049 31.7952 104.03 31.6467 103.98 31.5086C103.931 31.3705 103.854 31.2463 103.753 31.1454C103.537 30.9746 103.273 30.8883 103.005 30.9007H100.432V32.8793H102.986C103.261 32.897 103.534 32.8186 103.765 32.6557C103.859 32.5681 103.932 32.458 103.979 32.3342C104.027 32.2104 104.047 32.0764 104.038 31.9427ZM106.142 34.3685H107.882L108.579 32.3899H111.706L112.364 34.3685H114.133L111.293 25.9627H109.15L106.142 34.3685ZM110.192 27.5911L110.369 28.283L111.193 30.8691H109.113L109.997 28.2935L110.192 27.5911ZM114.867 34.3685V25.9627H116.578V32.8055H120.46V34.3685H114.867Z" fill="#0C0C0C"/>
<path d="M35.1945 26.7905V0.00146484H10.4542V7.92639H14.9737V4.89522H30.6731V21.8926H25.088V10.947H0.347656V37.7361H25.088V29.8133H20.5685V32.8402H4.86715V15.8408H10.4561V26.7905H35.1945ZM20.5646 21.8947H14.9756V15.8408H20.5646V21.8947Z" fill="#0C0C0C"/>
<path d="M141.566 8.26275L139.877 5.65557L136.37 0.00244141H131.888L137.395 8.54541L131.543 17.2635H135.92L136.006 17.1285L139.477 11.7158L142.925 17.2635H147.39L141.566 8.26275Z" fill="#0C0C0C"/>
<path d="M142.418 2.98088H144.639V5.32861H147.391V0.00244141H142.471V2.98088H142.418Z" fill="#0C0C0C"/>
</svg>
