<svg width="150" height="38" viewBox="0 0 150 38" fill="none" xmlns="http://www.w3.org/2000/svg">
<g clip-path="url(#clip0_1039_50943)">
<path d="M42.4727 19.11C42.4727 15.2014 45.2483 11.8629 48.9657 11.8629C51.3696 11.8629 52.8566 12.9757 54.0213 14.3329L52.8318 15.7171C51.8405 14.55 50.6509 13.6814 48.9409 13.6814C46.3635 13.6814 44.4057 16.07 44.4057 19.11C44.4057 22.1229 46.4131 24.5114 49.04 24.5114C50.6509 24.5114 51.8405 23.5886 52.8566 22.4214L54.0957 23.67C52.8318 25.2171 51.32 26.3571 48.9409 26.3571C45.2731 26.3571 42.4727 23.0457 42.4727 19.11ZM56.227 7.46571L58.1105 6.46143V14.6043C58.9531 13.1114 60.2666 11.89 62.4474 11.89C65.4957 11.89 67.28 14.1429 67.28 17.4543V26.0586H65.3966V17.9157C65.3966 15.3371 64.1327 13.7357 61.9022 13.7357C59.7214 13.7357 58.1105 15.4729 58.1105 18.0786V26.0314H56.227V7.46571ZM78.7792 20.9286V19.6529C77.5896 19.2729 76.3257 19.0557 75.0866 19.0557C72.7322 19.0557 71.394 20.1957 71.394 21.9057C71.394 23.6429 72.8561 24.6743 74.5661 24.6743C76.8957 24.6471 78.7792 23.1271 78.7792 20.9286ZM69.4857 21.96C69.4857 18.9743 71.6914 17.4271 74.8883 17.4271C76.4992 17.4271 77.6392 17.6714 78.7544 18.0243V17.59C78.7544 15.12 77.3914 13.8443 75.0122 13.8443C73.5253 13.8443 72.3357 14.2514 71.1709 14.8486L70.6009 13.1657C71.9887 12.46 73.3518 11.9714 75.2105 11.9714C76.9948 11.9714 78.3827 12.5143 79.2996 13.4914C80.1918 14.4686 80.6131 15.7986 80.6131 17.5629V26.0314H78.7544V23.9686C77.8622 25.19 76.4248 26.33 74.1944 26.33C71.84 26.33 69.4857 24.8371 69.4857 21.96ZM83.8101 12.1614H85.6935V14.5771C86.5361 13.0843 87.8496 11.8629 90.0305 11.8629C93.0787 11.8629 94.8631 14.1157 94.8631 17.4271V26.0314H92.9796V17.9157C92.9796 15.3371 91.7157 13.7357 89.4853 13.7357C87.3044 13.7357 85.6935 15.4729 85.6935 18.0786V26.0314H83.8101V12.1614ZM108.171 18.3771C108.171 15.5271 105.916 13.6814 103.512 13.6814C101.108 13.6814 99.1257 15.5 99.1257 18.4043C99.1257 21.2 101.158 23.1271 103.512 23.1271C105.916 23.1271 108.171 21.2271 108.171 18.3771ZM97.7874 28.4471L98.6548 26.8457C100.092 28.0129 101.703 28.61 103.512 28.61C106.288 28.61 108.122 26.9271 108.122 23.67V22.0414C107.031 23.6429 105.47 24.9729 103.165 24.9729C100.142 24.9729 97.2174 22.4757 97.2174 18.4314C97.2174 14.3871 100.142 11.89 103.165 11.89C105.544 11.89 107.081 13.1657 108.097 14.6857V12.1886H109.98V23.6157C109.98 25.76 109.386 27.3886 108.37 28.5286C107.254 29.7771 105.569 30.3743 103.562 30.3743C101.43 30.3743 99.4974 29.7229 97.7874 28.4471ZM122.62 18.2686C122.397 15.7443 121.083 13.6 118.58 13.6C116.399 13.6 114.739 15.5814 114.466 18.2686H122.62ZM118.927 24.5386C120.662 24.5386 121.876 23.7514 122.917 22.5843L124.082 23.7514C122.818 25.2986 121.257 26.3571 118.877 26.3571C115.408 26.3571 112.558 23.4257 112.558 19.11C112.558 15.0929 115.135 11.8629 118.63 11.8629C122.372 11.8629 124.528 15.1471 124.528 19.2186C124.528 19.4086 124.528 19.6257 124.503 19.9514H114.466C114.739 22.8557 116.697 24.5386 118.927 24.5386ZM127.155 8.33429L129.038 7.30286V26.0043H127.155V8.33429ZM132.483 7.46571L134.367 6.46143V26.0586H132.483V7.46571ZM136.87 29.6957L137.514 28.0671C138.134 28.42 138.679 28.5829 139.497 28.5829C140.612 28.5829 141.33 27.9314 142.099 25.9771L136.349 12.1614H138.431L143.016 23.7243L147.08 12.1614H149.087L143.784 26.4929C142.718 29.37 141.479 30.4014 139.571 30.4014C138.505 30.4014 137.712 30.1571 136.87 29.6957Z" fill="#0C0C0C"/>
<path d="M18.1102 31.9479C17.8376 32.2464 17.5402 32.5179 17.218 32.7621C16.5985 33.2779 15.9541 33.7122 15.2602 34.1193C13.8971 34.8793 12.4598 35.4493 10.948 35.775C10.5763 35.8564 10.2045 35.9379 9.8328 35.9921L9.2628 36.0736L8.99019 36.1007L8.71758 36.1279L8.14758 36.1821L7.57758 36.2093C7.20584 36.2364 6.80932 36.2364 6.43758 36.2636C5.32236 36.2636 4.20715 36.2093 3.09193 36.1007C3.21584 35.9107 3.33976 35.6936 3.46367 35.4764C3.81063 34.8793 4.1328 34.2279 4.43019 33.5764C4.97541 32.2736 5.39671 30.9164 5.74367 29.5593C6.06584 28.2293 6.46236 26.9536 6.90845 25.6507C7.35454 24.3479 7.87497 23.0993 8.46976 21.8779C8.04845 22.3936 7.67671 22.9636 7.32976 23.5607C6.9828 24.1307 6.63584 24.755 6.33845 25.3521C5.71889 26.5736 5.17367 27.8764 4.75236 29.1793C4.30628 30.455 3.83541 31.7307 3.26541 32.8979C2.69541 34.065 2.00149 35.1507 1.20845 36.1821L0.390625 37.2679L1.67932 37.4579C3.26541 37.7021 4.87628 37.8379 6.48715 37.7836C6.88367 37.7564 7.30497 37.7564 7.7015 37.7021L8.29628 37.6479L8.89106 37.5664C9.28758 37.5121 9.6841 37.4036 10.0806 37.3493C10.4771 37.2407 10.8737 37.1593 11.2702 37.0236C11.6667 36.915 12.0385 36.7521 12.435 36.6164C12.8067 36.4536 13.2032 36.2907 13.575 36.1007C14.3185 35.7479 15.0371 35.2864 15.7063 34.7979C16.3754 34.3093 16.995 33.7393 17.565 33.0879C18.1102 32.4364 18.6058 31.7579 18.9528 30.9707C18.6802 31.3507 18.4076 31.6764 18.1102 31.9479ZM26.9824 8.52357C27.4285 8.035 28.0232 7.76357 28.6676 7.76357C29.2871 7.76357 29.8819 8.00786 30.3528 8.52357C31.2698 9.555 31.2698 11.1836 30.3528 12.215C29.4358 13.2193 27.9241 13.2193 26.9824 12.215C26.5363 11.7264 26.2885 11.075 26.2885 10.3693C26.2885 9.66358 26.5363 9.01214 26.9824 8.52357ZM28.6676 14.5493C29.6589 14.5493 30.6254 14.1421 31.3689 13.3279C32.8558 11.6721 32.8558 9.03929 31.3689 7.38358C29.8819 5.755 27.4532 5.755 25.9663 7.38358C25.2476 8.17072 24.8511 9.22929 24.8511 10.3421C24.8511 11.455 25.2476 12.5136 25.9663 13.3007C26.685 14.115 27.6515 14.5493 28.6676 14.5493ZM29.7828 20.575C24.3058 25.8679 22.0258 26.3564 19.7458 25.2164L22.2241 21.7964C22.5958 21.3079 22.8437 20.7107 22.9924 20.0864L23.9837 15.4993L19.8202 16.585C19.2502 16.7479 18.705 17.0193 18.2589 17.4264L15.1363 20.1407C14.0706 17.6436 14.5415 15.1464 19.3493 9.14786C23.9093 3.475 33.525 2.17214 36.375 1.90072C36.1519 5.02214 34.9624 15.5807 29.7828 20.575ZM26.1398 28.7721C26.0902 29.0164 25.9663 29.2607 25.768 29.3964C25.198 29.8307 24.3058 30.4279 23.5128 30.9707L23.5624 30.8079C23.9341 29.1521 23.9341 27.8764 23.5624 27.0079C24.6032 26.655 25.7185 26.0307 26.9824 25.0807C26.6602 26.3564 26.3132 27.8764 26.1398 28.7721ZM17.4906 25.8136C17.1685 26.275 16.648 26.5193 16.1276 26.4921H16.1028H14.8637L19.1758 20.7921L13.9715 25.515V24.185V24.1307C13.9467 23.5607 14.1698 22.9907 14.5911 22.6379L19.1511 18.675C19.4485 18.4307 19.7954 18.2407 20.1424 18.1321L22.0011 17.6436L21.555 19.6793C21.4558 20.0864 21.3071 20.4664 21.0593 20.7921L17.4906 25.8136ZM10.0558 15.9879L9.90715 16.0421C10.378 15.1736 10.9232 14.1964 11.3198 13.5721C11.4437 13.355 11.6667 13.2193 11.8898 13.165C12.7076 12.975 14.0954 12.595 15.2602 12.2693C14.3928 13.6536 13.8228 14.9021 13.5006 16.0421C12.7324 15.5536 11.5676 15.5536 10.0558 15.9879ZM37.1432 0.244999C36.6228 0.272142 24.0332 0.896426 18.2589 8.08928C17.7137 8.76786 17.1932 9.47357 16.6728 10.1793C15.8302 10.4236 12.9058 11.2921 11.6171 11.5907C11.0224 11.7264 10.4771 12.1064 10.1302 12.6764C9.23802 14.0879 7.70149 16.9921 7.65193 17.1007L6.53671 19.1907L8.56889 18.2136C9.90715 17.5893 12.1376 16.9379 12.9306 17.4536C13.0545 17.535 13.2032 17.6979 13.228 18.105C13.2528 19.1364 13.5006 20.1407 13.9715 21.145L13.6989 21.3893C12.9306 22.0679 12.4845 23.0993 12.5341 24.185V28.0664H16.078C17.0693 28.1207 18.0111 27.6321 18.6306 26.7907L18.8537 26.4921C19.7706 27.0079 20.6876 27.3064 21.6293 27.3064C22.0011 27.3336 22.125 27.4693 22.2241 27.6321C22.7198 28.5007 22.125 30.9707 21.5302 32.4364L20.638 34.6621L22.5463 33.4407C22.6702 33.3593 25.2971 31.6764 26.5858 30.6993C27.0815 30.3193 27.4285 29.7493 27.5524 29.0707C27.825 27.6593 28.618 24.4293 28.8411 23.5064C29.4358 22.9907 30.0554 22.3936 30.7245 21.7421C37.2671 15.4179 37.8619 1.60214 37.8867 1.03214L37.9115 0.163574L37.1432 0.244999Z" fill="#0C0C0C"/>
</g>
<defs>
<clipPath id="clip0_1039_50943">
<rect width="148.696" height="38" fill="white" transform="translate(0.390625)"/>
</clipPath>
</defs>
</svg>
