<svg width="158" height="40" viewBox="0 0 158 40" fill="none" xmlns="http://www.w3.org/2000/svg">
<g clip-path="url(#clip0_1039_50934)">
<path d="M32.3002 14.1537C26.6157 14.1537 22.1741 18.3509 22.1741 23.9696C22.1741 29.5884 26.5035 33.7496 32.3002 33.7496C38.0969 33.7496 42.5016 29.5165 42.5016 23.9337C42.5016 18.3868 38.1722 14.1537 32.3002 14.1537ZM32.3385 29.7003C29.1014 29.7003 26.7293 27.2549 26.7293 23.971C26.7293 20.6497 29.0631 18.2058 32.3002 18.2058C35.5757 18.2058 37.9463 20.6871 37.9463 23.971C37.9463 27.2549 35.5757 29.7003 32.3385 29.7003ZM43.743 18.4241H46.5668V33.3862H51.0837V14.5184H43.743V18.4241ZM10.8065 18.2044C13.1786 18.2044 15.0607 19.6274 15.7751 21.7439H20.5562C19.6898 17.2194 15.8504 14.1537 10.8449 14.1537C5.16038 14.1537 0.71875 18.3509 0.71875 23.971C0.71875 29.5911 5.04817 33.751 10.8449 33.751C15.7382 33.751 19.6528 30.6853 20.5193 26.1234H15.7751C15.0976 28.24 13.2155 29.7003 10.8434 29.7003C7.56798 29.7003 5.27259 27.2549 5.27259 23.971C5.27401 20.6497 7.53247 18.2044 10.8065 18.2044ZM129.567 22.146L126.255 21.6721C124.674 21.4538 123.545 20.9426 123.545 19.7379C123.545 18.4241 125.013 17.7678 127.008 17.7678C129.191 17.7678 130.584 18.6797 130.885 20.1759H135.252C134.762 16.3808 131.75 14.1551 127.121 14.1551C122.34 14.1551 119.178 16.5272 119.178 19.8844C119.178 23.0951 121.249 24.9574 125.427 25.5404L128.739 26.0143C130.358 26.2326 131.262 26.8543 131.262 28.0217C131.262 29.5179 129.681 30.1382 127.498 30.1382C124.824 30.1382 123.319 29.08 123.093 27.4746H118.651C119.066 31.1606 122.039 33.751 127.459 33.751C132.391 33.751 135.665 31.5612 135.665 27.802C135.665 24.4449 133.294 22.6931 129.567 22.146ZM48.8253 6.74584C47.1691 6.74584 45.9262 7.91325 45.9262 9.51861C45.9262 11.124 47.1676 12.2914 48.8253 12.2914C50.4815 12.2914 51.7243 11.124 51.7243 9.51861C51.7243 7.91325 50.4815 6.74584 48.8253 6.74584ZM115.113 20.9786C115.113 16.8919 112.553 14.1551 107.133 14.1551C102.014 14.1551 99.1533 16.6737 98.588 20.542H103.068C103.294 19.0458 104.498 17.8051 107.058 17.8051C109.355 17.8051 110.484 18.7902 110.484 19.9949C110.484 21.5643 108.413 21.965 105.853 22.2206C102.39 22.5853 98.0994 23.7527 98.0994 28.1322C98.0994 31.5267 100.697 33.7151 104.838 33.7151C108.075 33.7151 110.108 32.4012 111.125 30.3206C111.275 32.1815 112.705 33.3862 114.701 33.3862H117.336V29.482H115.114V20.9786H115.113ZM110.671 25.7228C110.671 28.2414 108.413 30.1023 105.664 30.1023C103.97 30.1023 102.54 29.4088 102.54 27.9499C102.54 26.0889 104.836 25.5777 106.944 25.3594C108.977 25.1771 110.106 24.7391 110.671 23.8992V25.7228ZM86.6935 14.1537C84.1708 14.1537 82.0629 15.1761 80.5573 16.8906V6.56348H76.0404V33.3862H80.482V30.905C81.9876 32.6927 84.1339 33.751 86.6935 33.751C92.1137 33.751 96.2173 29.5911 96.2173 23.971C96.2173 18.3509 92.0385 14.1537 86.6935 14.1537ZM86.0159 29.7003C82.7788 29.7003 80.4067 27.2549 80.4067 23.971C80.4067 20.6871 82.8157 18.2058 86.0528 18.2058C89.3283 18.2058 91.6237 20.6511 91.6237 23.971C91.6237 27.2549 89.253 29.7003 86.0159 29.7003ZM65.2367 14.1537C62.3007 14.1537 60.3803 15.3211 59.2511 16.9638V14.5184H54.7711V33.3849H59.288V23.131C59.288 20.2477 61.1701 18.2044 63.9555 18.2044C66.5534 18.2044 68.1713 19.9921 68.1713 22.5839V33.3862H72.6882V22.2565C72.6896 17.5109 70.1684 14.1537 65.2367 14.1537ZM157.197 23.3507C157.197 17.9502 153.132 14.1551 147.673 14.1551C141.876 14.1551 137.622 18.3882 137.622 23.971C137.622 29.8467 142.178 33.751 147.748 33.751C152.454 33.751 156.143 31.05 157.083 27.219H152.378C151.7 28.8976 150.044 29.8467 147.822 29.8467C144.923 29.8467 142.74 28.0949 142.251 25.0293H157.196V23.3507H157.197ZM142.516 21.8904C143.232 19.2627 145.264 17.9861 147.598 17.9861C150.157 17.9861 152.115 19.4091 152.566 21.8904H142.516Z" fill="#0C0C0C"/>
</g>
<defs>
<clipPath id="clip0_1039_50934">
<rect width="156.478" height="27.1875" fill="white" transform="translate(0.71875 6.56299)"/>
</clipPath>
</defs>
</svg>
