<svg width="175" height="59" viewBox="0 0 175 59" fill="none" xmlns="http://www.w3.org/2000/svg">
<g id="Crypto.com" clip-path="url(#clip0_6163_97224)">
<path id="Vector" d="M20.5902 39.3669H18.521L16.0512 37.0974V35.9293L18.6211 33.4929V29.6214L21.9586 27.4521L25.7633 30.3223L20.5902 39.3669ZM12.0462 33.2927L12.4134 29.6548L11.1785 26.4175H18.5543L17.3195 29.6548L17.6532 33.2927H14.8163H12.0462ZM13.7484 37.0974L11.2786 39.4003H9.17601L3.96954 30.3557L7.80764 27.5188L11.1785 29.6548V33.5263L13.7484 35.9627V37.0974ZM9.14263 19.7091H20.5568L21.9252 25.5163H7.80764L9.14263 19.7091ZM14.8831 12.4668L0.398438 20.8439V37.5646L14.8831 45.9417L29.3678 37.5646V20.8439L14.8831 12.4668Z" fill="#03316C"/>
<path id="Vector_2" d="M45.6221 36.93C41.784 36.93 38.9805 33.9263 38.9805 30.2551C38.9805 26.5838 41.8173 23.48 45.6554 23.48C48.0918 23.48 49.5937 24.3811 50.7952 25.6827L48.9595 27.6518C48.0584 26.684 47.0905 26.0498 45.6221 26.0498C43.4861 26.0498 41.9175 27.9188 41.9175 30.1883C41.9175 32.5245 43.5194 34.3602 45.7889 34.3602C47.1907 34.3602 48.1919 33.6927 49.1264 32.7582L50.8953 34.527C49.5937 35.9288 48.1252 36.93 45.6221 36.93Z" fill="#0C0C0C"/>
<path id="Vector_3" d="M56.4665 36.9303H53.4961V23.5136H56.4665V26.6508C57.2674 24.7484 58.7693 23.4135 61.0388 23.5136V26.6508H60.8719C58.3021 26.6508 56.4998 28.3196 56.4998 31.7572L56.4665 36.9303Z" fill="#0C0C0C"/>
<path id="Vector_4" d="M76.4923 23.48L69.9842 40.5345H66.9804L68.4156 36.93L62.8086 23.48H65.9458L69.7506 33.4257L73.4218 23.48H76.4923Z" fill="#0C0C0C"/>
<path id="Vector_5" d="M85.2041 26.0498C83.2016 26.0498 81.4661 27.6852 81.4661 30.1883C81.4661 32.7248 83.235 34.3268 85.2041 34.3268C87.2399 34.3268 88.8753 32.7248 88.8753 30.1883C88.8753 27.6518 87.2066 26.0498 85.2041 26.0498ZM85.8716 36.8966C83.769 36.8966 82.4006 35.8287 81.5329 34.6272V40.5345H78.5625V23.48H81.5329V25.883C82.5007 24.548 83.8357 23.48 85.8716 23.48C88.9087 23.48 91.879 25.883 91.879 30.1883C91.879 34.4603 88.9421 36.8966 85.8716 36.8966Z" fill="#0C0C0C"/>
<path id="Vector_6" d="M98.3536 26.2837V32.6249C98.3536 33.7596 98.921 34.2269 99.9556 34.2269H101.124V36.8635H99.0878C96.9519 36.8635 95.4166 35.8956 95.4166 33.0921V26.2837H93.7812V23.7472H95.4166V20.2095H98.387V23.7472H101.157V26.2837H98.3536Z" fill="#0C0C0C"/>
<path id="Vector_7" d="M110.433 26.0498C108.064 26.0498 106.529 27.9188 106.529 30.1883C106.529 32.4912 108.164 34.3602 110.433 34.3602C112.803 34.3602 114.338 32.4912 114.338 30.2217C114.405 27.9522 112.77 26.0498 110.433 26.0498ZM110.433 36.93C106.529 36.93 103.625 33.9263 103.625 30.2551C103.625 26.5505 106.562 23.48 110.5 23.48C114.438 23.48 117.342 26.4837 117.342 30.1883C117.342 33.8595 114.438 36.93 110.433 36.93Z" fill="#0C0C0C"/>
<path id="Vector_8" d="M145.578 26.0498C143.208 26.0498 141.673 27.9188 141.673 30.1883C141.673 32.4912 143.309 34.3602 145.578 34.3602C147.948 34.3602 149.483 32.4912 149.483 30.2217C149.55 27.9522 147.914 26.0498 145.578 26.0498ZM145.578 36.93C141.673 36.93 138.77 33.9263 138.77 30.2551C138.77 26.5505 141.707 23.48 145.645 23.48C149.583 23.48 152.487 26.4837 152.487 30.1883C152.487 33.8595 149.55 36.93 145.578 36.93Z" fill="#0C0C0C"/>
<path id="Vector_9" d="M170.045 23.48C172.848 23.48 174.584 25.2488 174.584 28.4195V36.8966H171.613V29.2872C171.613 27.218 170.645 26.15 169.01 26.15C167.408 26.15 166.24 27.2847 166.24 29.3539V36.93H163.269V29.2872C163.269 27.2847 162.268 26.15 160.666 26.15C159.031 26.15 157.896 27.3848 157.896 29.3873V36.93H154.926V23.48H157.896V25.6827C158.731 24.548 159.832 23.48 161.801 23.48C163.67 23.48 164.938 24.3811 165.639 25.7495C166.74 24.3811 168.075 23.48 170.045 23.48Z" fill="#0C0C0C"/>
<path id="Vector_10" d="M122.785 34.1934V35.7287L122.685 35.8622L121.383 36.5964H121.216L119.914 35.8622L119.848 35.7287V34.1934L119.914 34.0599L121.216 33.3257H121.383L122.685 34.0599L122.785 34.1934Z" fill="#0C0C0C"/>
<path id="Vector_11" d="M131.729 36.8966C127.891 36.7965 125.154 33.7594 125.188 30.0882C125.255 26.4169 128.158 23.3798 131.996 23.4799C134.433 23.5467 135.934 24.4812 137.103 25.8162L135.234 27.7519C134.366 26.7841 133.398 26.0832 131.93 26.0832C129.794 26.0498 128.192 27.852 128.158 30.1549C128.091 32.4911 129.66 34.3601 131.93 34.3935C133.331 34.4269 134.366 33.7928 135.3 32.8583L137.036 34.6605C135.768 35.9955 134.266 36.9634 131.729 36.8966Z" fill="#0C0C0C"/>
<path id="Intersect" fill-rule="evenodd" clip-rule="evenodd" d="M0.398438 20.8439L14.8831 12.4668L29.3678 20.8439V37.5646L14.8831 45.9417L0.398438 37.5646V20.8439ZM18.521 39.3669H20.5902L25.7633 30.3223L21.9586 27.4521L18.6211 29.6214V33.4929L16.0512 35.9293V37.0974L18.521 39.3669ZM12.4134 29.6548L12.0462 33.2927H14.8163H17.6532L17.3195 29.6548L18.5543 26.4175H11.1785L12.4134 29.6548ZM11.2786 39.4003L13.7484 37.0974V35.9627L11.1785 33.5263V29.6548L7.80764 27.5188L3.96954 30.3557L9.17601 39.4003H11.2786ZM20.5568 19.7091H9.14263L7.80764 25.5163H21.9252L20.5568 19.7091Z" fill="#0C0C0C"/>
</g>
<defs>
<clipPath id="clip0_6163_97224">
<rect width="174.183" height="57.7859" fill="white" transform="translate(0.398438 0.311035)"/>
</clipPath>
</defs>
</svg>
