<svg width="129" height="38" viewBox="0 0 129 38" fill="none" xmlns="http://www.w3.org/2000/svg">
<g clip-path="url(#clip0_1039_50936)">
<g clip-path="url(#clip1_1039_50936)">
<path fill-rule="evenodd" clip-rule="evenodd" d="M47.6377 9.67969V20.4618H36.9745V11.0667C36.9745 10.3007 36.3516 9.67969 35.5835 9.67969H31.9844V35.3737C31.9844 36.14 32.6069 36.7611 33.3754 36.7611H36.9745V24.8103H47.6377V35.3737C47.6377 36.14 48.2603 36.7611 49.0287 36.7611H52.6276V11.0667C52.6276 10.3007 52.0049 9.67969 51.2365 9.67969H47.6377Z" fill="#646566"/>
<path fill-rule="evenodd" clip-rule="evenodd" d="M68.5698 16.0645V28.8976C68.5698 30.0637 67.9736 31.1691 66.9612 31.7524C64.1356 33.3807 61.2115 31.3467 61.2115 28.6649V17.4515C61.2115 16.6854 60.5888 16.0645 59.8205 16.0645H56.207V29.1222C56.207 33.3237 59.6538 36.7612 63.8666 36.7612H65.9147C70.1277 36.7612 73.5742 33.3237 73.5742 29.1222V17.4515C73.5742 16.6854 72.9517 16.0645 72.1836 16.0645H68.5698Z" fill="#646566"/>
<path fill-rule="evenodd" clip-rule="evenodd" d="M124.074 36.7607H127.673V18.5876C127.673 17.8212 127.05 17.2002 126.283 17.2002H122.684V35.3734C122.684 36.1398 123.306 36.7607 124.074 36.7607Z" fill="#131415"/>
<path fill-rule="evenodd" clip-rule="evenodd" d="M125.179 15.2314C126.717 15.2314 127.964 13.9879 127.964 12.4539C127.964 10.92 126.717 9.67676 125.179 9.67676C123.641 9.67676 122.395 10.92 122.395 12.4539C122.395 13.9879 123.641 15.2314 125.179 15.2314Z" fill="#131415"/>
<path fill-rule="evenodd" clip-rule="evenodd" d="M91.1349 28.1681C91.1349 30.6371 89.1098 32.2806 86.6341 32.2806C84.1584 32.2806 82.1329 30.6371 82.1329 28.1681V24.6449C82.1329 22.1757 84.1584 20.5322 86.6341 20.5322C89.1098 20.5322 91.1349 22.1757 91.1349 24.6449V28.1681ZM86.6341 16.0518C81.3997 16.0518 77.1172 19.7859 77.1172 25.0059V27.8293C77.1172 33.0492 81.3997 36.7612 86.6341 36.7612C91.8681 36.7612 96.151 33.0492 96.151 27.8293V25.0059C96.151 19.7859 91.8681 16.0518 86.6341 16.0518Z" fill="#646566"/>
<path fill-rule="evenodd" clip-rule="evenodd" d="M113.784 28.1679C113.784 30.637 111.758 32.2805 109.283 32.2805C106.807 32.2805 104.781 30.637 104.781 28.1679V24.6447C104.781 22.1756 106.807 20.5321 109.283 20.5321C111.758 20.5321 113.784 22.1756 113.784 24.6447V28.1679ZM109.283 16.0517C107.647 16.0517 106.104 16.4165 104.756 17.0773V11.0436C104.756 10.2772 104.133 9.65625 103.365 9.65625H99.7656V27.8291C99.7656 33.0493 104.048 36.7611 109.283 36.7611C114.517 36.7611 118.799 33.0493 118.799 27.8291V25.0057C118.799 19.7858 114.517 16.0517 109.283 16.0517Z" fill="#131415"/>
<path fill-rule="evenodd" clip-rule="evenodd" d="M17.0425 11.5595C17.0425 6.16671 14.4083 1.52913 12.4047 0.0189483C12.3965 0.0141984 12.2514 -0.0671849 12.2638 0.148465L12.2609 0.155115C12.0945 10.5674 6.76073 13.3896 3.8284 17.1911C-2.93869 25.964 3.35465 35.5825 9.76325 37.3602C13.3491 38.355 8.93514 35.6003 8.36679 29.7818C7.67934 22.7492 17.0425 17.3812 17.0425 11.5595Z" fill="#646566"/>
<path fill-rule="evenodd" clip-rule="evenodd" d="M20.1156 15.1047C20.0746 15.0768 20.0161 15.0578 19.9759 15.1243C19.8656 16.435 18.5231 19.2388 16.8215 21.8133C11.0502 30.546 14.3391 34.7557 16.1884 37.0167C17.2623 38.3293 16.1884 37.0167 18.8725 35.6753C19.0826 35.5703 24.1094 32.7588 24.6537 26.3534C25.1807 20.1504 21.445 16.2406 20.1156 15.1047Z" fill="#131415"/>
</g>
</g>
<defs>
<clipPath id="clip0_1039_50936">
<rect width="127.217" height="38" fill="white" transform="translate(0.914062)"/>
</clipPath>
<clipPath id="clip1_1039_50936">
<rect width="127.217" height="38" fill="white" transform="translate(0.914062)"/>
</clipPath>
</defs>
</svg>
