<svg width="170" height="38" viewBox="0 0 170 38" fill="none" xmlns="http://www.w3.org/2000/svg">
<g clip-path="url(#clip0_1039_50937)">
<path d="M132.336 18.9833C132.336 18.0141 132.336 17.1025 132.303 16.2606C132.282 15.4663 132.201 14.6746 132.063 13.8917C131.933 13.1767 131.705 12.4824 131.384 11.8278C131.044 11.1529 130.591 10.5388 130.043 10.0115C129.265 9.23252 128.34 8.60908 127.319 8.17597C126.214 7.73838 125.03 7.52146 123.838 7.53799C122.642 7.52287 121.454 7.73971 120.344 8.17597C119.317 8.60316 118.386 9.2239 117.604 10.0028C117.056 10.5298 116.605 11.144 116.268 11.8191C115.95 12.4738 115.725 13.1683 115.6 13.8829C115.464 14.6661 115.387 15.4578 115.368 16.2518C115.347 17.0938 115.336 18.0054 115.341 18.9746C115.347 19.9438 115.341 20.8484 115.368 21.6956C115.387 22.4896 115.464 23.2813 115.6 24.0645C115.725 24.7792 115.95 25.4736 116.268 26.1284C116.606 26.8027 117.058 27.4166 117.604 27.9447C118.384 28.7242 119.316 29.344 120.344 29.768C121.453 30.2071 122.642 30.4252 123.838 30.4095C125.031 30.4266 126.214 30.2085 127.319 29.768C128.34 29.3406 129.266 28.7211 130.043 27.9447C130.59 27.4163 131.043 26.8024 131.384 26.1284C131.705 25.4738 131.933 24.7794 132.063 24.0645C132.2 23.2838 132.279 22.4944 132.3 21.7026C132.327 20.8554 132.339 19.949 132.332 18.9816L132.336 18.9833ZM127.843 18.9833C127.843 20.0571 127.827 20.9513 127.789 21.6625C127.768 22.2467 127.709 22.8289 127.611 23.4056C127.544 23.7898 127.424 24.1634 127.254 24.516C127.117 24.8002 126.936 25.0628 126.72 25.2951C126.385 25.6697 125.97 25.9673 125.504 26.1667C124.979 26.3861 124.414 26.4977 123.844 26.4945C123.271 26.4969 122.703 26.3854 122.175 26.1667C121.698 25.971 121.271 25.6732 120.927 25.2951C120.709 25.0638 120.528 24.801 120.392 24.516C120.227 24.163 120.113 23.7893 120.053 23.4056C119.958 22.8286 119.899 22.2465 119.875 21.6625C119.843 20.9513 119.827 20.0582 119.827 18.9833C119.827 17.9095 119.843 17.0136 119.875 16.3024C119.899 15.7184 119.958 15.1363 120.053 14.5593C120.113 14.1756 120.227 13.8019 120.392 13.4489C120.529 13.1641 120.709 12.9014 120.927 12.6697C121.272 12.2922 121.698 11.9944 122.175 11.7982C122.702 11.577 123.27 11.4654 123.844 11.4705C124.414 11.4647 124.98 11.5763 125.504 11.7982C125.969 11.9981 126.384 12.2957 126.72 12.6697C126.936 12.9024 127.116 13.1649 127.254 13.4489C127.424 13.8015 127.544 14.1751 127.611 14.5593C127.709 15.136 127.768 15.7182 127.789 16.3024C127.828 17.0118 127.843 17.9078 127.843 18.9833Z" fill="#0C0C0C"/>
<path d="M168.133 8.12058C168.131 7.90861 167.955 7.73724 167.739 7.73535H164.032C163.815 7.73631 163.639 7.90822 163.638 8.12058V21.5077L154.599 7.84342C154.538 7.75104 154.485 7.73535 154.351 7.73535H150.914C150.697 7.73817 150.522 7.909 150.52 8.12058V29.8433C150.522 30.0546 150.697 30.2249 150.914 30.2268H154.618C154.835 30.2259 155.01 30.0547 155.011 29.8433V16.4213L164.052 30.117C164.114 30.2094 164.164 30.2251 164.299 30.2251H167.735C167.952 30.2241 168.127 30.0533 168.129 29.8416L168.133 8.12058Z" fill="#0C0C0C"/>
<path d="M143.288 8.12058C143.287 7.90822 143.111 7.73631 142.894 7.73535H139.191C138.974 7.73631 138.798 7.90822 138.797 8.12058V29.8416C138.798 30.0539 138.974 30.2259 139.191 30.2268H142.894C143.111 30.2259 143.287 30.0539 143.288 29.8416V8.12058Z" fill="#0C0C0C"/>
<path d="M98.9581 18.9835C98.9581 17.9028 98.9706 17.0033 99.0027 16.2869C99.0245 15.7028 99.084 15.1206 99.181 14.5438C99.5233 12.6089 101.039 11.4672 102.973 11.4672C104.235 11.4776 105.38 11.9343 106.111 12.9732C106.442 13.4582 106.683 13.9963 106.824 14.5629C106.835 14.6226 106.891 14.6643 106.953 14.6588H111.312C111.374 14.6588 111.397 14.617 111.387 14.5577C110.91 11.9204 109.472 9.55147 106.929 8.37835C105.68 7.81273 104.316 7.52972 102.939 7.55037C100.485 7.55037 98.4173 8.37196 96.7366 10.0151C95.7771 10.9295 95.1222 12.1056 94.8575 13.3898C94.6008 14.6542 94.4712 16.5181 94.4688 18.9817C94.4664 21.4454 94.596 23.3087 94.8575 24.5719C95.12 25.8578 95.773 27.0363 96.7313 27.9536C98.4108 29.5956 100.478 30.4166 102.934 30.4166C104.31 30.437 105.674 30.1546 106.924 29.5904C109.466 28.4172 110.905 26.0484 111.381 23.411C111.392 23.35 111.369 23.3099 111.306 23.3099H106.945C106.883 23.3036 106.827 23.3456 106.817 23.4058C106.676 23.9718 106.435 24.5092 106.104 24.9938C105.373 26.0396 104.228 26.4911 102.966 26.4998C101.032 26.4998 99.5161 25.3598 99.1738 23.425C99.077 22.8482 99.0174 22.266 98.9955 21.6818C98.9706 20.9619 98.9581 20.0607 98.9581 18.9835Z" fill="#0C0C0C"/>
<path d="M52.9168 8.12058C52.9159 7.90822 52.74 7.73631 52.5228 7.73535H48.8198C48.6026 7.73631 48.4268 7.90822 48.4258 8.12058V29.8433C48.4277 30.055 48.6033 30.2259 48.8198 30.227H52.5228C52.7393 30.2259 52.9149 30.055 52.9168 29.8433V23.467L55.8889 19.993L61.9935 30.1118C62.0405 30.1864 62.125 30.2304 62.2145 30.227H66.7145C66.9213 30.227 66.9588 30.1013 66.8554 29.9287L58.8627 16.681L66.1957 8.08049C66.3437 7.90618 66.2813 7.74058 66.0495 7.74058H61.1306C61.0707 7.73714 61.0131 7.76334 60.9772 7.81031L52.9168 17.2615V8.12058Z" fill="#0C0C0C"/>
<path d="M79.8948 26.5C77.8106 26.5 75.9208 24.614 75.9208 22.3619V8.12058C75.9198 7.90822 75.7439 7.73631 75.5267 7.73535H71.8237C71.6065 7.73631 71.4307 7.90822 71.4297 8.12058V22.3061C71.4297 27.2653 75.2237 30.4168 79.8948 30.4168C84.5659 30.4168 88.3599 27.2653 88.3599 22.3061V8.12058C88.3579 7.90861 88.1827 7.73724 87.9659 7.73535H84.2611C84.0445 7.73726 83.8698 7.9089 83.8688 8.12058V22.3619C83.8688 24.6122 81.9772 26.5 79.8948 26.5Z" fill="#0C0C0C"/>
<path fill-rule="evenodd" clip-rule="evenodd" d="M11.2036 18.9837L22.6996 30.225L29.9559 23.1305C31.2534 21.9883 33.2385 22.0391 34.4731 23.2462C35.7077 24.4532 35.7597 26.3941 34.5914 27.6626L25.0155 37.0267C23.7293 38.2635 21.6663 38.2635 20.3801 37.0267L6.56455 23.5158V31.5463C6.56455 33.3186 5.09503 34.7554 3.28228 34.7554C1.46952 34.7554 0 33.3186 0 31.5463V6.41054C0 4.63821 1.46952 3.20145 3.28228 3.20145C5.09503 3.20145 6.56455 4.63821 6.56455 6.41054V14.4411L20.3783 0.933656C21.6641 -0.304057 23.7279 -0.304057 25.0138 0.933656L34.5967 10.2959C35.765 11.5645 35.7131 13.5053 34.4785 14.7124C33.2438 15.9195 31.2588 15.9703 29.9612 14.8281L22.7049 7.73356L11.2036 18.9837ZM22.7049 15.7711C21.3758 15.7704 20.1771 16.5527 19.6679 17.753C19.1588 18.9534 19.4395 20.3355 20.3791 21.2547C21.3187 22.1738 22.7321 22.449 23.9602 21.9518C25.1882 21.4547 25.989 20.2832 25.989 18.9837C25.9895 18.1316 25.6437 17.3143 25.0279 16.7115C24.412 16.1087 23.5764 15.7698 22.7049 15.7693V15.7711Z" fill="#0C0C0C"/>
</g>
<defs>
<clipPath id="clip0_1039_50937">
<rect width="169.348" height="38" fill="white"/>
</clipPath>
</defs>
</svg>
