<svg width="210" height="46" viewBox="0 0 210 46" fill="none" xmlns="http://www.w3.org/2000/svg">
<path fill-rule="evenodd" clip-rule="evenodd" d="M1.20047 1.01978C6.42107 7.38865 12.1532 15.3899 13.0803 16.684C13.1297 16.753 13.1655 16.803 13.1868 16.8326C13.681 17.5192 14.089 18.0296 14.3989 18.4172L14.3989 18.4173C15.0868 19.2778 15.2909 19.5331 14.8804 19.7676C14.5494 19.9568 14.2078 20.0191 13.8671 20.0191C13.4816 20.0191 13.0474 19.8326 12.7312 19.5311C12.5077 19.318 10.9783 17.0855 8.89587 13.8377C7.30251 11.3525 5.96904 9.29101 5.93266 9.2565C5.84856 9.17667 5.85 9.17938 8.73342 14.3651C10.5439 17.6214 11.7824 20.0277 11.7824 20.1816C11.7824 20.4948 11.6974 20.6594 11.3131 21.0903C10.6724 21.8088 10.386 22.616 10.1793 24.2865C9.94749 26.1592 9.29576 27.4823 7.4896 29.7462C6.43235 31.0716 6.25936 31.3145 5.99258 31.8488C5.65656 32.5214 5.56415 32.8982 5.5267 33.7476C5.48712 34.6459 5.56421 35.226 5.8372 36.0846C6.0762 36.8364 6.32565 37.3329 6.96338 38.3258C7.51375 39.1824 7.83064 39.8191 7.83064 40.0683C7.83064 40.2665 7.86829 40.2667 8.72112 40.0732C10.762 39.6098 12.4193 38.7953 13.3513 37.7967C13.9282 37.1787 14.0636 36.8374 14.068 35.9906C14.0709 35.4366 14.0515 35.3207 13.9025 35.002C13.66 34.4832 13.2185 34.052 12.2455 33.3835C10.9706 32.5074 10.4261 31.8022 10.2757 30.8323C10.1523 30.0365 10.2954 29.475 11.0007 27.9892C11.7307 26.4513 11.9116 25.7959 12.034 24.2456C12.113 23.2441 12.2225 22.8491 12.5088 22.5322C12.8074 22.2016 13.0762 22.0896 13.8151 21.9879C15.0197 21.8226 15.7868 21.5094 16.4173 20.9253C16.9643 20.4187 17.1932 19.9305 17.2283 19.1957L17.255 18.6386L16.9493 18.2804C15.8424 16.9831 0.459167 0 0.391046 0C0.376494 0 0.74075 0.458934 1.20047 1.01978ZM8.45203 34.7639C8.70231 34.3183 8.56933 33.7457 8.15068 33.4658C7.75512 33.2015 7.14066 33.3261 7.14066 33.6705C7.14066 33.7756 7.19848 33.8521 7.32885 33.9197C7.54832 34.0332 7.56426 34.1608 7.39157 34.4216C7.21669 34.6859 7.23079 34.9182 7.43139 35.0759C7.75469 35.3305 8.21233 35.1905 8.45203 34.7639ZM15.9851 10.4693C15.4912 10.3923 15.4704 10.3832 15.7028 10.3473C16.1482 10.2785 17.1998 10.3723 17.9245 10.5455C19.6162 10.9497 21.1557 11.9852 22.7989 13.8242L23.2354 14.3128L23.86 14.2118C26.491 13.7868 29.1675 14.1246 31.4062 15.1641C32.0221 15.4501 32.9931 16.0193 33.1144 16.1656C33.1529 16.2122 33.2241 16.5124 33.272 16.8326C33.4383 17.9405 33.3552 18.7897 33.0179 19.424C32.8346 19.7691 32.8244 19.8785 32.9476 20.1739C33.046 20.4096 33.3205 20.5841 33.5925 20.5837C34.1487 20.5829 34.7474 19.679 35.025 18.4213L35.1351 17.9216L35.3535 18.1702C36.5509 19.534 37.4916 21.3938 37.6532 22.7176L37.6952 23.0627L37.494 22.749C37.1474 22.2091 36.7995 21.8415 36.3536 21.5451C35.5503 21.0107 34.7006 20.8288 32.4508 20.7097C30.4187 20.602 29.2688 20.4276 28.1284 20.0538C26.188 19.4179 25.21 18.5711 22.9051 15.5317C21.8815 14.1817 21.2488 13.4348 20.6194 12.8333C19.1892 11.4665 17.7839 10.7497 15.9851 10.4693ZM33.5726 13.4835C33.6238 12.5789 33.7459 11.9822 33.9913 11.4373C34.0884 11.2216 34.1794 11.045 34.1933 11.045C34.2075 11.045 34.1652 11.2042 34.0995 11.3988C33.9212 11.9276 33.8918 12.651 34.0148 13.4925C34.1707 14.5603 34.2595 14.7144 35.3822 15.8678C35.9089 16.4089 36.5215 17.0912 36.7436 17.3842L37.1474 17.9168L36.7436 17.5361C36.2498 17.0706 35.1142 16.1627 34.8634 16.0329C34.6951 15.9459 34.6701 15.9474 34.5665 16.0512C34.4709 16.1468 34.4507 16.2906 34.4374 16.9699C34.4167 18.0288 34.2732 18.7085 33.9266 19.3881C33.7392 19.7556 33.7096 19.6772 33.8792 19.2623C34.0059 18.9526 34.0187 18.8164 34.0179 17.7913C34.0159 15.7317 33.7725 15.2366 32.3459 14.3884C31.9847 14.1735 31.389 13.8636 31.0226 13.6997C30.6564 13.5358 30.3654 13.393 30.3758 13.3823C30.4163 13.3419 31.8077 13.7501 32.3676 13.9666C33.2006 14.2886 33.338 14.3304 33.4392 14.2915C33.5069 14.2655 33.5398 14.067 33.5726 13.4835ZM15.4558 11.9023C15.3215 13.4924 15.9418 15.6195 16.9444 17.0069C17.7215 18.0823 18.9263 18.918 19.8157 18.9987C20.398 19.0516 20.573 18.8683 20.3096 18.4816C19.9438 17.9447 19.4939 17.1179 19.3749 16.764C19.3009 16.5441 19.1402 15.8946 19.0177 15.3206C18.5995 13.3611 18.1885 12.5979 17.239 12.0183C16.893 11.8071 16.1541 11.5306 15.7255 11.4521L15.4973 11.4102L15.4558 11.9023ZM32.3567 27.3321C27.6714 25.4361 26.0212 23.7902 26.0212 21.0132C26.0212 20.6045 26.0354 20.2702 26.0523 20.2702C26.0695 20.2702 26.2507 20.405 26.4551 20.5699C27.4052 21.3358 28.4691 21.663 31.4145 22.0947C33.1475 22.3491 34.1228 22.5543 35.0226 22.8543C37.8822 23.8075 39.6515 25.742 40.0734 28.377C40.196 29.1426 40.1241 30.5783 39.9254 31.3351C39.7684 31.9328 39.2895 33.01 39.1625 33.0513C39.1273 33.0628 39.0926 32.9272 39.0837 32.7426C39.0356 31.7532 38.5381 30.79 37.7028 30.0684C36.7529 29.2479 35.4767 28.595 32.3567 27.3321ZM28.8412 27.1235C28.9069 27.3204 29.0088 27.7687 29.0674 28.1199C29.4427 30.3647 28.2704 32.1785 25.9899 32.8813C25.7484 32.9556 24.7975 33.1428 23.8766 33.2968C22.0124 33.6088 21.1804 33.8298 20.3446 34.2344C19.7518 34.5215 19.0342 34.9513 19.0768 34.994C19.0905 35.0079 19.2259 34.9754 19.3774 34.9219C20.4315 34.5499 21.6045 34.3573 23.3867 34.2641C24.0941 34.2273 24.8985 34.1684 25.1745 34.1335C26.7623 33.9324 27.8628 33.4476 28.7186 32.5721C29.1947 32.0849 29.4786 31.631 29.7074 30.9911C29.8524 30.5851 29.872 30.4343 29.8731 29.715C29.8744 28.9821 29.8568 28.848 29.6996 28.3972C29.4939 27.8062 29.2511 27.3627 28.9437 27.0158L28.7217 26.7654L28.8412 27.1235ZM31.2153 31.9538C30.5927 30.6087 30.4498 29.3101 30.7908 28.0991C30.8273 27.9695 30.8859 27.8636 30.9214 27.8636C30.9567 27.8636 31.1034 27.9435 31.2477 28.041C31.5345 28.2351 32.1099 28.562 33.6425 29.402C35.5553 30.4501 36.6458 31.2616 37.3873 32.1891C38.0368 33.0011 38.4386 33.9259 38.632 35.0538C38.7417 35.6927 38.6775 37.23 38.5144 37.8732C38.0002 39.9017 36.805 41.4949 35.1003 42.4247C34.8506 42.5608 34.6264 42.6726 34.602 42.6732C34.5778 42.6736 34.6688 42.4412 34.8042 42.1563C35.3777 40.9513 35.443 39.7793 35.0095 38.4748C34.7439 37.6761 34.2027 36.7014 33.1098 35.054C31.8392 33.1389 31.5277 32.6291 31.2153 31.9538ZM19.4896 36.3656C17.5191 36.6873 15.3558 37.7354 13.6171 39.211L13.0995 39.6504L13.5544 39.7218C15.9283 40.0943 16.5675 40.4246 18.2141 42.1296C19.1617 43.1106 19.4818 43.329 20.2677 43.5307C21.4222 43.8268 22.5601 43.2826 22.9504 42.2475C23.1248 41.785 23.1015 41.0191 22.9014 40.6346C22.4255 39.7188 21.039 39.4229 20.3685 40.0936C19.8101 40.6523 19.9728 41.494 20.6674 41.6387C20.8264 41.6721 20.8219 41.6649 20.6269 41.5763C20.3229 41.4381 20.1908 41.2466 20.1891 40.9418C20.1853 40.2271 20.9989 39.8258 21.7559 40.169C22.3102 40.4205 22.5303 40.749 22.5303 41.3248C22.5303 42.2115 21.7794 42.8797 20.9056 42.7705C20.4386 42.712 19.8674 42.4117 19.5611 42.0638C18.7905 41.1879 19.0907 39.8057 20.1667 39.2753C20.9858 38.8717 22.0747 38.9712 22.9191 39.5269C23.8892 40.1655 24.3017 40.7492 25.1373 42.6648C25.4094 43.2885 25.7595 43.9906 25.9152 44.225C26.7068 45.4159 27.6551 46 28.7974 46C29.4275 46 29.9014 45.8843 30.4977 45.5851C30.9408 45.3626 31.5689 44.94 31.5236 44.8947C31.5107 44.8819 31.327 44.9393 31.1152 45.0223C29.8679 45.5112 28.6 45.4777 27.8637 44.9358C27.4 44.5948 27.0259 43.9154 26.8337 43.0658C26.8004 42.9187 26.6907 42.2692 26.5896 41.6223C26.3336 39.9827 26.0878 39.2457 25.5146 38.3999C24.9281 37.5346 23.8006 36.8084 22.5401 36.4841C21.7536 36.2817 20.3389 36.2267 19.4896 36.3656ZM16.7298 23.689C16.8999 23.0573 17.4497 22.4548 18.0152 22.2802C18.3748 22.1693 19.1182 22.2401 19.4677 22.4186C20.145 22.7648 20.6367 23.5532 20.53 24.1223C20.3998 24.8162 19.2802 25.3715 17.9923 25.3806C17.3345 25.3852 17.0916 25.2963 16.8404 24.9592C16.6849 24.7504 16.626 24.0745 16.7298 23.689ZM19.2947 22.666C19.6325 22.8734 19.7194 23.1799 19.5208 23.4635C19.384 23.6589 18.9604 23.8446 18.6509 23.8446C18.186 23.8446 17.6787 23.5127 17.6787 23.2087C17.6787 22.598 18.6515 22.2711 19.2947 22.666ZM120.246 24.4148C119.195 20.9371 120.928 18.0525 124.625 17.1255C125.686 16.8595 130.487 16.9795 131.309 17.2927C131.611 17.4074 131.743 17.8479 131.746 18.753C131.748 19.4659 131.826 20.3317 131.919 20.677C132.06 21.2003 131.978 21.3033 131.423 21.2949C130.921 21.2871 130.617 20.9944 130.193 20.1087C129.517 18.6942 128.697 18.2442 126.787 18.2389C124.349 18.2319 122.564 19.8656 122.855 21.8395C123.044 23.124 124.334 24.3879 127.228 26.1254C129.982 27.7782 131.589 29.1374 132.229 30.3552C133.942 33.6109 132.48 37.095 128.664 38.8505C126.706 39.7515 123.423 39.8447 121.116 39.0648L119.638 38.5652V36.2154C119.638 34.0873 119.689 33.8653 120.176 33.8653C120.584 33.8653 120.76 34.1335 120.903 34.9736C121.259 37.0627 122.855 38.331 125.127 38.331C127.353 38.331 128.909 37.1208 129.505 34.9264C129.759 33.9916 129.715 33.6469 129.211 32.6157C128.608 31.3793 127.569 30.5589 124.039 28.5328C122.081 27.4084 120.696 25.9051 120.246 24.4148ZM51.0627 18.5138C50.5811 18.5138 50.3932 18.3573 50.3932 17.9556C50.3932 17.4239 50.5811 17.3974 54.3547 17.3974C57.8571 17.3974 58.3054 17.4498 58.2251 17.8498C58.1748 18.0988 57.6908 18.4441 57.1489 18.6174L56.1636 18.9325L56.0796 26.05C56.0232 30.7993 56.1024 33.539 56.3173 34.2838C56.9563 36.499 58.9054 37.7729 61.6555 37.7729C63.57 37.7729 64.6884 37.3275 66.0935 36.0047C67.6048 34.5826 67.8458 33.2314 67.841 26.2086C67.8365 19.2815 67.7152 18.7098 66.2202 18.566C65.5399 18.5004 65.3119 18.3427 65.3119 17.938C65.3119 17.4334 65.5364 17.3974 68.6897 17.3974C71.8797 17.3974 72.0674 17.4283 72.0674 17.9556C72.0674 18.2995 71.8782 18.5155 71.5747 18.518C70.2711 18.5294 70.2472 18.6529 70.0717 26.2487C69.8897 34.1367 69.7197 35.0707 68.1132 37.003C67.6499 37.5604 66.545 38.3698 65.6581 38.8018C64.2127 39.5056 63.7529 39.5864 61.2303 39.5819C58.905 39.5771 58.1709 39.4653 57.0081 38.9387C55.3108 38.1698 54.2071 37.1748 53.3933 35.6795C52.8253 34.6357 52.7767 34.0709 52.6452 26.9989C52.4946 18.9041 52.4216 18.5138 51.0627 18.5138ZM77.4024 18.5138C76.7588 18.5138 76.5712 18.3877 76.5712 17.9556C76.5712 17.4323 76.751 17.3988 79.4562 17.4203L82.3415 17.4431L83.722 19.0252C84.4807 19.8952 86.9548 22.6169 89.2191 25.073C91.4837 27.5293 94.0836 30.3866 94.9965 31.4228C95.9095 32.4593 96.7688 33.307 96.9062 33.307C97.0473 33.307 97.1176 30.3797 97.0673 26.5836L96.9785 19.8603L96.1886 19.1871C95.7543 18.8167 95.0896 18.5138 94.7111 18.5138C94.2075 18.5138 94.0231 18.362 94.0231 17.9478C94.0231 17.4027 94.1668 17.3845 97.8933 17.4593C101.062 17.523 101.764 17.6109 101.764 17.9442C101.764 18.1817 101.372 18.431 100.823 18.5423C100.306 18.6473 99.7353 18.8784 99.5562 19.0559C99.325 19.285 99.2072 22.2479 99.1499 29.2735L99.0691 39.1683H98.2534C97.5511 39.1683 96.7151 38.3819 92.2455 33.5163C89.3898 30.4074 86.0565 26.7128 84.8382 25.3059C83.6197 23.8988 82.5279 22.7369 82.4118 22.7241C82.085 22.6877 82.1641 35.2587 82.4983 36.452C82.7589 37.3819 82.938 37.542 84.0451 37.8357C84.9366 38.0721 85.2971 38.3119 85.2971 38.6681C85.2971 39.1254 84.9573 39.1683 81.3564 39.1683C77.6908 39.1683 77.4156 39.1319 77.4156 38.6451C77.4156 38.2887 77.6808 38.0693 78.2473 37.9568C79.9661 37.6161 80.0802 37.0751 80.1766 28.8058C80.2306 24.1743 80.1514 20.9338 79.967 20.2553C79.643 19.062 78.8358 18.5138 77.4024 18.5138ZM106.918 18.5138C106.314 18.5138 106.127 18.3813 106.127 17.9556C106.127 17.4222 106.314 17.3974 110.349 17.3974C114.383 17.3974 114.571 17.4222 114.571 17.9556C114.571 18.3651 114.383 18.5138 113.867 18.5138C113.481 18.5138 112.905 18.7701 112.589 19.0833C112.032 19.6362 112.018 19.9111 112.097 28.4565C112.174 36.7984 112.207 37.2811 112.725 37.6561C113.026 37.8739 113.564 38.0519 113.921 38.0519C114.383 38.0519 114.571 38.2129 114.571 38.6102C114.571 39.1436 114.383 39.1683 110.349 39.1683C106.41 39.1683 106.127 39.1332 106.127 38.646C106.127 38.253 106.403 38.0795 107.242 37.9464C108.908 37.6824 108.993 37.1416 108.889 27.4925C108.806 19.7651 108.77 19.2833 108.254 18.9096C107.954 18.6919 107.352 18.5138 106.918 18.5138ZM136.37 18.5138C135.985 18.5138 135.692 18.3014 135.601 17.9556C135.459 17.4158 135.592 17.3974 139.65 17.3974C143.658 17.3974 143.845 17.4222 143.845 17.9556C143.845 18.3846 143.658 18.5138 143.035 18.5138C141.263 18.5138 141.303 18.8331 143.985 26.1326C145.35 29.8483 146.675 33.3778 146.93 33.976L147.393 35.0638L149.543 29.3706C152.074 22.6691 152.403 21.4298 151.973 20.2075C151.673 19.3556 150.509 18.5138 149.63 18.5138C149.381 18.5138 149.193 18.2738 149.193 17.9556C149.193 17.4214 149.381 17.3974 153.557 17.3974C157.732 17.3974 157.919 17.4214 157.919 17.9556C157.919 18.3528 157.732 18.5138 157.27 18.5138C156.086 18.5138 155.564 19.1396 155.734 20.3555C155.909 21.607 160.751 35.0583 160.954 34.8571C161.284 34.5297 166.645 20.0493 166.645 19.4849C166.645 18.8086 166.168 18.5138 165.074 18.5138C164.581 18.5138 164.393 18.3601 164.393 17.9556C164.393 17.4283 164.581 17.3974 167.771 17.3974C170.636 17.3974 171.149 17.4633 171.149 17.8306C171.149 18.0689 170.798 18.3852 170.369 18.5334C169.404 18.8669 169.162 19.2476 167.951 22.3315C167.42 23.6858 165.757 27.9242 164.255 31.7497C162.753 35.5757 161.459 38.8728 161.381 39.0767C161.302 39.2808 160.836 39.4476 160.346 39.4476H159.455L157.433 34.2141C156.321 31.336 155.007 27.926 154.514 26.6365C153.668 24.4269 153.597 24.331 153.278 24.9616C153.093 25.3301 151.757 28.7462 150.309 32.5531L147.678 39.4749L146.696 39.3915L145.714 39.3081L141.968 29.5608C139.876 24.115 137.951 19.5265 137.607 19.1636C137.268 18.8061 136.712 18.5138 136.37 18.5138ZM192.653 18.6322C192.606 18.5262 192.606 18.1451 192.606 18.1451C192.606 18.1451 192.595 18.0077 192.653 17.9344C192.711 17.8613 192.731 17.8594 192.938 17.8398L192.94 17.8396C193.7 17.7677 195.225 17.6466 196.498 17.5914C196.614 17.5863 196.744 17.5804 196.884 17.5741L196.887 17.574L196.889 17.5739L196.89 17.5738C198.291 17.5106 200.797 17.426 202.519 17.5117C205.824 17.676 208.175 19.2657 208.976 21.8926C209.777 24.5194 209.353 26.9853 208.261 28.5549C207.169 30.1245 205.333 31.4759 202.281 31.388C199.762 31.3154 199.088 30.8459 198.549 30.4709C198.435 30.3916 198.328 30.3164 198.21 30.2503V33.6003C198.236 35.8851 198.256 36.9824 198.433 37.3886C198.673 37.9354 199.214 38.2723 200.269 38.5305C200.269 38.5305 200.747 38.6419 200.87 38.7606C200.993 38.8793 200.993 39.143 200.993 39.143C200.993 39.143 201.018 39.3895 200.919 39.5152C200.82 39.6408 200.629 39.6157 200.629 39.6157L195.957 39.5782L193.14 39.5708C193.14 39.5708 192.845 39.6272 192.734 39.5089C192.623 39.3904 192.633 39.1436 192.633 39.1436C192.633 39.1436 192.658 38.8778 192.787 38.7589C192.916 38.6397 193.397 38.5067 193.397 38.5067C194.484 38.2032 194.955 37.8821 195.201 37.2772C195.399 36.7896 195.401 35.8853 195.399 28.5057C195.397 21.5074 195.386 20.202 195.225 19.8265C194.986 19.2708 194.389 19.1235 193.538 18.9139L193.538 18.9138C193.369 18.8722 193.19 18.8282 193.003 18.778C193.003 18.778 192.7 18.7382 192.653 18.6322ZM206.256 24.3427C206.256 25.4902 206.236 27.2869 205.008 28.4353C203.781 29.5837 201.364 29.8981 199.723 29.5783C199.205 29.4776 198.91 29.3222 198.682 29.2024L198.659 29.1905L198.239 28.9704L198.215 24.9384C198.199 22.4121 198.226 20.7662 198.286 20.5309C198.34 19.1988 200.315 19.0331 201.28 19.0824C205.407 19.0824 206.136 22.5432 206.256 24.3427ZM179.691 17.5537C179.691 17.5537 179.49 17.6307 179.184 17.746L178.082 18.3125L177.288 20.2841C176.852 21.3685 176.053 23.3591 175.514 24.7077C174.532 27.164 173.883 28.7778 173.2 30.4622C173 30.9577 172.393 32.4664 171.853 33.815C171.313 35.1634 170.773 36.4468 170.653 36.6669C170.633 36.7035 170.612 36.743 170.59 36.7846C170.288 37.3496 169.763 38.331 168.836 38.4794C168.836 38.4794 168.327 38.5292 168.138 38.7147C167.949 38.9003 167.968 39.052 167.968 39.052V39.2857C167.968 39.2857 167.985 39.399 168.092 39.4554C168.199 39.5119 168.343 39.5152 168.343 39.5152L171.733 39.4768H175.237C175.237 39.4768 175.485 39.5056 175.58 39.4268C175.676 39.3479 175.702 39.2309 175.702 39.2309V38.9848C175.702 38.9848 175.654 38.7179 175.515 38.6137C175.376 38.5097 174.856 38.4384 174.856 38.4384C173.453 38.2549 173.212 37.1992 173.385 36.2499C173.47 35.7835 174.034 34.0581 174.669 32.321L174.888 31.7207L178.559 31.6928C180.579 31.6774 182.322 31.6878 182.434 31.716C182.593 31.756 182.816 32.2069 183.471 33.8126C184.464 36.2456 184.543 36.5419 184.323 36.9971C184.31 37.0248 184.296 37.0554 184.28 37.0883C184.074 37.5285 183.674 38.3839 182.665 38.4709C182.665 38.4709 182.13 38.4894 181.996 38.6486C181.863 38.808 181.892 38.9913 181.892 38.9913V39.2348C181.892 39.2348 181.928 39.3776 181.996 39.4341C182.065 39.4907 182.182 39.4764 182.182 39.4764L185.514 39.4526L190.198 39.4523C190.198 39.4523 190.382 39.4718 190.432 39.4016C190.482 39.3312 190.493 39.2485 190.493 39.2485V38.925C190.493 38.925 190.472 38.753 190.382 38.6581C190.292 38.5634 189.684 38.4634 189.684 38.4634C188.908 38.3388 188.522 37.7014 188.234 37.2267C188.161 37.1056 188.094 36.9952 188.029 36.9065C187.895 36.7256 187.419 35.7343 187.046 34.7808C186.673 33.8274 185.831 31.6735 185.175 29.9947C184.52 28.3159 183.605 25.974 183.142 24.7907C182.679 23.6071 181.8 21.3553 181.188 19.7866C181.088 19.5291 180.998 19.2978 180.917 19.0908L180.917 19.0899C180.507 18.0364 180.341 17.6112 180.296 17.5537C180.148 17.3669 179.691 17.5537 179.691 17.5537ZM179.473 23.9644C179.325 23.6067 179.065 22.965 178.895 22.5384C178.586 21.7631 178.469 21.5845 178.373 21.7447C178.345 21.7914 178.15 22.3214 177.94 22.9223C176.582 26.8133 175.967 28.5653 175.843 28.8955C175.766 29.103 175.702 29.3168 175.702 29.3708C175.702 29.4327 176.807 29.4689 178.701 29.4689C180.35 29.4689 181.699 29.4485 181.699 29.4236C181.699 29.3987 181.552 29.0274 181.372 28.598C181.192 28.1686 180.752 27.0969 180.394 26.2162C180.036 25.3355 179.621 24.3223 179.473 23.9644Z" fill="#0C0C0C"/>
</svg>
