<svg width="143" height="48" viewBox="0 0 143 48" fill="none" xmlns="http://www.w3.org/2000/svg">
<g clip-path="url(#clip0_6813_96740)">
<g clip-path="url(#clip1_6813_96740)">
<mask id="mask0_6813_96740" style="mask-type:luminance" maskUnits="userSpaceOnUse" x="-1" y="8" width="143" height="31">
<path d="M141.19 8.75H-0.00390625V38.3654H141.19V8.75Z" fill="white"/>
</mask>
<g mask="url(#mask0_6813_96740)">
<path fill-rule="evenodd" clip-rule="evenodd" d="M45.207 23.5577C45.207 15.3806 51.8621 8.75 60.0695 8.75C68.2769 8.75 74.932 15.3806 74.932 23.5577C74.932 31.7349 68.2769 38.3654 60.0695 38.3654C51.8621 38.3654 45.207 31.7349 45.207 23.5577ZM52.0879 23.5577C52.0879 27.9507 55.6603 31.51 60.0695 31.51C64.4787 31.51 68.0512 27.9507 68.0512 23.5577C68.0512 19.1648 64.4787 15.6054 60.0695 15.6054C55.6603 15.6054 52.0879 19.1648 52.0879 23.5577Z" fill="#0C0C0C"/>
<path fill-rule="evenodd" clip-rule="evenodd" d="M79.8867 23.5577C79.8867 15.3806 86.5418 8.75 94.7492 8.75C102.957 8.75 109.612 15.3806 109.612 23.5577C109.612 31.7349 102.957 38.3654 94.7492 38.3654C86.5418 38.3654 79.8867 31.7349 79.8867 23.5577ZM86.7676 23.5577C86.7676 27.9507 90.34 31.51 94.7492 31.51C99.1584 31.51 102.731 27.9507 102.731 23.5577C102.731 19.1648 99.1584 15.6054 94.7492 15.6054C90.34 15.6054 86.7676 19.1648 86.7676 23.5577Z" fill="#0C0C0C"/>
<path d="M0.304688 9.29834H7.49925L13.1525 27.7148L17.0057 18.2104C17.5122 16.9654 18.7231 16.1538 20.0664 16.1538H22.8077C24.1562 16.1538 25.3673 16.9654 25.8682 18.2104L29.7214 27.7148L31.8408 20.8155H39.0352L34.5326 35.4861C34.1086 36.8681 32.826 37.817 31.3728 37.817H28.8518C27.5031 37.817 26.2921 37.0052 25.7911 35.7604L21.437 25.0274L17.0828 35.7604C16.5763 37.0052 15.3654 37.817 14.0222 37.817H11.5011C10.0479 37.817 8.7653 36.8736 8.34146 35.4861L0.304688 9.29834Z" fill="#0C0C0C"/>
<path d="M33.2734 16.1538L35.3763 9.29834H42.5764L40.468 16.1538H33.2734Z" fill="#0C0C0C"/>
<path d="M111.59 9.29834L121.988 23.5576L111.59 37.8169H120.095L129.084 25.4936C129.926 24.3419 129.926 22.7789 129.084 21.6271L120.095 9.29834H111.59Z" fill="#0C0C0C"/>
<path d="M132.386 9.29834L128.285 14.9253L132.535 20.7606L140.891 9.29834H132.386Z" fill="#0C0C0C"/>
<path d="M132.657 26.5195L128.402 32.3549L132.388 37.8173L140.887 37.8063L132.657 26.5195Z" fill="#0C0C0C"/>
</g>
</g>
</g>
<defs>
<clipPath id="clip0_6813_96740">
<rect width="142.02" height="47.1155" fill="white"/>
</clipPath>
<clipPath id="clip1_6813_96740">
<rect width="142.02" height="29.6154" fill="white" transform="translate(0 8.75)"/>
</clipPath>
</defs>
</svg>
