<svg width="203" height="80" viewBox="0 0 203 80" fill="none" xmlns="http://www.w3.org/2000/svg">
    <path d="M0 65.2471V50.6063L33.4435 2.65233H53.6577V49.5454H62.3361V65.2471H53.6577V79.0392H35.5601V65.2471H0ZM36.8302 22.5978L19.0501 49.5454H36.8302V22.5978Z" fill="white"/>
    <path d="M71.2005 39.2544C71.2005 27.0891 73.5289 17.5053 78.1855 10.5032C82.9128 3.50107 90.4975 0 100.94 0C111.382 0 118.932 3.50107 123.588 10.5032C128.316 17.5053 130.679 27.0891 130.679 39.2544C130.679 51.5611 128.316 61.2156 123.588 68.2177C118.932 75.2199 111.382 78.7209 100.94 78.7209C90.4975 78.7209 82.9128 75.2199 78.1855 68.2177C73.5289 61.2156 71.2005 51.5611 71.2005 39.2544ZM112.899 39.2544C112.899 32.1108 112.123 26.6293 110.571 22.81C109.018 18.9199 105.808 16.9749 100.94 16.9749C96.0714 16.9749 92.8611 18.9199 91.3089 22.81C89.7567 26.6293 88.9806 32.1108 88.9806 39.2544C88.9806 44.0639 89.2628 48.0601 89.8272 51.2429C90.3917 54.3549 91.5206 56.9012 93.2139 58.8816C94.9778 60.7912 97.5531 61.7461 100.94 61.7461C104.326 61.7461 106.867 60.7912 108.56 58.8816C110.324 56.9012 111.488 54.3549 112.052 51.2429C112.617 48.0601 112.899 44.0639 112.899 39.2544Z" fill="white"/>
    <path d="M140.664 65.2471V50.6063L174.107 2.65233H194.322V49.5454H203V65.2471H194.322V79.0392H176.224V65.2471H140.664ZM177.494 22.5978L159.714 49.5454H177.494V22.5978Z" fill="white"/>
</svg>
