<svg width="48" height="48" viewBox="0 0 48 48" fill="none" xmlns="http://www.w3.org/2000/svg">
<path id="Mask" fill-rule="evenodd" clip-rule="evenodd" d="M24.0001 11.9369C17.3383 11.9369 11.9369 17.3374 11.9369 24.0001C11.9369 30.6618 17.3383 36.0623 24.0001 36.0623C27.7029 36.0623 31.0155 34.3933 33.2281 31.7671L42.3608 39.4539C37.9583 44.6792 31.3674 48.0001 24.0001 48.0001C10.7448 48.0001 0 37.2546 0 24.0001C0 10.7448 10.7448 0 24.0001 0V11.9369ZM44.7381 36.0853L34.4229 30.074C34.7749 29.4714 35.0764 28.8357 35.3209 28.1724L46.5249 32.3018C46.0382 33.6216 45.4382 34.8863 44.7381 36.0853ZM36.0626 24H48.0004C48.0004 22.5783 47.8759 21.1857 47.6388 19.8318L35.881 21.9051C36.0001 22.5856 36.0626 23.2854 36.0626 24ZM42.4485 8.64951L33.2724 16.2846C32.823 15.7451 32.3272 15.2457 31.7916 14.7919L39.5021 5.67971C40.568 6.58259 41.5543 7.57608 42.4485 8.64951Z" fill="url(#paint0_linear_1248_676)"/>
<defs>
<linearGradient id="paint0_linear_1248_676" x1="24.0001" y1="0" x2="24.0001" y2="48.0001" gradientUnits="userSpaceOnUse">
<stop stop-color="#E7E3F4"/>
<stop offset="1" stop-color="#A898DB"/>
</linearGradient>
</defs>
</svg>
