<svg width="89" height="21" viewBox="0 0 89 21" fill="none" xmlns="http://www.w3.org/2000/svg">
<path fill-rule="evenodd" clip-rule="evenodd" d="M9.70602 5.62143C7.01189 5.62143 4.82749 7.80548 4.82749 10.5C4.82749 13.1941 7.01189 15.3782 9.70602 15.3782C11.2035 15.3782 12.5432 14.7032 13.438 13.6411L17.1314 16.7498C15.351 18.863 12.6855 20.206 9.70602 20.206C4.34536 20.206 0 15.8603 0 10.5C0 5.13931 4.34536 0.793945 9.70602 0.793945V5.62143ZM18.0928 15.3875L13.9212 12.9564C14.0635 12.7127 14.1854 12.4557 14.2843 12.1874L18.8154 13.8574C18.6186 14.3911 18.3759 14.9026 18.0928 15.3875ZM14.5842 10.5H19.412C19.412 9.92505 19.3617 9.36188 19.2658 8.81435L14.5107 9.6528C14.5589 9.928 14.5842 10.211 14.5842 10.5ZM17.167 4.29199L13.456 7.37977C13.2743 7.16156 13.0738 6.95962 12.8572 6.77608L15.9754 3.09096C16.4065 3.45609 16.8054 3.85788 17.167 4.29199Z" fill="white"/>
<path d="M27.4734 15.3952C29.8028 15.3952 31.2005 13.7063 31.2005 11.6972C31.2005 9.70257 29.8028 8.01372 27.4734 8.01372C25.1585 8.01372 23.7608 9.70257 23.7608 11.6972C23.7608 13.7063 25.1585 15.3952 27.4734 15.3952ZM27.4734 13.75C26.3232 13.75 25.6826 12.8037 25.6826 11.6972C25.6826 10.6052 26.3232 9.65889 27.4734 9.65889C28.6235 9.65889 29.2787 10.6052 29.2787 11.6972C29.2787 12.8037 28.6235 13.75 27.4734 13.75ZM32.5722 15.2205H34.4212V10.5761C34.727 10.1248 35.5423 9.78993 36.1538 9.78993C36.3576 9.78993 36.5323 9.80448 36.6633 9.8336V8.02828C35.7898 8.02828 34.9162 8.52329 34.4212 9.14933V8.18843H32.5722V15.2205ZM38.7358 7.15473C39.3473 7.15473 39.8423 6.65973 39.8423 6.04824C39.8423 5.43676 39.3473 4.94175 38.7358 4.94175C38.1389 4.94175 37.6294 5.43676 37.6294 6.04824C37.6294 6.65973 38.1389 7.15473 38.7358 7.15473ZM37.8186 15.2205H39.6676V8.18843H37.8186V15.2205ZM41.3554 17.0258C42.229 17.7974 43.1753 18.074 44.3837 18.074C46.1163 18.074 48.1837 17.4189 48.1837 14.74V8.18843H46.3201V9.09109C45.7523 8.3777 44.9952 8.01372 44.1508 8.01372C42.3746 8.01372 41.0497 9.29492 41.0497 11.5953C41.0497 13.9393 42.3891 15.1768 44.1508 15.1768C45.0098 15.1768 45.7668 14.7691 46.3201 14.0703V14.7837C46.3201 16.1668 45.2718 16.5599 44.3837 16.5599C43.4956 16.5599 42.7531 16.3124 42.1853 15.6863L41.3554 17.0258ZM46.3201 12.7309C46.0144 13.1822 45.3446 13.5316 44.7332 13.5316C43.6849 13.5316 42.9569 12.8037 42.9569 11.5953C42.9569 10.3868 43.6849 9.65889 44.7332 9.65889C45.3446 9.65889 46.0144 9.99375 46.3201 10.4596V12.7309ZM50.9347 7.15473C51.5462 7.15473 52.0412 6.65973 52.0412 6.04824C52.0412 5.43676 51.5462 4.94175 50.9347 4.94175C50.3378 4.94175 49.8283 5.43676 49.8283 6.04824C49.8283 6.65973 50.3378 7.15473 50.9347 7.15473ZM50.0175 15.2205H51.8665V8.18843H50.0175V15.2205ZM58.4462 15.2205H60.2952V10.2558C60.2952 8.88726 59.5527 8.01372 58.0094 8.01372C56.8593 8.01372 56.0003 8.56696 55.549 9.10565V8.18843H53.6999V15.2205H55.549V10.4888C55.8547 10.0665 56.4225 9.65889 57.1504 9.65889C57.9366 9.65889 58.4462 9.99375 58.4462 10.9692V15.2205ZM64.4897 15.3952C65.2613 15.3952 65.7563 15.1913 66.033 14.9438L65.6399 13.5462C65.538 13.6481 65.2759 13.75 64.9993 13.75C64.5916 13.75 64.3587 13.4151 64.3587 12.9784V9.80448H65.7855V8.18843H64.3587V6.26663H62.4951V8.18843H61.3304V9.80448H62.4951V13.4734C62.4951 14.7255 63.1939 15.3952 64.4897 15.3952ZM67.0505 15.2205H68.8995V10.5761C69.2052 10.1248 70.0206 9.78993 70.632 9.78993C70.8359 9.78993 71.0106 9.80448 71.1416 9.8336V8.02828C70.2681 8.02828 69.3945 8.52329 68.8995 9.14933V8.18843H67.0505V15.2205ZM77.1305 15.2205H78.9941V8.18843H77.1305V9.09109C76.5773 8.3777 75.7911 8.01372 74.9612 8.01372C73.1704 8.01372 71.8456 9.41139 71.8456 11.7117C71.8456 14.0557 73.185 15.3952 74.9612 15.3952C75.8056 15.3952 76.5773 15.0166 77.1305 14.3324V15.2205ZM77.1305 12.9492C76.8102 13.4151 76.155 13.75 75.529 13.75C74.4807 13.75 73.7528 12.9201 73.7528 11.7117C73.7528 10.4888 74.4807 9.67345 75.529 9.67345C76.155 9.67345 76.8102 10.0083 77.1305 10.4742V12.9492ZM81.7448 7.15473C82.3563 7.15473 82.8513 6.65973 82.8513 6.04824C82.8513 5.43676 82.3563 4.94175 81.7448 4.94175C81.1479 4.94175 80.6383 5.43676 80.6383 6.04824C80.6383 6.65973 81.1479 7.15473 81.7448 7.15473ZM80.8276 15.2205H82.6766V8.18843H80.8276V15.2205ZM86.49 15.3952C87.2471 15.3952 87.7421 15.1913 88.0188 14.9438L87.6257 13.5462C87.5383 13.6481 87.2762 13.75 86.9996 13.75C86.592 13.75 86.359 13.4151 86.359 12.9784V5.50956H84.51V13.4734C84.51 14.7255 85.1943 15.3952 86.49 15.3952Z" fill="white"/>
</svg>
