<svg width="42" height="42" viewBox="0 0 42 42" fill="none" xmlns="http://www.w3.org/2000/svg">
<path d="M28.7435 2.81347C30.4486 2.81347 32.0242 3.72315 32.8768 5.19984L40.6213 18.6136C41.4738 20.0903 41.4738 21.9097 40.6213 23.3864L32.8768 36.8002C32.0242 38.2769 30.4486 39.1865 28.7435 39.1865L13.2546 39.1865C11.5494 39.1865 9.97383 38.2769 9.12126 36.8002L1.3768 23.3864C0.524238 21.9097 0.524238 20.0903 1.3768 18.6136L9.12127 5.19984C9.97383 3.72315 11.5494 2.81347 13.2546 2.81347L28.7435 2.81347Z" fill="#DFDFDF"/>
<path d="M40.1437 18.6139C40.9963 20.0906 40.9963 21.9099 40.1437 23.3866L32.6379 36.3871C31.7853 37.8638 30.2097 38.7735 28.5046 38.7735L13.4929 38.7735C11.7878 38.7735 10.2122 37.8638 9.35963 36.3871L1.85381 23.3866C1.00124 21.9099 1.00124 20.0906 1.8538 18.6139L9.35963 5.61343C10.2122 4.13674 11.7878 3.22706 13.4929 3.22706L28.5046 3.22706C30.2097 3.22706 31.7853 4.13674 32.6379 5.61342L40.1437 18.6139Z" fill="white"/>
<path d="M36.8765 19.5686C37.388 20.4546 37.388 21.5462 36.8765 22.4323L30.1775 34.0352C29.666 34.9212 28.7206 35.467 27.6975 35.467L14.2996 35.467C13.2766 35.467 12.3312 34.9212 11.8197 34.0352L5.1207 22.4323C4.60916 21.5462 4.60916 20.4546 5.1207 19.5686L11.8197 7.9657C12.3312 7.07969 13.2766 6.53388 14.2996 6.53388L27.6975 6.53388C28.7206 6.53388 29.666 7.07969 30.1775 7.9657L36.8765 19.5686Z" fill="url(#paint0_linear_1963_9216)"/>
<path fill-rule="evenodd" clip-rule="evenodd" d="M19.6808 14.3182C19.6808 15.0469 20.2716 15.6375 21.0002 15.6375C21.4052 15.6375 21.7676 15.455 22.0096 15.1678L23.0084 16.0085C22.5269 16.58 21.806 16.9432 21.0002 16.9432C19.5505 16.9432 18.3752 15.7679 18.3752 14.3182C18.3752 12.8684 19.5505 11.6932 21.0002 11.6932V12.9988C20.2716 12.9988 19.6808 13.5895 19.6808 14.3182ZM23.2685 15.64L22.1403 14.9826C22.1788 14.9167 22.2118 14.8471 22.2385 14.7746L23.4639 15.2262C23.4107 15.3706 23.3451 15.5089 23.2685 15.64ZM22.3197 14.3182H23.6254C23.6254 14.1627 23.6118 14.0104 23.5858 13.8623L22.2998 14.0891C22.3128 14.1635 22.3197 14.2401 22.3197 14.3182ZM23.0182 12.6393L22.0146 13.4744C21.9654 13.4154 21.9112 13.3607 21.8526 13.3111L22.6959 12.3145C22.8125 12.4132 22.9204 12.5219 23.0182 12.6393Z" fill="white"/>
<path d="M12.169 23.0909L11.0732 21.8768V23.0909H10.7257V20.4297H11.0732V21.6629L12.1728 20.4297H12.6119L11.4054 21.7622L12.6234 23.0909H12.169ZM14.0309 20.9604C14.2854 20.9604 14.4916 21.038 14.6494 21.1933C14.8072 21.346 14.8861 21.5675 14.8861 21.8577V23.0909H14.5425V21.9073C14.5425 21.6986 14.4903 21.5395 14.386 21.43C14.2816 21.318 14.1391 21.262 13.9583 21.262C13.7751 21.262 13.6287 21.3193 13.5192 21.4339C13.4123 21.5484 13.3589 21.7151 13.3589 21.934V23.0909H13.0114V20.9986H13.3589V21.2964C13.4276 21.1895 13.5205 21.1068 13.6376 21.0482C13.7572 20.9897 13.8883 20.9604 14.0309 20.9604ZM16.3663 23.1253C16.1703 23.1253 15.9921 23.0808 15.8317 22.9917C15.6739 22.9026 15.5492 22.7766 15.4575 22.6137C15.3684 22.4482 15.3239 22.2573 15.3239 22.0409C15.3239 21.8271 15.3697 21.6388 15.4613 21.4759C15.5555 21.3104 15.6828 21.1844 15.8432 21.0979C16.0035 21.0088 16.183 20.9642 16.3815 20.9642C16.5801 20.9642 16.7595 21.0088 16.9199 21.0979C17.0803 21.1844 17.2063 21.3091 17.2979 21.472C17.3921 21.6349 17.4392 21.8246 17.4392 22.0409C17.4392 22.2573 17.3908 22.4482 17.2941 22.6137C17.1999 22.7766 17.0713 22.9026 16.9084 22.9917C16.7455 23.0808 16.5648 23.1253 16.3663 23.1253ZM16.3663 22.8199C16.491 22.8199 16.6081 22.7906 16.7175 22.732C16.827 22.6735 16.9148 22.5857 16.981 22.4686C17.0497 22.3515 17.0841 22.2089 17.0841 22.0409C17.0841 21.8729 17.051 21.7304 16.9848 21.6133C16.9186 21.4962 16.8321 21.4097 16.7252 21.3537C16.6183 21.2951 16.5024 21.2659 16.3777 21.2659C16.2504 21.2659 16.1333 21.2951 16.0264 21.3537C15.9221 21.4097 15.8381 21.4962 15.7744 21.6133C15.7108 21.7304 15.679 21.8729 15.679 22.0409C15.679 22.2115 15.7095 22.3553 15.7706 22.4724C15.8343 22.5895 15.9183 22.6773 16.0226 22.7359C16.127 22.7919 16.2415 22.8199 16.3663 22.8199ZM20.6833 20.9986L20.0304 23.0909H19.6715L19.1675 21.43L18.6635 23.0909H18.3045L17.6478 20.9986H18.0029L18.484 22.7549L19.0033 20.9986H19.3584L19.8662 22.7588L20.3396 20.9986H20.6833ZM21.3756 20.2655V23.0909H21.0281V20.2655H21.3756ZM23.8768 21.9646C23.8768 22.0308 23.873 22.1008 23.8654 22.1746H22.193C22.2057 22.3808 22.2757 22.5424 22.403 22.6595C22.5328 22.774 22.6894 22.8313 22.8726 22.8313C23.0228 22.8313 23.1476 22.7969 23.2468 22.7282C23.3486 22.6569 23.4199 22.5628 23.4606 22.4457H23.8348C23.7788 22.6468 23.6668 22.8109 23.4988 22.9382C23.3308 23.0629 23.1221 23.1253 22.8726 23.1253C22.6741 23.1253 22.4959 23.0808 22.3381 22.9917C22.1828 22.9026 22.0606 22.7766 21.9716 22.6137C21.8825 22.4482 21.8379 22.2573 21.8379 22.0409C21.8379 21.8246 21.8812 21.6349 21.9677 21.472C22.0543 21.3091 22.1752 21.1844 22.3305 21.0979C22.4883 21.0088 22.669 20.9642 22.8726 20.9642C23.0712 20.9642 23.2468 21.0075 23.3996 21.094C23.5523 21.1806 23.6694 21.3002 23.7508 21.4529C23.8348 21.6031 23.8768 21.7737 23.8768 21.9646ZM23.5179 21.892C23.5179 21.7597 23.4886 21.6464 23.4301 21.5522C23.3716 21.4555 23.2914 21.3829 23.1896 21.3346C23.0903 21.2837 22.9796 21.2582 22.8574 21.2582C22.6817 21.2582 22.5316 21.3142 22.4068 21.4262C22.2846 21.5382 22.2146 21.6935 22.1968 21.892H23.5179ZM24.2056 22.0371C24.2056 21.8233 24.2489 21.6362 24.3355 21.4759C24.422 21.3129 24.5404 21.1869 24.6905 21.0979C24.8433 21.0088 25.0138 20.9642 25.2022 20.9642C25.3651 20.9642 25.5165 21.0024 25.6565 21.0788C25.7965 21.1526 25.9035 21.2506 25.9773 21.3728V20.2655H26.3285V23.0909H25.9773V22.6977C25.9085 22.8224 25.8067 22.9255 25.6718 23.0069C25.5369 23.0859 25.3791 23.1253 25.1984 23.1253C25.0125 23.1253 24.8433 23.0795 24.6905 22.9879C24.5404 22.8962 24.422 22.7677 24.3355 22.6022C24.2489 22.4368 24.2056 22.2484 24.2056 22.0371ZM25.9773 22.0409C25.9773 21.8831 25.9455 21.7457 25.8818 21.6286C25.8182 21.5115 25.7316 21.4224 25.6222 21.3613C25.5153 21.2977 25.3969 21.2659 25.2671 21.2659C25.1373 21.2659 25.0189 21.2964 24.912 21.3575C24.8051 21.4186 24.7198 21.5077 24.6562 21.6248C24.5925 21.7419 24.5607 21.8793 24.5607 22.0371C24.5607 22.1975 24.5925 22.3375 24.6562 22.4571C24.7198 22.5742 24.8051 22.6646 24.912 22.7282C25.0189 22.7893 25.1373 22.8199 25.2671 22.8199C25.3969 22.8199 25.5153 22.7893 25.6222 22.7282C25.7316 22.6646 25.8182 22.5742 25.8818 22.4571C25.9455 22.3375 25.9773 22.1988 25.9773 22.0409ZM27.7786 20.9642C27.9593 20.9642 28.1172 21.0037 28.2521 21.0826C28.3895 21.1615 28.4913 21.2608 28.5575 21.3804V20.9986H28.9088V23.1368C28.9088 23.3277 28.8681 23.4969 28.7866 23.6446C28.7052 23.7948 28.5881 23.9119 28.4353 23.9959C28.2852 24.0799 28.1095 24.1219 27.9084 24.1219C27.6335 24.1219 27.4044 24.0569 27.2212 23.9271C27.0379 23.7973 26.9297 23.6204 26.8966 23.3964H27.2403C27.2784 23.5237 27.3573 23.6255 27.477 23.7019C27.5966 23.7808 27.7404 23.8202 27.9084 23.8202C28.0993 23.8202 28.2546 23.7604 28.3743 23.6408C28.4964 23.5211 28.5575 23.3531 28.5575 23.1368V22.6977C28.4888 22.8199 28.387 22.9217 28.2521 23.0031C28.1172 23.0846 27.9593 23.1253 27.7786 23.1253C27.5928 23.1253 27.4235 23.0795 27.2708 22.9879C27.1206 22.8962 27.0023 22.7677 26.9157 22.6022C26.8292 22.4368 26.7859 22.2484 26.7859 22.0371C26.7859 21.8233 26.8292 21.6362 26.9157 21.4759C27.0023 21.3129 27.1206 21.1869 27.2708 21.0979C27.4235 21.0088 27.5928 20.9642 27.7786 20.9642ZM28.5575 22.0409C28.5575 21.8831 28.5257 21.7457 28.4621 21.6286C28.3984 21.5115 28.3119 21.4224 28.2024 21.3613C28.0955 21.2977 27.9772 21.2659 27.8473 21.2659C27.7175 21.2659 27.5992 21.2964 27.4923 21.3575C27.3853 21.4186 27.3001 21.5077 27.2364 21.6248C27.1728 21.7419 27.141 21.8793 27.141 22.0371C27.141 22.1975 27.1728 22.3375 27.2364 22.4571C27.3001 22.5742 27.3853 22.6646 27.4923 22.7282C27.5992 22.7893 27.7175 22.8199 27.8473 22.8199C27.9772 22.8199 28.0955 22.7893 28.2024 22.7282C28.3119 22.6646 28.3984 22.5742 28.4621 22.4571C28.5257 22.3375 28.5575 22.1988 28.5575 22.0409ZM31.4051 21.9646C31.4051 22.0308 31.4012 22.1008 31.3936 22.1746H29.7212C29.734 22.3808 29.804 22.5424 29.9312 22.6595C30.0611 22.774 30.2176 22.8313 30.4009 22.8313C30.5511 22.8313 30.6758 22.7969 30.7751 22.7282C30.8769 22.6569 30.9481 22.5628 30.9889 22.4457H31.3631C31.3071 22.6468 31.1951 22.8109 31.0271 22.9382C30.8591 23.0629 30.6503 23.1253 30.4009 23.1253C30.2023 23.1253 30.0241 23.0808 29.8663 22.9917C29.7111 22.9026 29.5889 22.7766 29.4998 22.6137C29.4107 22.4482 29.3661 22.2573 29.3661 22.0409C29.3661 21.8246 29.4094 21.6349 29.496 21.472C29.5825 21.3091 29.7034 21.1844 29.8587 21.0979C30.0165 21.0088 30.1972 20.9642 30.4009 20.9642C30.5994 20.9642 30.7751 21.0075 30.9278 21.094C31.0805 21.1806 31.1976 21.3002 31.2791 21.4529C31.3631 21.6031 31.4051 21.7737 31.4051 21.9646ZM31.0461 21.892C31.0461 21.7597 31.0169 21.6464 30.9583 21.5522C30.8998 21.4555 30.8196 21.3829 30.7178 21.3346C30.6185 21.2837 30.5078 21.2582 30.3856 21.2582C30.21 21.2582 30.0598 21.3142 29.9351 21.4262C29.8129 21.5382 29.7429 21.6935 29.7251 21.892H31.0461ZM17.7073 28.4991H16.5466L16.3327 29.0909H15.9662L16.9284 26.4449H17.3293L18.2877 29.0909H17.9211L17.7073 28.4991ZM17.608 28.2166L17.1269 26.8726L16.6458 28.2166H17.608ZM19.4477 29.1253C19.2874 29.1253 19.1435 29.0986 19.0163 29.0451C18.889 28.9891 18.7884 28.9128 18.7146 28.816C18.6408 28.7168 18.6001 28.6035 18.5924 28.4762H18.9514C18.9615 28.5806 19.0099 28.6659 19.0964 28.732C19.1855 28.7982 19.3014 28.8313 19.4439 28.8313C19.5763 28.8313 19.6806 28.802 19.757 28.7435C19.8334 28.6849 19.8715 28.6111 19.8715 28.522C19.8715 28.4304 19.8308 28.3629 19.7494 28.3197C19.6679 28.2739 19.5419 28.2293 19.3714 28.186C19.2161 28.1453 19.0888 28.1046 18.9895 28.0639C18.8928 28.0206 18.8088 27.9582 18.7375 27.8768C18.6688 27.7928 18.6344 27.6833 18.6344 27.5484C18.6344 27.4415 18.6663 27.3435 18.7299 27.2544C18.7935 27.1653 18.8839 27.0953 19.001 27.0444C19.1181 26.9909 19.2517 26.9642 19.4019 26.9642C19.6335 26.9642 19.8206 27.0228 19.9632 27.1399C20.1057 27.2569 20.1821 27.4173 20.1923 27.6209H19.8448C19.8372 27.5115 19.7926 27.4237 19.7112 27.3575C19.6323 27.2913 19.5254 27.2582 19.3904 27.2582C19.2657 27.2582 19.1664 27.2849 19.0926 27.3384C19.0188 27.3919 18.9819 27.4619 18.9819 27.5484C18.9819 27.6171 19.0035 27.6744 19.0468 27.7202C19.0926 27.7635 19.1486 27.7991 19.2148 27.8271C19.2835 27.8526 19.3777 27.8819 19.4974 27.9149C19.6475 27.9557 19.7697 27.9964 19.8639 28.0371C19.9581 28.0753 20.0383 28.1339 20.1044 28.2128C20.1732 28.2917 20.2088 28.3948 20.2114 28.522C20.2114 28.6366 20.1795 28.7397 20.1159 28.8313C20.0523 28.9229 19.9619 28.9955 19.8448 29.0489C19.7303 29.0999 19.5979 29.1253 19.4477 29.1253ZM21.4426 29.1253C21.2822 29.1253 21.1384 29.0986 21.0111 29.0451C20.8838 28.9891 20.7833 28.9128 20.7095 28.816C20.6357 28.7168 20.5949 28.6035 20.5873 28.4762H20.9462C20.9564 28.5806 21.0048 28.6659 21.0913 28.732C21.1804 28.7982 21.2962 28.8313 21.4388 28.8313C21.5711 28.8313 21.6755 28.802 21.7518 28.7435C21.8282 28.6849 21.8664 28.6111 21.8664 28.522C21.8664 28.4304 21.8257 28.3629 21.7442 28.3197C21.6628 28.2739 21.5368 28.2293 21.3662 28.186C21.2109 28.1453 21.0837 28.1046 20.9844 28.0639C20.8877 28.0206 20.8037 27.9582 20.7324 27.8768C20.6637 27.7928 20.6293 27.6833 20.6293 27.5484C20.6293 27.4415 20.6611 27.3435 20.7248 27.2544C20.7884 27.1653 20.8788 27.0953 20.9958 27.0444C21.1129 26.9909 21.2466 26.9642 21.3968 26.9642C21.6284 26.9642 21.8155 27.0228 21.958 27.1399C22.1006 27.2569 22.1769 27.4173 22.1871 27.6209H21.8397C21.832 27.5115 21.7875 27.4237 21.706 27.3575C21.6271 27.2913 21.5202 27.2582 21.3853 27.2582C21.2606 27.2582 21.1613 27.2849 21.0875 27.3384C21.0137 27.3919 20.9768 27.4619 20.9768 27.5484C20.9768 27.6171 20.9984 27.6744 21.0417 27.7202C21.0875 27.7635 21.1435 27.7991 21.2097 27.8271C21.2784 27.8526 21.3726 27.8819 21.4922 27.9149C21.6424 27.9557 21.7646 27.9964 21.8588 28.0371C21.9529 28.0753 22.0331 28.1339 22.0993 28.2128C22.168 28.2917 22.2037 28.3948 22.2062 28.522C22.2062 28.6366 22.1744 28.7397 22.1108 28.8313C22.0471 28.9229 21.9568 28.9955 21.8397 29.0489C21.7251 29.0999 21.5928 29.1253 21.4426 29.1253ZM24.6058 27.9646C24.6058 28.0308 24.602 28.1008 24.5943 28.1746H22.922C22.9347 28.3808 23.0047 28.5424 23.132 28.6595C23.2618 28.774 23.4183 28.8313 23.6016 28.8313C23.7518 28.8313 23.8765 28.7969 23.9758 28.7282C24.0776 28.6569 24.1489 28.5628 24.1896 28.4457H24.5638C24.5078 28.6468 24.3958 28.8109 24.2278 28.9382C24.0598 29.0629 23.8511 29.1253 23.6016 29.1253C23.4031 29.1253 23.2249 29.0808 23.0671 28.9917C22.9118 28.9026 22.7896 28.7766 22.7005 28.6137C22.6114 28.4482 22.5669 28.2573 22.5669 28.0409C22.5669 27.8246 22.6102 27.6349 22.6967 27.472C22.7832 27.3091 22.9042 27.1844 23.0594 27.0979C23.2172 27.0088 23.398 26.9642 23.6016 26.9642C23.8002 26.9642 23.9758 27.0075 24.1285 27.094C24.2812 27.1806 24.3983 27.3002 24.4798 27.4529C24.5638 27.6031 24.6058 27.7737 24.6058 27.9646ZM24.2469 27.892C24.2469 27.7597 24.2176 27.6464 24.1591 27.5522C24.1005 27.4555 24.0203 27.3829 23.9185 27.3346C23.8192 27.2837 23.7085 27.2582 23.5863 27.2582C23.4107 27.2582 23.2605 27.3142 23.1358 27.4262C23.0136 27.5382 22.9436 27.6935 22.9258 27.892H24.2469ZM25.4882 27.2849V28.5182C25.4882 28.62 25.5099 28.6926 25.5531 28.7359C25.5964 28.7766 25.6715 28.7969 25.7784 28.7969H26.0342V29.0909H25.7211C25.5277 29.0909 25.3826 29.0464 25.2859 28.9573C25.1891 28.8682 25.1408 28.7219 25.1408 28.5182V27.2849H24.8697V26.9986H25.1408V26.4717H25.4882V26.9986H26.0342V27.2849H25.4882Z" fill="white"/>
<defs>
<linearGradient id="paint0_linear_1963_9216" x1="36.2827" y1="2.95104" x2="-3.53771" y2="15.6571" gradientUnits="userSpaceOnUse">
<stop stop-color="#D83B6B"/>
<stop offset="0.776042" stop-color="#6344DF"/>
</linearGradient>
</defs>
</svg>
