<svg width="225" height="40" viewBox="0 0 225 40" fill="none" xmlns="http://www.w3.org/2000/svg">
<rect x="0.238095" y="0.238095" width="39.5238" height="39.5238" rx="19.7619" stroke="white" stroke-width="0.47619"/>
<path fill-rule="evenodd" clip-rule="evenodd" d="M20.075 13.7264C16.5688 13.7264 13.7259 16.5688 13.7259 20.0755C13.7259 23.5817 16.5688 26.424 20.075 26.424C22.0238 26.424 23.7673 25.5456 24.9318 24.1634L29.7385 28.2091C27.4214 30.9592 23.9525 32.7071 20.075 32.7071C13.0985 32.7071 7.44336 27.0515 7.44336 20.0755C7.44336 13.099 13.0985 7.44385 20.075 7.44385V13.7264ZM30.9897 26.4362L25.5607 23.2723C25.746 22.9552 25.9046 22.6206 26.0333 22.2715L31.9301 24.4449C31.674 25.1395 31.3582 25.8051 30.9897 26.4362ZM26.4237 20.0754H32.7067C32.7067 19.3272 32.6412 18.5943 32.5164 17.8817L26.3281 18.9729C26.3908 19.331 26.4237 19.6994 26.4237 20.0754ZM29.7849 11.9963L24.9554 16.0148C24.7189 15.7308 24.4579 15.468 24.176 15.2291L28.2342 10.4332C28.7952 10.9084 29.3143 11.4313 29.7849 11.9963Z" fill="white"/>
<path d="M49.3858 28.5V26.196H51.6418V14.004H49.3858V11.7H56.1058C58.3458 11.7 60.0578 12.268 61.2418 13.404C62.4418 14.54 63.0418 16.252 63.0418 18.54V21.684C63.0418 23.972 62.4418 25.684 61.2418 26.82C60.0578 27.94 58.3458 28.5 56.1058 28.5H49.3858ZM54.2578 26.148H56.1298C57.5858 26.148 58.6658 25.78 59.3698 25.044C60.0738 24.308 60.4258 23.212 60.4258 21.756V18.444C60.4258 16.972 60.0738 15.876 59.3698 15.156C58.6658 14.436 57.5858 14.076 56.1298 14.076H54.2578V26.148ZM65.9708 28.5V11.7H68.5628V18.684H68.9468L75.2108 11.7H78.5948L71.0108 19.98L78.8588 28.5H75.3788L68.9468 21.372H68.5628V28.5H65.9708ZM85.9121 28.836C84.7121 28.836 83.6401 28.58 82.6961 28.068C81.7521 27.54 81.0081 26.772 80.4641 25.764C79.9201 24.756 79.6481 23.524 79.6481 22.068V18.132C79.6481 15.94 80.2481 14.268 81.4481 13.116C82.6481 11.948 84.2721 11.364 86.3201 11.364C88.3361 11.364 89.8881 11.916 90.9761 13.02C92.0641 14.108 92.6081 15.572 92.6081 17.412V17.532H90.0401V17.34C90.0401 16.652 89.9041 16.036 89.6321 15.492C89.3601 14.932 88.9521 14.492 88.4081 14.172C87.8641 13.852 87.1681 13.692 86.3201 13.692C85.0401 13.692 84.0401 14.084 83.3201 14.868C82.6001 15.636 82.2401 16.708 82.2401 18.084V22.116C82.2401 23.476 82.6001 24.556 83.3201 25.356C84.0401 26.14 85.0481 26.532 86.3441 26.532C87.6241 26.532 88.5601 26.18 89.1521 25.476C89.7441 24.772 90.0401 23.86 90.0401 22.74V22.428H85.5281V20.196H92.6081V28.5H90.2081V26.796H89.8241C89.6801 27.1 89.4641 27.412 89.1761 27.732C88.9041 28.052 88.5041 28.316 87.9761 28.524C87.4641 28.732 86.7761 28.836 85.9121 28.836ZM102.065 28.5V11.7H112.648V14.052H104.657V18.876H111.977V21.228H104.657V26.148H112.769V28.5H102.065ZM120.439 28.836C119.463 28.836 118.559 28.596 117.727 28.116C116.895 27.636 116.223 26.948 115.711 26.052C115.215 25.14 114.967 24.044 114.967 22.764V22.404C114.967 21.14 115.215 20.052 115.711 19.14C116.207 18.228 116.871 17.532 117.703 17.052C118.535 16.572 119.447 16.332 120.439 16.332C121.207 16.332 121.847 16.428 122.359 16.62C122.887 16.812 123.319 17.06 123.655 17.364C123.991 17.652 124.247 17.956 124.423 18.276H124.807V11.7H127.279V28.5H124.855V26.82H124.471C124.167 27.332 123.703 27.796 123.079 28.212C122.471 28.628 121.591 28.836 120.439 28.836ZM121.135 26.676C122.207 26.676 123.087 26.332 123.775 25.644C124.479 24.956 124.831 23.972 124.831 22.692V22.476C124.831 21.212 124.487 20.236 123.799 19.548C123.111 18.86 122.223 18.516 121.135 18.516C120.079 18.516 119.199 18.86 118.495 19.548C117.807 20.236 117.463 21.212 117.463 22.476V22.692C117.463 23.972 117.807 24.956 118.495 25.644C119.199 26.332 120.079 26.676 121.135 26.676ZM130.342 22.644V22.284C130.342 21.036 130.59 19.972 131.086 19.092C131.598 18.212 132.27 17.532 133.102 17.052C133.934 16.572 134.846 16.332 135.838 16.332C136.99 16.332 137.87 16.548 138.478 16.98C139.102 17.412 139.558 17.876 139.846 18.372H140.23V16.668H142.63V30.924C142.63 31.644 142.414 32.22 141.982 32.652C141.566 33.084 140.99 33.3 140.254 33.3H132.286V31.14H139.486C139.95 31.14 140.182 30.9 140.182 30.42V26.652H139.798C139.622 26.94 139.374 27.236 139.054 27.54C138.734 27.844 138.31 28.092 137.782 28.284C137.27 28.476 136.622 28.572 135.838 28.572C134.846 28.572 133.926 28.34 133.078 27.876C132.246 27.396 131.582 26.716 131.086 25.836C130.59 24.94 130.342 23.876 130.342 22.644ZM136.51 26.412C137.582 26.412 138.462 26.076 139.15 25.404C139.854 24.716 140.206 23.772 140.206 22.572V22.356C140.206 21.124 139.862 20.18 139.174 19.524C138.486 18.852 137.598 18.516 136.51 18.516C135.454 18.516 134.574 18.852 133.87 19.524C133.182 20.18 132.838 21.124 132.838 22.356V22.572C132.838 23.772 133.182 24.716 133.87 25.404C134.574 26.076 135.454 26.412 136.51 26.412ZM151.693 28.836C150.493 28.836 149.445 28.588 148.549 28.092C147.653 27.58 146.949 26.868 146.437 25.956C145.941 25.028 145.693 23.956 145.693 22.74V22.452C145.693 21.22 145.941 20.148 146.437 19.236C146.933 18.308 147.621 17.596 148.501 17.1C149.397 16.588 150.429 16.332 151.597 16.332C152.733 16.332 153.725 16.588 154.573 17.1C155.437 17.596 156.109 18.292 156.589 19.188C157.069 20.084 157.309 21.132 157.309 22.332V23.268H148.213C148.245 24.308 148.589 25.14 149.245 25.764C149.917 26.372 150.749 26.676 151.741 26.676C152.669 26.676 153.365 26.468 153.829 26.052C154.309 25.636 154.677 25.156 154.933 24.612L156.973 25.668C156.749 26.116 156.421 26.588 155.989 27.084C155.573 27.58 155.021 27.996 154.333 28.332C153.645 28.668 152.765 28.836 151.693 28.836ZM148.237 21.372H154.789C154.725 20.476 154.405 19.78 153.829 19.284C153.253 18.772 152.501 18.516 151.573 18.516C150.645 18.516 149.885 18.772 149.293 19.284C148.717 19.78 148.365 20.476 148.237 21.372ZM166.33 28.5V11.7H171.322L175.882 26.772H176.266V11.7H178.834V28.5H173.842L169.282 13.404H168.898V28.5H166.33ZM187.954 28.836C186.77 28.836 185.714 28.596 184.786 28.116C183.874 27.62 183.154 26.916 182.626 26.004C182.098 25.092 181.834 24.012 181.834 22.764V22.404C181.834 21.156 182.098 20.084 182.626 19.188C183.154 18.276 183.874 17.572 184.786 17.076C185.714 16.58 186.77 16.332 187.954 16.332C189.138 16.332 190.194 16.58 191.122 17.076C192.05 17.572 192.778 18.276 193.306 19.188C193.834 20.084 194.098 21.156 194.098 22.404V22.764C194.098 24.012 193.834 25.092 193.306 26.004C192.778 26.916 192.05 27.62 191.122 28.116C190.194 28.596 189.138 28.836 187.954 28.836ZM187.954 26.628C189.042 26.628 189.922 26.284 190.594 25.596C191.282 24.892 191.626 23.924 191.626 22.692V22.476C191.626 21.244 191.29 20.284 190.618 19.596C189.946 18.892 189.058 18.54 187.954 18.54C186.882 18.54 186.002 18.892 185.314 19.596C184.642 20.284 184.306 21.244 184.306 22.476V22.692C184.306 23.924 184.642 24.892 185.314 25.596C186.002 26.284 186.882 26.628 187.954 26.628ZM202.072 28.836C201.096 28.836 200.192 28.596 199.36 28.116C198.528 27.636 197.856 26.948 197.344 26.052C196.848 25.14 196.6 24.044 196.6 22.764V22.404C196.6 21.14 196.848 20.052 197.344 19.14C197.84 18.228 198.504 17.532 199.336 17.052C200.168 16.572 201.08 16.332 202.072 16.332C202.84 16.332 203.48 16.428 203.992 16.62C204.52 16.812 204.952 17.06 205.288 17.364C205.624 17.652 205.88 17.956 206.056 18.276H206.44V11.7H208.912V28.5H206.488V26.82H206.104C205.8 27.332 205.336 27.796 204.712 28.212C204.104 28.628 203.224 28.836 202.072 28.836ZM202.768 26.676C203.84 26.676 204.72 26.332 205.408 25.644C206.112 24.956 206.464 23.972 206.464 22.692V22.476C206.464 21.212 206.12 20.236 205.432 19.548C204.744 18.86 203.856 18.516 202.768 18.516C201.712 18.516 200.832 18.86 200.128 19.548C199.44 20.236 199.096 21.212 199.096 22.476V22.692C199.096 23.972 199.44 24.956 200.128 25.644C200.832 26.332 201.712 26.676 202.768 26.676ZM217.975 28.836C216.775 28.836 215.727 28.588 214.831 28.092C213.935 27.58 213.231 26.868 212.719 25.956C212.223 25.028 211.975 23.956 211.975 22.74V22.452C211.975 21.22 212.223 20.148 212.719 19.236C213.215 18.308 213.903 17.596 214.783 17.1C215.679 16.588 216.711 16.332 217.879 16.332C219.015 16.332 220.007 16.588 220.855 17.1C221.719 17.596 222.391 18.292 222.871 19.188C223.351 20.084 223.591 21.132 223.591 22.332V23.268H214.495C214.527 24.308 214.871 25.14 215.527 25.764C216.199 26.372 217.031 26.676 218.023 26.676C218.951 26.676 219.647 26.468 220.111 26.052C220.591 25.636 220.959 25.156 221.215 24.612L223.255 25.668C223.031 26.116 222.703 26.588 222.271 27.084C221.855 27.58 221.303 27.996 220.615 28.332C219.927 28.668 219.047 28.836 217.975 28.836ZM214.519 21.372H221.071C221.007 20.476 220.687 19.78 220.111 19.284C219.535 18.772 218.783 18.516 217.855 18.516C216.927 18.516 216.167 18.772 215.575 19.284C214.999 19.78 214.647 20.476 214.519 21.372Z" fill="white"/>
</svg>
