<svg width="16" height="17" viewBox="0 0 16 17" fill="none" xmlns="http://www.w3.org/2000/svg">
<path fill-rule="evenodd" clip-rule="evenodd" d="M8 5C10.6667 3 14.6667 3.66667 14.6667 3.66667V14.3333C14.6667 14.3333 11.3333 13 8 15.6667C8 12.3333 8 12.3333 8 5Z" stroke="#404040" stroke-width="1.5" stroke-linecap="square" stroke-linejoin="round"/>
<path d="M3.87647 3.54583C3.62303 3.53919 3.34059 3.54117 3.02916 3.55175C2.70069 3.5629 2.13541 3.60119 1.33333 3.66659V14.3333C3.55556 13.4444 5.77778 13.8888 8 15.6666C8 12.3333 8 12.3333 8 4.99993V4.99993" stroke="#404040" stroke-width="1.5" stroke-linecap="square" stroke-linejoin="round"/>
<path fill-rule="evenodd" clip-rule="evenodd" d="M8 5.00033C6.4 3.00033 4 1.66699 4 1.66699V12.3337C4 12.3337 6 13.0003 8 15.667C8 12.3337 8 12.3337 8 5.00033Z" stroke="#404040" stroke-width="1.5" stroke-linecap="square" stroke-linejoin="round"/>
</svg>
