<svg width="20" height="21" viewBox="0 0 20 21" fill="none" xmlns="http://www.w3.org/2000/svg">
<path fill-rule="evenodd" clip-rule="evenodd" d="M9.99996 18.8334C14.6023 18.8334 18.3333 15.1025 18.3333 10.5001C18.3333 5.89771 14.6023 2.16675 9.99996 2.16675C5.39759 2.16675 1.66663 5.89771 1.66663 10.5001C1.66663 15.1025 5.39759 18.8334 9.99996 18.8334ZM14.1075 7.64153C14.3028 7.83673 14.3029 8.15331 14.1077 8.34864L9.10119 13.3584L8.74753 13.7123L8.39386 13.3584L5.89203 10.8552C5.69683 10.6598 5.69692 10.3433 5.89223 10.1481C6.08755 9.95285 6.40413 9.95294 6.59934 10.1483L8.7475 12.2976L13.4004 7.64176C13.5956 7.44643 13.9121 7.44633 14.1075 7.64153Z" fill="#21AE94"/>
</svg>
