<svg width="17" height="16" viewBox="0 0 17 16" fill="none" xmlns="http://www.w3.org/2000/svg">
    <path fill-rule="evenodd" clip-rule="evenodd" d="M1.18536 4.53444C2.30011 2.30602 4.63277 1.0015 7.06606 1.2909C9.30272 1.55692 11.1599 3.11401 11.9113 5.24959H12.1601H12.1606C13.9875 5.25084 15.5495 6.53952 15.9876 8.33269C16.4247 10.1214 15.6474 12.0103 14.06 12.9118L13.4079 13.2821L12.6671 11.9778L13.3193 11.6074C14.3001 11.0504 14.8149 9.85275 14.5305 8.68873C14.2472 7.52933 13.258 6.75059 12.1601 6.74959L10.6936 6.45359L10.6258 6.18025C10.1665 4.3299 8.66938 2.99217 6.8889 2.7804C5.24138 2.58446 3.62686 3.38494 2.72714 4.84564L1.18536 4.53444ZM2.72713 4.84565L2.72714 4.84564L10.6936 6.45359L10.6936 6.45369L2.72713 4.84565ZM10.6936 6.45369L12.1596 6.74959L11.3537 6.74959H10.7671L10.6936 6.45369ZM2.72713 4.84565L1.18536 4.53444C0.0731612 6.75779 0.388021 9.4653 1.98815 11.3514L2.47334 11.9234L3.61718 10.953L3.13199 10.3811C1.92518 8.95854 1.68027 6.89792 2.52688 5.20552C2.58891 5.08152 2.65577 4.96151 2.72713 4.84565ZM8.86106 7.48021L8.32002 6.91663L7.77898 7.48021L5.21898 10.1469L4.69958 10.6879L5.78166 11.7267L6.30106 11.1857L7.57002 9.86384V13.9996V14.7496H9.07002V13.9996V9.86384L10.339 11.1857L10.8584 11.7267L11.9405 10.6879L11.4211 10.1469L8.86106 7.48021Z" fill="white"/>
</svg>
