<svg width="20" height="20" viewBox="0 0 20 20" fill="none" xmlns="http://www.w3.org/2000/svg">
    <path fill-rule="evenodd" clip-rule="evenodd" d="M2.41666 3.33341C2.41666 2.82715 2.82706 2.41675 3.33332 2.41675H10.8333C11.3396 2.41675 11.75 2.82715 11.75 3.33341V4.16675C11.75 4.58096 12.0858 4.91675 12.5 4.91675C12.9142 4.91675 13.25 4.58096 13.25 4.16675V3.33341C13.25 1.99873 12.168 0.916748 10.8333 0.916748H3.33332C1.99863 0.916748 0.916656 1.99873 0.916656 3.33341V10.8334C0.916656 12.1681 1.99863 13.2501 3.33332 13.2501H4.16666C4.58087 13.2501 4.91666 12.9143 4.91666 12.5001C4.91666 12.0859 4.58087 11.7501 4.16666 11.7501H3.33332C2.82706 11.7501 2.41666 11.3397 2.41666 10.8334V3.33341ZM9.49999 6.75008C7.98121 6.75008 6.74999 7.9813 6.74999 9.50008V16.3334C6.74999 17.8522 7.9812 19.0834 9.49999 19.0834H16.3333C17.8521 19.0834 19.0833 17.8522 19.0833 16.3334V9.50008C19.0833 7.9813 17.8521 6.75008 16.3333 6.75008H9.49999ZM8.24999 9.50008C8.24999 8.80972 8.80963 8.25008 9.49999 8.25008H16.3333C17.0237 8.25008 17.5833 8.80972 17.5833 9.50008V16.3334C17.5833 17.0238 17.0237 17.5834 16.3333 17.5834H9.49999C8.80963 17.5834 8.24999 17.0238 8.24999 16.3334V9.50008Z" fill="#646566"/>
</svg>
