<svg width="16" height="16" viewBox="0 0 16 16" fill="none" xmlns="http://www.w3.org/2000/svg">
<path fill-rule="evenodd" clip-rule="evenodd" d="M8.75 8.18901L10.1363 6.80268C10.4292 6.50978 10.9041 6.50979 11.197 6.80268C11.4899 7.09557 11.4899 7.57045 11.197 7.86334L8.53033 10.53C8.23744 10.8229 7.76256 10.8229 7.46967 10.53L4.803 7.86334C4.51011 7.57044 4.51011 7.09557 4.803 6.80268C5.0959 6.50978 5.57077 6.50978 5.86366 6.80268L7.25 8.18901L7.25 1.33301C7.25 0.918794 7.58579 0.583008 8 0.583008C8.41421 0.583008 8.75 0.918794 8.75 1.33301L8.75 8.18901ZM2 7.24967C2.41421 7.24967 2.75 7.58546 2.75 7.99967V13.333C2.75 13.5746 3.0003 13.9163 3.5 13.9163H12.5C12.9997 13.9163 13.25 13.5746 13.25 13.333V7.99967C13.25 7.58546 13.5858 7.24967 14 7.24967C14.4142 7.24967 14.75 7.58546 14.75 7.99967V13.333C14.75 14.5642 13.6572 15.4163 12.5 15.4163H3.5C2.34285 15.4163 1.25 14.5642 1.25 13.333V7.99967C1.25 7.58546 1.58579 7.24967 2 7.24967Z" fill="#646566"/>
</svg>
