<svg width="20" height="20" viewBox="0 0 20 20" fill="none" xmlns="http://www.w3.org/2000/svg">
    <path fill-rule="evenodd" clip-rule="evenodd" d="M10.75 10.6897L12.803 8.63666L13.3333 8.10633L14.394 9.16699L13.8637 9.69732L10.5303 13.0307C10.2374 13.3235 9.76256 13.3235 9.46967 13.0307L6.13634 9.69732L5.60601 9.16699L6.66667 8.10633L7.197 8.63666L9.25 10.6897L9.25 1.66699V0.916992L10.75 0.916992V1.66699L10.75 10.6897ZM3.25 9.25033V10.0003V16.667C3.25 17.0926 3.66819 17.5837 4.375 17.5837H15.625C16.3318 17.5837 16.75 17.0926 16.75 16.667V10.0003V9.25033H18.25V10.0003V16.667C18.25 18.0823 16.9893 19.0837 15.625 19.0837H4.375C3.01074 19.0837 1.75 18.0823 1.75 16.667V10.0003V9.25033H3.25Z" fill="#0C0C0C"/>
</svg>
