<svg width="18" height="16" viewBox="0 0 18 16" fill="none" xmlns="http://www.w3.org/2000/svg">
    <path fill-rule="evenodd" clip-rule="evenodd" d="M2.7863 8.42579C2.6803 8.26166 2.59258 8.11723 2.5236 7.99935C2.59258 7.88147 2.6803 7.73703 2.7863 7.57291C3.0917 7.10003 3.54385 6.4714 4.13051 5.84564C5.31749 4.57952 6.96632 3.41602 9.00002 3.41602C11.0337 3.41602 12.6825 4.57952 13.8695 5.84564C14.4562 6.4714 14.9083 7.10003 15.2137 7.57291C15.3197 7.73703 15.4075 7.88147 15.4764 7.99934C15.4075 8.11722 15.3197 8.26167 15.2137 8.42579C14.9083 8.89867 14.4562 9.5273 13.8695 10.1531C12.6825 11.4192 11.0337 12.5827 9.00002 12.5827C6.96632 12.5827 5.31749 11.4192 4.13051 10.1531C3.54385 9.5273 3.0917 8.89867 2.7863 8.42579ZM17.0039 7.66342C17.004 7.66369 17.0042 7.66394 16.3334 7.99935C17.0042 8.33476 17.004 8.33501 17.0039 8.33528L17.0036 8.33592L17.0028 8.33757L17.0004 8.34234L16.9926 8.35757C16.9861 8.37022 16.9769 8.38782 16.9652 8.41003C16.9417 8.45445 16.9077 8.5174 16.8633 8.59621C16.7747 8.75374 16.6445 8.97529 16.4738 9.23958C16.1334 9.7667 15.6272 10.4714 14.9638 11.179C13.6508 12.5795 11.633 14.0827 9.00002 14.0827C6.36706 14.0827 4.34921 12.5795 3.0362 11.179C2.37285 10.4714 1.86667 9.7667 1.52624 9.23958C1.35556 8.97529 1.22531 8.75374 1.1367 8.59621C1.09237 8.5174 1.05837 8.45445 1.03487 8.41003C1.02311 8.38782 1.01397 8.37022 1.00747 8.35757L0.999686 8.34234L0.99728 8.33757L0.996449 8.33592L0.996127 8.33528C0.995992 8.33501 0.995867 8.33476 1.66669 7.99935C0.995867 7.66394 0.995992 7.66369 0.996127 7.66342L0.996449 7.66278L0.99728 7.66112L0.999686 7.65636L1.00747 7.64113C1.01397 7.62848 1.02311 7.61088 1.03487 7.58866C1.05837 7.54424 1.09237 7.4813 1.1367 7.40249C1.22531 7.24495 1.35556 7.0234 1.52624 6.75912C1.86667 6.232 2.37285 5.5273 3.0362 4.81973C4.34921 3.41918 6.36706 1.91602 9.00002 1.91602C11.633 1.91602 13.6508 3.41918 14.9638 4.81973C15.6272 5.5273 16.1334 6.232 16.4738 6.75912C16.6445 7.0234 16.7747 7.24495 16.8633 7.40249C16.9077 7.4813 16.9417 7.54424 16.9652 7.58866C16.9769 7.61088 16.9861 7.62848 16.9926 7.64113L17.0004 7.65636L17.0028 7.66112L17.0036 7.66278L17.0039 7.66342ZM16.3334 7.99935L17.0042 7.66394C17.1097 7.87508 17.1097 8.12361 17.0042 8.33476L16.3334 7.99935ZM0.995867 7.66394L1.66669 7.99935L0.995867 8.33476C0.890294 8.12361 0.890294 7.87508 0.995867 7.66394ZM9.00002 5.24935C7.48124 5.24935 6.25002 6.48057 6.25002 7.99935C6.25002 9.51813 7.48124 10.7493 9.00002 10.7493C10.5188 10.7493 11.75 9.51813 11.75 7.99935C11.75 6.48057 10.5188 5.24935 9.00002 5.24935ZM7.75002 7.99935C7.75002 7.30899 8.30966 6.74935 9.00002 6.74935C9.69038 6.74935 10.25 7.30899 10.25 7.99935C10.25 8.6897 9.69038 9.24935 9.00002 9.24935C8.30966 9.24935 7.75002 8.6897 7.75002 7.99935Z" fill="#646566"/>
</svg>
