<svg width="20" height="20" viewBox="0 0 20 20" fill="none" xmlns="http://www.w3.org/2000/svg">
    <path fill-rule="evenodd" clip-rule="evenodd" d="M2.07538 10.6344C1.91147 10.3806 1.78193 10.1638 1.68782 9.99967C1.78193 9.83555 1.91147 9.6187 2.07538 9.3649C2.46151 8.76702 3.03346 7.97173 3.77636 7.1793C5.27585 5.57984 7.383 4.08301 10 4.08301C12.6171 4.08301 14.7242 5.57984 16.2237 7.1793C16.9666 7.97173 17.5386 8.76702 17.9247 9.3649C18.0886 9.6187 18.2182 9.83555 18.3123 9.99967C18.2182 10.1638 18.0886 10.3806 17.9247 10.6344C17.5386 11.2323 16.9666 12.0276 16.2237 12.8201C14.7242 14.4195 12.6171 15.9163 10 15.9163C7.383 15.9163 5.27585 14.4195 3.77636 12.8201C3.03346 12.0276 2.46151 11.2323 2.07538 10.6344ZM19.8373 9.66373C19.8374 9.66401 19.8375 9.66426 19.1667 9.99967C19.8375 10.3351 19.8374 10.3353 19.8373 10.3356L19.8369 10.3363L19.836 10.3381L19.8332 10.3436L19.824 10.3617C19.8162 10.3769 19.8051 10.3982 19.7908 10.4253C19.7621 10.4795 19.7204 10.5568 19.6658 10.6538C19.5566 10.8478 19.3958 11.1215 19.1848 11.4482C18.7636 12.1004 18.1376 12.9717 17.318 13.846C15.6925 15.5798 13.2163 17.4163 10 17.4163C6.78374 17.4163 4.30757 15.5798 2.68205 13.846C1.86246 12.9717 1.23649 12.1004 0.815324 11.4482C0.604277 11.1215 0.443434 10.8478 0.334315 10.6538C0.279727 10.5568 0.237999 10.4795 0.209325 10.4253C0.194986 10.3982 0.183903 10.3769 0.176101 10.3617L0.16686 10.3436L0.164089 10.3381L0.163167 10.3363L0.162822 10.3356C0.162681 10.3353 0.162554 10.3351 0.833374 9.99967C0.162554 9.66426 0.162681 9.66401 0.162822 9.66373L0.163167 9.66304L0.164089 9.66121L0.16686 9.65572L0.176101 9.63763C0.183903 9.62246 0.194986 9.60111 0.209325 9.57402C0.237999 9.51983 0.279727 9.44257 0.334315 9.34552C0.443434 9.15153 0.604277 8.8779 0.815324 8.55111C1.23649 7.89899 1.86246 7.02762 2.68205 6.15339C4.30757 4.4195 6.78374 2.58301 10 2.58301C13.2163 2.58301 15.6925 4.4195 17.318 6.15339C18.1376 7.02762 18.7636 7.89899 19.1848 8.55111C19.3958 8.8779 19.5566 9.15153 19.6658 9.34552C19.7204 9.44257 19.7621 9.51983 19.7908 9.57402C19.8051 9.60111 19.8162 9.62246 19.824 9.63763L19.8332 9.65572L19.836 9.66121L19.8369 9.66304L19.8373 9.66373ZM19.1667 9.99967L19.8375 9.66426C19.9431 9.87541 19.9431 10.1239 19.8375 10.3351L19.1667 9.99967ZM0.162554 9.66426L0.833374 9.99967L0.162554 10.3351C0.0569808 10.1239 0.0569808 9.87541 0.162554 9.66426ZM10 6.49967C8.06704 6.49967 6.50004 8.06668 6.50004 9.99967C6.50004 11.9327 8.06704 13.4997 10 13.4997C11.933 13.4997 13.5 11.9327 13.5 9.99967C13.5 8.06668 11.933 6.49967 10 6.49967ZM8.50004 9.99967C8.50004 9.17125 9.17161 8.49967 10 8.49967C10.8285 8.49967 11.5 9.17125 11.5 9.99967C11.5 10.8281 10.8285 11.4997 10 11.4997C9.17161 11.4997 8.50004 10.8281 8.50004 9.99967Z" fill="#0C0C0C"/>
</svg>
