<svg width="16" height="16" viewBox="0 0 16 16" fill="none" xmlns="http://www.w3.org/2000/svg">
<path d="M6 11.25C5.58579 11.25 5.25 11.5858 5.25 12C5.25 12.4142 5.58579 12.75 6 12.75V11.25ZM10 12.75H10.75V11.25H10V12.75ZM6 12.75H10V11.25H6V12.75Z" fill="#0E3FE5"/>
<path d="M4 7.25C3.58579 7.25 3.25 7.58579 3.25 8C3.25 8.41421 3.58579 8.75 4 8.75V7.25ZM12 8.75H12.75V7.25H12V8.75ZM4 8.75H12V7.25H4V8.75Z" fill="#0E3FE5"/>
<path d="M2 3.25C1.58579 3.25 1.25 3.58579 1.25 4C1.25 4.41421 1.58579 4.75 2 4.75V3.25ZM14 4.75H14.75V3.25H14V4.75ZM2 4.75H14V3.25H2V4.75Z" fill="#0E3FE5"/>
</svg>
