<svg width="16" height="16" viewBox="0 0 16 16" fill="none" xmlns="http://www.w3.org/2000/svg">
<path fill-rule="evenodd" clip-rule="evenodd" d="M13.25 6.875L13.25 12C13.25 12.6904 12.6904 13.25 12 13.25L8 13.25L4 13.25C3.30964 13.25 2.75 12.6904 2.75 12L2.75 4C2.75 3.30964 3.30964 2.75 4 2.75L9.5 2.75C9.91421 2.75 10.25 2.41422 10.25 2C10.25 1.58579 9.91421 1.25 9.5 1.25L4 1.25C2.48122 1.25 1.25 2.48122 1.25 4L1.25 12C1.25 13.5188 2.48121 14.75 4 14.75L8 14.75L12 14.75C13.5188 14.75 14.75 13.5188 14.75 12L14.75 6.875C14.75 6.46079 14.4142 6.125 14 6.125C13.5858 6.125 13.25 6.46079 13.25 6.875ZM6.37123 9.77297L6.37123 9.02297L6.37123 4.78033C6.37123 4.36611 6.70702 4.03033 7.12123 4.03033C7.53545 4.03033 7.87123 4.36611 7.87123 4.78033L7.87123 7.2123L11.3639 3.71967C11.6568 3.42678 12.1316 3.42678 12.4245 3.71967C12.7174 4.01257 12.7174 4.48744 12.4245 4.78033L8.93189 8.27297L11.3639 8.27297C11.7781 8.27297 12.1139 8.60875 12.1139 9.02297C12.1139 9.43718 11.7781 9.77297 11.3639 9.77297L7.12123 9.77297L6.37123 9.77297Z" fill="white"/>
</svg>
