<svg width="14" height="14" viewBox="0 0 14 14" fill="none" xmlns="http://www.w3.org/2000/svg">
    <path fill-rule="evenodd" clip-rule="evenodd" d="M8.25 1C8.25 0.585786 8.58579 0.25 9 0.25H13C13.4142 0.25 13.75 0.585786 13.75 1V5C13.75 5.41421 13.4142 5.75 13 5.75C12.5858 5.75 12.25 5.41421 12.25 5V2.81066L6.197 8.86366C5.9041 9.15656 5.42923 9.15656 5.13634 8.86366C4.84344 8.57077 4.84344 8.0959 5.13634 7.803L11.1893 1.75H9C8.58579 1.75 8.25 1.41421 8.25 1ZM2.33333 3.75C2.01117 3.75 1.75 4.01117 1.75 4.33333V11.6667C1.75 11.9888 2.01117 12.25 2.33333 12.25H9.66667C9.98883 12.25 10.25 11.9888 10.25 11.6667V7.66667C10.25 7.25245 10.5858 6.91667 11 6.91667C11.4142 6.91667 11.75 7.25245 11.75 7.66667V11.6667C11.75 12.8173 10.8173 13.75 9.66667 13.75H2.33333C1.18274 13.75 0.25 12.8173 0.25 11.6667V4.33333C0.25 3.18274 1.18274 2.25 2.33333 2.25H6.33333C6.74755 2.25 7.08333 2.58579 7.08333 3C7.08333 3.41421 6.74755 3.75 6.33333 3.75H2.33333Z" fill="#404040"/>
</svg>
