<svg width="16" height="16" viewBox="0 0 16 16" fill="none" xmlns="http://www.w3.org/2000/svg">
    <path fill-rule="evenodd" clip-rule="evenodd" d="M4.31404 8.00033C4.31404 10.0359 5.96445 11.686 7.99999 11.686C9.13142 11.686 10.1436 11.176 10.8197 10.3736L13.6102 12.7223C12.265 14.3189 10.2511 15.3337 7.99999 15.3337C3.94977 15.3337 0.666656 12.0503 0.666656 8.00033C0.666656 3.95011 3.94977 0.666992 7.99999 0.666992V4.31437C5.96445 4.31437 4.31404 5.96452 4.31404 8.00033ZM14.3366 11.6931L11.1847 9.85628C11.2923 9.67215 11.3844 9.47791 11.4591 9.27524L14.8825 10.537C14.7338 10.9403 14.5505 11.3267 14.3366 11.6931ZM11.6857 8.00032H15.3333C15.3333 7.56591 15.2953 7.14041 15.2228 6.72672L11.6302 7.36021C11.6666 7.56814 11.6857 7.78198 11.6857 8.00032ZM13.637 3.30993L10.8332 5.64288C10.6959 5.47802 10.5444 5.32544 10.3808 5.18677L12.7367 2.4025C13.0624 2.67837 13.3638 2.98194 13.637 3.30993Z" fill="white"/>
</svg>
