<svg width="20" height="20" viewBox="0 0 20 20" fill="none" xmlns="http://www.w3.org/2000/svg">
    <path fill-rule="evenodd" clip-rule="evenodd" d="M2.07538 10.6349C1.91147 10.3811 1.78193 10.1643 1.68782 10.0002C1.78193 9.83604 1.91147 9.61919 2.07538 9.36539C2.46151 8.76751 3.03346 7.97222 3.77636 7.17979C5.27585 5.58033 7.383 4.0835 10 4.0835C12.6171 4.0835 14.7242 5.58033 16.2237 7.17979C16.9666 7.97222 17.5386 8.76751 17.9247 9.36539C18.0886 9.61919 18.2182 9.83604 18.3123 10.0002C18.2182 10.1643 18.0886 10.3811 17.9247 10.6349C17.5386 11.2328 16.9666 12.0281 16.2237 12.8205C14.7242 14.42 12.6171 15.9168 10 15.9168C7.383 15.9168 5.27585 14.42 3.77636 12.8205C3.03346 12.0281 2.46151 11.2328 2.07538 10.6349ZM19.8373 9.66422C19.8374 9.6645 19.8375 9.66475 19.1667 10.0002C19.8375 10.3356 19.8374 10.3358 19.8373 10.3361L19.8369 10.3368L19.836 10.3386L19.8332 10.3441L19.824 10.3622C19.8162 10.3774 19.8051 10.3987 19.7908 10.4258C19.7621 10.48 19.7204 10.5573 19.6658 10.6543C19.5566 10.8483 19.3958 11.1219 19.1848 11.4487C18.7636 12.1008 18.1376 12.9722 17.318 13.8465C15.6925 15.5803 13.2163 17.4168 10 17.4168C6.78374 17.4168 4.30757 15.5803 2.68205 13.8465C1.86246 12.9722 1.23649 12.1008 0.815324 11.4487C0.604277 11.1219 0.443434 10.8483 0.334315 10.6543C0.279727 10.5573 0.237999 10.48 0.209325 10.4258C0.194986 10.3987 0.183903 10.3774 0.176101 10.3622L0.16686 10.3441L0.164089 10.3386L0.163167 10.3368L0.162822 10.3361C0.162681 10.3358 0.162554 10.3356 0.833374 10.0002C0.162554 9.66475 0.162681 9.6645 0.162822 9.66422L0.163167 9.66353L0.164089 9.66169L0.16686 9.65621L0.176101 9.63812C0.183903 9.62294 0.194986 9.6016 0.209325 9.5745C0.237999 9.52032 0.279727 9.44305 0.334315 9.34601C0.443434 9.15202 0.604277 8.87838 0.815324 8.5516C1.23649 7.89948 1.86246 7.02811 2.68205 6.15387C4.30757 4.41999 6.78374 2.5835 10 2.5835C13.2163 2.5835 15.6925 4.41999 17.318 6.15387C18.1376 7.02811 18.7636 7.89948 19.1848 8.5516C19.3958 8.87838 19.5566 9.15202 19.6658 9.34601C19.7204 9.44305 19.7621 9.52032 19.7908 9.5745C19.8051 9.6016 19.8162 9.62294 19.824 9.63812L19.8332 9.65621L19.836 9.66169L19.8369 9.66353L19.8373 9.66422ZM19.1667 10.0002L19.8375 9.66475C19.9431 9.8759 19.9431 10.1244 19.8375 10.3356L19.1667 10.0002ZM0.162554 9.66475L0.833374 10.0002L0.162554 10.3356C0.0569808 10.1244 0.0569808 9.8759 0.162554 9.66475ZM10 6.75016C8.20512 6.75016 6.75004 8.20524 6.75004 10.0002C6.75004 11.7951 8.20512 13.2502 10 13.2502C11.795 13.2502 13.25 11.7951 13.25 10.0002C13.25 8.20524 11.795 6.75016 10 6.75016ZM8.25004 10.0002C8.25004 9.03366 9.03354 8.25016 10 8.25016C10.9665 8.25016 11.75 9.03366 11.75 10.0002C11.75 10.9667 10.9665 11.7502 10 11.7502C9.03354 11.7502 8.25004 10.9667 8.25004 10.0002Z" fill="#ACACAC"/>
</svg>
