<svg width="20" height="20" viewBox="0 0 20 20" fill="none" xmlns="http://www.w3.org/2000/svg">
    <path d="M15.4048 15.5464C15.7343 15.2953 15.7977 14.8247 15.5466 14.4953C15.2955 14.1659 14.8249 14.1024 14.4955 14.3535L15.4048 15.5464ZM10.0002 16.6666V17.4167L10.0124 17.4165L10.0002 16.6666ZM0.833496 9.99994L0.172629 9.64532C0.0574039 9.86005 0.053692 10.1174 0.162676 10.3354L0.833496 9.99994ZM5.50534 5.64602C5.83455 5.39464 5.89763 4.92397 5.64625 4.59476C5.39486 4.26556 4.92419 4.20247 4.59499 4.45386L5.50534 5.64602ZM8.07923 2.80301C7.67592 2.89742 7.4255 3.3009 7.5199 3.70421C7.61431 4.10752 8.01779 4.35794 8.4211 4.26353L8.07923 2.80301ZM10.0002 3.33327L9.9984 4.08327H10.0002V3.33327ZM19.1668 9.99994L19.8283 10.3535C19.9429 10.139 19.9464 9.88212 19.8376 9.66453L19.1668 9.99994ZM16.793 12.1754C16.5263 12.4923 16.567 12.9655 16.8839 13.2321C17.2009 13.4988 17.674 13.4581 17.9407 13.1412L16.793 12.1754ZM12.3155 12.2779C12.5979 11.9749 12.5812 11.5003 12.2781 11.2179C11.9751 10.9355 11.5005 10.9523 11.2181 11.2553L12.3155 12.2779ZM8.74479 8.78198C9.04783 8.4996 9.06458 8.02502 8.7822 7.72198C8.49983 7.41894 8.02525 7.40219 7.7222 7.68457L8.74479 8.78198ZM14.4955 14.3535C13.1983 15.3423 11.6188 15.89 9.9879 15.9167L10.0124 17.4165C11.9634 17.3846 13.853 16.7293 15.4048 15.5464L14.4955 14.3535ZM10.0002 15.9166C7.38313 15.9166 5.27597 14.4198 3.77648 12.8203C3.03358 12.0279 2.46163 11.2326 2.0755 10.6347C1.88291 10.3365 1.73776 10.0893 1.6418 9.9187C1.59385 9.83346 1.55827 9.76749 1.53526 9.72402C1.52376 9.70229 1.51542 9.6862 1.51025 9.67614C1.50766 9.67112 1.50588 9.6676 1.50489 9.66565C1.50439 9.66467 1.5041 9.66409 1.504 9.6639C1.50395 9.6638 1.50396 9.66381 1.50401 9.66391C1.50403 9.66397 1.50411 9.66412 1.50412 9.66415C1.50421 9.66433 1.50432 9.66453 0.833496 9.99994C0.162676 10.3354 0.162803 10.3356 0.162944 10.3359C0.163007 10.336 0.163161 10.3363 0.163289 10.3366C0.163545 10.3371 0.163852 10.3377 0.164211 10.3384C0.164929 10.3398 0.165853 10.3417 0.166982 10.3439C0.169241 10.3483 0.172323 10.3544 0.176224 10.362C0.184025 10.3772 0.195108 10.3985 0.209447 10.4256C0.238121 10.4798 0.279849 10.557 0.334437 10.6541C0.443556 10.8481 0.604399 11.1217 0.815446 11.4485C1.23661 12.1006 1.86258 12.972 2.68218 13.8462C4.30769 15.5801 6.78387 17.4166 10.0002 17.4166V15.9166ZM1.49436 10.3546C2.48037 8.51704 3.84795 6.91163 5.50534 5.64602L4.59499 4.45386C2.76761 5.84927 1.25977 7.61933 0.172629 9.64532L1.49436 10.3546ZM8.4211 4.26353C8.9381 4.14252 9.46742 4.08202 9.9984 4.08327L10.0019 2.58328C9.35468 2.58175 8.70944 2.65549 8.07923 2.80301L8.4211 4.26353ZM10.0002 4.08327C12.6172 4.08327 14.7244 5.58011 16.2238 7.17956C16.9667 7.97199 17.5387 8.76729 17.9248 9.36517C18.1174 9.66339 18.2626 9.91058 18.3585 10.0812C18.4065 10.1664 18.4421 10.2324 18.4651 10.2759C18.4766 10.2976 18.4849 10.3137 18.4901 10.3237C18.4927 10.3288 18.4944 10.3323 18.4954 10.3342C18.4959 10.3352 18.4962 10.3358 18.4963 10.336C18.4964 10.3361 18.4964 10.3361 18.4963 10.336C18.4963 10.3359 18.4962 10.3358 18.4962 10.3357C18.4961 10.3356 18.496 10.3354 19.1668 9.99994C19.8376 9.66453 19.8375 9.66427 19.8374 9.66399C19.8373 9.66387 19.8372 9.66356 19.837 9.66331C19.8368 9.6628 19.8365 9.66218 19.8361 9.66147C19.8354 9.66004 19.8345 9.65821 19.8333 9.65599C19.8311 9.65153 19.828 9.64548 19.8241 9.6379C19.8163 9.62272 19.8052 9.60138 19.7909 9.57428C19.7622 9.52009 19.7205 9.44283 19.6659 9.34579C19.5568 9.1518 19.3959 8.87816 19.1849 8.55138C18.7637 7.89926 18.1377 7.02789 17.3181 6.15365C15.6926 4.41977 13.2165 2.58327 10.0002 2.58327V4.08327ZM18.5054 9.64638C18.0242 10.5467 17.4502 11.3943 16.793 12.1754L17.9407 13.1412C18.6652 12.2802 19.2978 11.3459 19.8283 10.3535L18.5054 9.64638ZM11.2181 11.2553C10.7819 11.7235 10.1248 11.9162 9.50478 11.7579L9.13362 13.2112C10.2851 13.5053 11.5053 13.1474 12.3155 12.2779L11.2181 11.2553ZM9.50478 11.7579C8.88474 11.5995 8.40057 11.1154 8.24222 10.4953L6.78887 10.8665C7.08294 12.018 7.98211 12.9172 9.13362 13.2112L9.50478 11.7579ZM8.24222 10.4953C8.08387 9.87528 8.2766 9.21825 8.74479 8.78198L7.7222 7.68457C6.85271 8.49477 6.49479 9.71497 6.78887 10.8665L8.24222 10.4953Z" fill="#ACACAC"/>
    <path d="M0.833496 0.833252L19.1668 19.1666" stroke="#ACACAC" stroke-width="1.5" stroke-linecap="round" stroke-linejoin="round"/>
</svg>
