<svg width="18" height="18" viewBox="0 0 18 18" fill="none" xmlns="http://www.w3.org/2000/svg">
    <path fill-rule="evenodd" clip-rule="evenodd" d="M1.5 9C1.5 7.34315 2.84315 6 4.5 6H6.75H7.5V4.5H6.75H4.5C2.01472 4.5 0 6.51472 0 9C0 10.1935 0.474106 11.3381 1.31802 12.182C2.16193 13.0259 3.30653 13.5 4.5 13.5H6.75H7.5V12H6.75H4.5C3.70435 12 2.94129 11.6839 2.37868 11.1213C1.81607 10.5587 1.5 9.79565 1.5 9ZM11.25 4.5H10.5V6H11.25H13.5C14.2956 6 15.0587 6.31607 15.6213 6.87868C16.1839 7.44129 16.5 8.20435 16.5 9C16.5 10.6569 15.1569 12 13.5 12H11.25H10.5V13.5H11.25H13.5C15.9853 13.5 18 11.4853 18 9C18 7.80653 17.5259 6.66193 16.682 5.81802C15.8381 4.97411 14.6935 4.5 13.5 4.5H11.25ZM6 8.25H5.25V9.75H6H12H12.75V8.25H12H6Z" fill="#06C8D4"/>
</svg>
