<svg width="24" height="24" viewBox="0 0 24 24" fill="none" xmlns="http://www.w3.org/2000/svg">
    <path fill-rule="evenodd" clip-rule="evenodd" d="M11 2C6.02944 2 2 6.02944 2 11C2 15.9706 6.02944 20 11 20C13.125 20 15.078 19.2635 16.6176 18.032L20.2928 21.7071L20.9999 22.4142L22.4141 21L21.707 20.2929L18.0318 16.6178C19.2635 15.0781 20 13.125 20 11C20 6.02944 15.9706 2 11 2ZM16.2048 15.681C17.3208 14.4408 18 12.7997 18 11C18 7.13401 14.866 4 11 4C7.13401 4 4 7.13401 4 11C4 14.866 7.13401 18 11 18C12.7997 18 14.4408 17.3208 15.681 16.2048L16.2048 15.681Z" fill="#0C0C0C"/>
</svg>
