<svg width="18" height="18" viewBox="0 0 18 18" fill="none" xmlns="http://www.w3.org/2000/svg">
    <path fill-rule="evenodd" clip-rule="evenodd" d="M8.16667 0.75C4.07055 0.75 0.75 4.07055 0.75 8.16667C0.75 12.2628 4.07055 15.5833 8.16667 15.5833C9.94457 15.5833 11.5764 14.9577 12.8539 13.9147L15.9696 17.0303L16.4999 17.5607L17.5606 16.5L17.0302 15.9697L13.9146 12.854C14.9577 11.5765 15.5833 9.94462 15.5833 8.16667C15.5833 4.07055 12.2628 0.75 8.16667 0.75ZM12.5644 12.1248C13.5087 11.0764 14.0833 9.68867 14.0833 8.16667C14.0833 4.89898 11.4344 2.25 8.16667 2.25C4.89898 2.25 2.25 4.89898 2.25 8.16667C2.25 11.4344 4.89898 14.0833 8.16667 14.0833C9.68867 14.0833 11.0764 13.5087 12.1248 12.5644L12.5644 12.1248Z" fill="#ACACAC"/>
</svg>
