<svg width="20" height="20" viewBox="0 0 20 20" fill="none" xmlns="http://www.w3.org/2000/svg">
<path fill-rule="evenodd" clip-rule="evenodd" d="M9.16667 1.75C5.07055 1.75 1.75 5.07055 1.75 9.16667C1.75 13.2628 5.07055 16.5833 9.16667 16.5833C10.9446 16.5833 12.5764 15.9577 13.8539 14.9147L16.9696 18.0303L17.4999 18.5607L18.5606 17.5L18.0302 16.9697L14.9146 13.854C15.9577 12.5765 16.5833 10.9446 16.5833 9.16667C16.5833 5.07055 13.2628 1.75 9.16667 1.75ZM13.5644 13.1248C14.5087 12.0764 15.0833 10.6887 15.0833 9.16667C15.0833 5.89898 12.4344 3.25 9.16667 3.25C5.89898 3.25 3.25 5.89898 3.25 9.16667C3.25 12.4344 5.89898 15.0833 9.16667 15.0833C10.6887 15.0833 12.0764 14.5087 13.1248 13.5644L13.5644 13.1248Z" fill="#ACACAC"/>
</svg>
