<svg width="32" height="32" viewBox="0 0 32 32" fill="none" xmlns="http://www.w3.org/2000/svg">
    <path fill-rule="evenodd" clip-rule="evenodd" d="M3 14C3 7.92487 7.92487 3 14 3C16.348 3 18.5268 3.73677 20.3142 4.99168C20.5663 5.16872 20.7118 5.44108 20.736 5.7258L21.6029 4.85225L22.3073 4.14244L23.7269 5.55122L23.0225 6.26103L22.1145 7.17607C22.4307 7.17144 22.744 7.31656 22.9424 7.593C24.2374 9.39746 25 11.6111 25 14C25 16.6775 24.0434 19.1316 22.4533 21.0391L28.7072 27.293L29.4143 28.0001L28.0001 29.4143L27.293 28.7072L21.0391 22.4533C19.1316 24.0434 16.6775 25 14 25C11.662 25 9.49161 24.2695 7.70852 23.0242C7.40559 22.8127 7.25577 22.4636 7.28446 22.1202L6.06023 23.3538L5.35584 24.0636L3.93622 22.6548L4.64061 21.945L5.92134 20.6544C5.5516 20.7147 5.16309 20.5637 4.93642 20.2347C3.71513 18.4624 3 16.3132 3 14ZM6.74789 19.8215L19.6628 6.80731C19.4895 6.79413 19.3175 6.73561 19.1649 6.62852C17.7032 5.60225 15.9234 5 14 5C9.02944 5 5 9.02944 5 14C5 15.8951 5.58461 17.6506 6.58328 19.0999C6.73442 19.3192 6.786 19.5776 6.74789 19.8215ZM8.18909 21.2086C8.4163 21.1875 8.6519 21.2436 8.85364 21.3845C10.3118 22.4028 12.0847 23 14 23C16.3654 23 18.5177 22.0875 20.124 20.5952L20.5952 20.124C22.0875 18.5177 23 16.3654 23 14C23 12.0432 22.3767 10.2349 21.3175 8.75907C21.189 8.58 21.1282 8.37289 21.1299 8.16817L8.18909 21.2086Z" fill="#ACACAC"/>
</svg>
