<svg width="18" height="18" viewBox="0 0 18 18" fill="none" xmlns="http://www.w3.org/2000/svg">
<path fill-rule="evenodd" clip-rule="evenodd" d="M9 11C10.1046 11 11 10.1046 11 9C11 7.89543 10.1046 7 9 7C7.89543 7 7 7.89543 7 9C7 10.1046 7.89543 11 9 11Z" stroke="#646566" stroke-width="1.5" stroke-linecap="round" stroke-linejoin="round"/>
<path fill-rule="evenodd" clip-rule="evenodd" d="M13.9332 11.0003C13.7516 11.4117 13.8387 11.8922 14.1532 12.2137L14.1932 12.2537C14.4435 12.5037 14.5842 12.8431 14.5842 13.197C14.5842 13.5509 14.4435 13.8902 14.1932 14.1403C13.9431 14.3907 13.6037 14.5314 13.2498 14.5314C12.896 14.5314 12.5566 14.3907 12.3065 14.1403L12.2665 14.1003C11.945 13.7859 11.4646 13.6988 11.0532 13.8803C10.6502 14.053 10.3883 14.4486 10.3865 14.887V15.0003C10.3865 15.7367 9.78955 16.3337 9.05317 16.3337C8.31679 16.3337 7.71984 15.7367 7.71984 15.0003V14.9403C7.70927 14.4888 7.42375 14.0896 6.99984 13.9337C6.58844 13.7521 6.10796 13.8392 5.7865 14.1537L5.7465 14.1937C5.49641 14.444 5.15705 14.5847 4.80317 14.5847C4.44929 14.5847 4.10993 14.444 3.85984 14.1937C3.60947 13.9436 3.46879 13.6042 3.46879 13.2503C3.46879 12.8964 3.60947 12.5571 3.85984 12.307L3.89984 12.267C4.21428 11.9455 4.3014 11.4651 4.11984 11.0537C3.94712 10.6507 3.5516 10.3887 3.11317 10.387H2.99984C2.26346 10.387 1.6665 9.79004 1.6665 9.05366C1.6665 8.31728 2.26346 7.72033 2.99984 7.72033H3.05984C3.51139 7.70976 3.91059 7.42424 4.0665 7.00033C4.24807 6.58893 4.16095 6.10845 3.8465 5.78699L3.8065 5.74699C3.55613 5.4969 3.41545 5.15754 3.41545 4.80366C3.41545 4.44978 3.55613 4.11042 3.8065 3.86033C4.05659 3.60996 4.39596 3.46928 4.74984 3.46928C5.10372 3.46928 5.44308 3.60996 5.69317 3.86033L5.73317 3.90033C6.05463 4.21477 6.53511 4.30189 6.9465 4.12033H6.99984C7.40282 3.94761 7.66475 3.55209 7.6665 3.11366V3.00033C7.6665 2.26395 8.26346 1.66699 8.99984 1.66699C9.73622 1.66699 10.3332 2.26395 10.3332 3.00033V3.06033C10.3349 3.49875 10.5969 3.89428 10.9998 4.06699C11.4112 4.24856 11.8917 4.16144 12.2132 3.84699L12.2532 3.80699C12.5033 3.55662 12.8426 3.41594 13.1965 3.41594C13.5504 3.41594 13.8897 3.55662 14.1398 3.80699C14.3902 4.05708 14.5309 4.39645 14.5309 4.75033C14.5309 5.1042 14.3902 5.44357 14.1398 5.69366L14.0998 5.73366C13.7854 6.05512 13.6983 6.5356 13.8798 6.94699V7.00033C14.0525 7.40331 14.4481 7.66524 14.8865 7.66699H14.9998C15.7362 7.66699 16.3332 8.26395 16.3332 9.00033C16.3332 9.7367 15.7362 10.3337 14.9998 10.3337H14.9398C14.5014 10.3354 14.1059 10.5973 13.9332 11.0003Z" stroke="#646566" stroke-width="1.5" stroke-linecap="round" stroke-linejoin="round"/>
</svg>
