<svg xmlns="http://www.w3.org/2000/svg" width="22" height="22" viewBox="0 0 22 22" fill="none">
<path fill-rule="evenodd" clip-rule="evenodd" d="M11 20.087C16.0186 20.087 20.087 16.0186 20.087 11C20.087 5.98141 16.0186 1.91304 11 1.91304C5.98141 1.91304 1.91304 5.98141 1.91304 11C1.91304 16.0186 5.98141 20.087 11 20.087ZM11 22C17.0751 22 22 17.0751 22 11C22 4.92487 17.0751 0 11 0C4.92487 0 0 4.92487 0 11C0 17.0751 4.92487 22 11 22Z" fill="#e7e3f4"/>
<path d="M1.68727 16.8543C0.390267 14.7911 -0.184868 12.3556 0.0521478 9.93017C0.289164 7.50472 1.32491 5.22664 2.99679 3.45357C4.66867 1.68049 6.88202 0.512806 9.28938 0.133824C11.6967 -0.245157 14.1618 0.186023 16.2976 1.35968C18.4333 2.53333 20.1189 4.383 21.0896 6.61832C22.0604 8.85363 22.2613 11.348 21.661 13.7099C21.0606 16.0718 19.6929 18.1675 17.7725 19.6679C15.8522 21.1683 13.488 21.9886 11.051 21.9999L11.0422 20.0916C13.0564 20.0823 15.0104 19.4043 16.5976 18.1642C18.1848 16.9241 19.3153 15.192 19.8115 13.2398C20.3077 11.2877 20.1416 9.22599 19.3393 7.37846C18.5369 5.53093 17.1438 4.00214 15.3785 3.03209C13.6133 2.06205 11.5759 1.70567 9.58614 2.0189C7.59642 2.33214 5.76704 3.29725 4.3852 4.76273C3.00336 6.22821 2.1473 8.11109 1.9514 10.1158C1.7555 12.1204 2.23086 14.1334 3.30285 15.8387L1.68727 16.8543Z" fill="url(#paint0_linear_1401_1013)"/>
<defs fill="#2f2b3a">
<linearGradient id="paint0_linear_1401_1013" x1="-0.885593" y1="0.935374" x2="7.48139" y2="27.1572" gradientUnits="userSpaceOnUse" fill="#2f2b3a">
<stop stop-color="#2f2b3a" fill="#2f2b3a"/>
<stop offset="0.776042" stop-color="#46424f" fill="#2f2b3a"/>
</linearGradient>
</defs>
</svg>