<svg width="16" height="16" viewBox="0 0 16 16" fill="none" xmlns="http://www.w3.org/2000/svg">
<g id="24/general-ui/copy">
<path id="Union" fill-rule="evenodd" clip-rule="evenodd" d="M1.83301 2.66683C1.83301 2.20659 2.2061 1.8335 2.66634 1.8335H8.66634C9.12658 1.8335 9.49967 2.20659 9.49967 2.66683V3.3335C9.49967 3.60964 9.72353 3.8335 9.99967 3.8335C10.2758 3.8335 10.4997 3.60964 10.4997 3.3335V2.66683C10.4997 1.65431 9.67886 0.833496 8.66634 0.833496H2.66634C1.65382 0.833496 0.833008 1.65431 0.833008 2.66683V8.66683C0.833008 9.67935 1.65382 10.5002 2.66634 10.5002H3.33301C3.60915 10.5002 3.83301 10.2763 3.83301 10.0002C3.83301 9.72402 3.60915 9.50016 3.33301 9.50016H2.66634C2.2061 9.50016 1.83301 9.12707 1.83301 8.66683V2.66683ZM7.99967 5.50016C6.61896 5.50016 5.49967 6.61945 5.49967 8.00016V12.6668C5.49967 14.0475 6.61896 15.1668 7.99967 15.1668H12.6663C14.0471 15.1668 15.1663 14.0475 15.1663 12.6668V8.00016C15.1663 6.61945 14.0471 5.50016 12.6663 5.50016H7.99967ZM6.49967 8.00016C6.49967 7.17174 7.17125 6.50016 7.99967 6.50016H12.6663C13.4948 6.50016 14.1663 7.17174 14.1663 8.00016V12.6668C14.1663 13.4953 13.4948 14.1668 12.6663 14.1668H7.99967C7.17125 14.1668 6.49967 13.4953 6.49967 12.6668V8.00016Z" fill="white"/>
</g>
</svg>
