<svg width="48" height="48" viewBox="0 0 48 48" fill="none" xmlns="http://www.w3.org/2000/svg">
<path d="M45.4468 26.4749L36.8661 41.3371C35.9819 42.8687 34.3478 43.8121 32.5793 43.8121L15.4179 43.8121C13.6494 43.8121 12.0153 42.8687 11.1311 41.3371L2.55037 26.4749C1.66614 24.9434 1.66614 23.0565 2.55037 21.5249L11.1311 6.66272C12.0153 5.13118 13.6494 4.18772 15.4179 4.18772L32.5793 4.18772C34.3478 4.18772 35.9819 5.13118 36.8661 6.66272L45.4468 21.5249C46.3311 23.0565 46.3311 24.9434 45.4468 26.4749Z" stroke="url(#paint0_linear_1246_6269)"/>
<path fill-rule="evenodd" clip-rule="evenodd" d="M20.3144 23.9998C20.3144 26.0354 21.9648 27.6855 24.0003 27.6855C25.1318 27.6855 26.1439 27.1755 26.82 26.3731L29.6105 28.7218C28.2653 30.3184 26.2514 31.3332 24.0003 31.3332C19.9501 31.3332 16.667 28.0498 16.667 23.9998C16.667 19.9496 19.9501 16.6665 24.0003 16.6665V20.3139C21.9648 20.3139 20.3144 21.964 20.3144 23.9998ZM30.3368 27.6927L27.185 25.8559C27.2926 25.6718 27.3847 25.4775 27.4594 25.2749L30.8828 26.5366C30.7341 26.9399 30.5508 27.3263 30.3368 27.6927ZM27.6858 23.9999H31.3335C31.3335 23.5655 31.2954 23.14 31.223 22.7263L27.6303 23.3598C27.6667 23.5677 27.6858 23.7816 27.6858 23.9999ZM29.6375 19.3095L26.8337 21.6425C26.6964 21.4776 26.5449 21.325 26.3812 21.1863L28.7372 18.4021C29.0629 18.678 29.3643 18.9815 29.6375 19.3095Z" fill="url(#paint1_linear_1246_6269)"/>
<defs>
<linearGradient id="paint0_linear_1246_6269" x1="23.9986" y1="0.545409" x2="23.9986" y2="47.4545" gradientUnits="userSpaceOnUse">
<stop stop-color="#DAD0F9"/>
<stop offset="1" stop-color="#A898DB"/>
</linearGradient>
<linearGradient id="paint1_linear_1246_6269" x1="24.0003" y1="16.6665" x2="24.0003" y2="31.3332" gradientUnits="userSpaceOnUse">
<stop stop-color="#E7E3F4"/>
<stop offset="1" stop-color="#A898DB"/>
</linearGradient>
</defs>
</svg>
