<svg width="32" height="32" viewBox="0 0 32 32" fill="none" xmlns="http://www.w3.org/2000/svg">
<rect x="0.5" y="0.5" width="31" height="31" rx="15.5" stroke="url(#paint0_linear_1119_15341)"/>
<path fill-rule="evenodd" clip-rule="evenodd" d="M12.2678 16.0004C12.2678 18.0617 13.9391 19.7327 16.0004 19.7327C17.1461 19.7327 18.1711 19.2163 18.8558 18.4037L21.6816 20.7822C20.3194 22.399 18.28 23.4265 16.0004 23.4265C11.8989 23.4265 8.57422 20.1016 8.57422 16.0004C8.57422 11.8989 11.8989 8.57422 16.0004 8.57422V12.2678C13.9391 12.2678 12.2678 13.9388 12.2678 16.0004ZM22.4171 19.7398L19.2253 17.8798C19.3342 17.6933 19.4275 17.4966 19.5032 17.2914L22.9699 18.5691C22.8194 18.9775 22.6337 19.3688 22.4171 19.7398ZM19.7329 16.0004H23.4267C23.4267 15.5605 23.3882 15.1296 23.3148 14.7107L19.6767 15.3522C19.7135 15.5628 19.7329 15.7793 19.7329 16.0004ZM21.7087 11.2507L18.8694 13.6131C18.7304 13.4462 18.577 13.2917 18.4112 13.1513L20.797 10.3317C21.1269 10.6111 21.432 10.9185 21.7087 11.2507Z" fill="url(#paint1_linear_1119_15341)"/>
<defs>
<linearGradient id="paint0_linear_1119_15341" x1="1.77778" y1="1.36983e-07" x2="29.1278" y2="32.1747" gradientUnits="userSpaceOnUse">
<stop stop-color="#E7E3F4"/>
<stop offset="1" stop-color="#A898DB"/>
</linearGradient>
<linearGradient id="paint1_linear_1119_15341" x1="9.39935" y1="8.57422" x2="22.0935" y2="23.5076" gradientUnits="userSpaceOnUse">
<stop stop-color="#E7E3F4"/>
<stop offset="1" stop-color="#A898DB"/>
</linearGradient>
</defs>
</svg>
