<svg width="18" height="24" viewBox="0 0 18 24" fill="none" xmlns="http://www.w3.org/2000/svg">
    <mask id="path-1-inside-1_2604_100" fill="white">
        <path fill-rule="evenodd" clip-rule="evenodd" d="M0.719727 8.4C0.719727 3.756 4.58304 0 9.35973 0C14.1364 0 17.9997 3.756 17.9997 8.4C17.9997 14.7 9.35973 24 9.35973 24C9.35973 24 0.719727 14.7 0.719727 8.4ZM9.35941 10.6666C10.5523 10.6666 11.5194 9.77117 11.5194 8.6666C11.5194 7.56203 10.5523 6.6666 9.35941 6.6666C8.16648 6.6666 7.19941 7.56203 7.19941 8.6666C7.19941 9.77117 8.16648 10.6666 9.35941 10.6666Z"/>
    </mask>
    <path fill-rule="evenodd" clip-rule="evenodd" d="M0.719727 8.4C0.719727 3.756 4.58304 0 9.35973 0C14.1364 0 17.9997 3.756 17.9997 8.4C17.9997 14.7 9.35973 24 9.35973 24C9.35973 24 0.719727 14.7 0.719727 8.4ZM9.35941 10.6666C10.5523 10.6666 11.5194 9.77117 11.5194 8.6666C11.5194 7.56203 10.5523 6.6666 9.35941 6.6666C8.16648 6.6666 7.19941 7.56203 7.19941 8.6666C7.19941 9.77117 8.16648 10.6666 9.35941 10.6666Z" fill="#E85A4A"/>
    <path d="M9.35973 24L8.6271 24.6806L9.35973 25.4692L10.0924 24.6806L9.35973 24ZM9.35973 -1C4.0575 -1 -0.280273 3.17734 -0.280273 8.4H1.71973C1.71973 4.33465 5.10858 1 9.35973 1V-1ZM18.9997 8.4C18.9997 3.17734 14.662 -1 9.35973 -1V1C13.6109 1 16.9997 4.33465 16.9997 8.4H18.9997ZM9.35973 24C10.0924 24.6806 10.0925 24.6805 10.0927 24.6803C10.0928 24.6802 10.093 24.6799 10.0932 24.6797C10.0936 24.6793 10.0942 24.6787 10.0948 24.678C10.0962 24.6765 10.098 24.6745 10.1004 24.6719C10.1052 24.6667 10.112 24.6594 10.1208 24.6498C10.1384 24.6306 10.164 24.6027 10.1969 24.5665C10.2628 24.4939 10.3584 24.3879 10.4794 24.2513C10.7214 23.9782 11.0654 23.5829 11.4774 23.0893C12.3006 22.1032 13.3999 20.7197 14.5013 19.1326C15.6006 17.5485 16.7151 15.7429 17.5579 13.9138C18.3945 12.0984 18.9997 10.1831 18.9997 8.4H16.9997C16.9997 9.76691 16.525 11.3766 15.7415 13.0768C14.9644 14.7634 13.9188 16.464 12.8582 17.9924C11.7996 19.5178 10.7389 20.853 9.94205 21.8076C9.54409 22.2843 9.21308 22.6647 8.98255 22.9249C8.86731 23.0549 8.77727 23.1548 8.71661 23.2216C8.68628 23.255 8.6633 23.2801 8.64821 23.2965C8.64066 23.3047 8.63509 23.3107 8.63155 23.3146C8.62978 23.3165 8.62852 23.3178 8.62777 23.3186C8.6274 23.319 8.62716 23.3193 8.62705 23.3194C8.62699 23.3195 8.627 23.3195 8.62698 23.3195C8.62702 23.3195 8.6271 23.3194 9.35973 24ZM-0.280273 8.4C-0.280273 10.1831 0.324977 12.0984 1.16151 13.9138C2.00435 15.7429 3.11881 17.5485 4.21818 19.1326C5.31958 20.7197 6.4189 22.1032 7.24205 23.0893C7.65409 23.5829 7.99808 23.9782 8.24005 24.2513C8.36106 24.3879 8.45664 24.4939 8.52254 24.5665C8.5555 24.6027 8.58104 24.6306 8.59864 24.6498C8.60744 24.6594 8.61426 24.6667 8.61902 24.6719C8.6214 24.6745 8.62327 24.6765 8.62462 24.678C8.6253 24.6787 8.62584 24.6793 8.62626 24.6797C8.62646 24.6799 8.62667 24.6802 8.62678 24.6803C8.62696 24.6805 8.6271 24.6806 9.35973 24C10.0924 23.3194 10.0924 23.3195 10.0925 23.3195C10.0924 23.3195 10.0925 23.3195 10.0924 23.3194C10.0923 23.3193 10.0921 23.319 10.0917 23.3186C10.0909 23.3178 10.0897 23.3165 10.0879 23.3146C10.0844 23.3107 10.0788 23.3047 10.0712 23.2965C10.0561 23.2801 10.0332 23.255 10.0028 23.2216C9.94219 23.1548 9.85214 23.0549 9.7369 22.9249C9.50637 22.6647 9.17536 22.2843 8.7774 21.8076C7.98056 20.853 6.91987 19.5178 5.86128 17.9924C4.80064 16.464 3.7551 14.7634 2.97794 13.0768C2.19448 11.3766 1.71973 9.76691 1.71973 8.4H-0.280273ZM10.5194 8.6666C10.5194 9.14781 10.0739 9.6666 9.35941 9.6666V11.6666C11.0308 11.6666 12.5194 10.3945 12.5194 8.6666H10.5194ZM9.35941 7.6666C10.0739 7.6666 10.5194 8.18539 10.5194 8.6666H12.5194C12.5194 6.93867 11.0308 5.6666 9.35941 5.6666V7.6666ZM8.19941 8.6666C8.19941 8.18539 8.6449 7.6666 9.35941 7.6666V5.6666C7.68806 5.6666 6.19941 6.93867 6.19941 8.6666H8.19941ZM9.35941 9.6666C8.6449 9.6666 8.19941 9.14781 8.19941 8.6666H6.19941C6.19941 10.3945 7.68806 11.6666 9.35941 11.6666V9.6666Z" fill="#D35244" mask="url(#path-1-inside-1_2604_100)"/>
</svg>
