<svg width="12" height="12" viewBox="0 0 12 12" fill="none" xmlns="http://www.w3.org/2000/svg">
<path id="Mask" fill-rule="evenodd" clip-rule="evenodd" d="M6.04443 3.43085C4.51778 3.43085 3.27997 4.66846 3.27997 6.19531C3.27997 7.72197 4.51778 8.95958 6.04443 8.95958C6.89301 8.95958 7.65213 8.57708 8.15919 7.97525L10.2521 9.73682C9.24318 10.9343 7.73277 11.6953 6.04443 11.6953C3.00677 11.6953 0.544434 9.2328 0.544434 6.19531C0.544434 3.15765 3.00677 0.695312 6.04443 0.695312V3.43085ZM10.7969 8.96484L8.43307 7.58726C8.51374 7.44917 8.58282 7.30348 8.63886 7.15148L11.2064 8.0978C11.0949 8.40025 10.9574 8.69007 10.7969 8.96484ZM8.80866 6.1952H11.5444C11.5444 5.86938 11.5159 5.55026 11.4615 5.24L8.76703 5.71511C8.79433 5.87106 8.80866 6.03144 8.80866 6.1952ZM10.2721 2.67752L8.16927 4.42724C8.06629 4.30359 7.95267 4.18916 7.82993 4.08515L9.59691 1.99695C9.84118 2.20386 10.0672 2.43153 10.2721 2.67752Z" fill="white"/>
</svg>
