<svg width="12" height="12" viewBox="0 0 12 12" fill="none" xmlns="http://www.w3.org/2000/svg">
<g id="Icon" clip-path="url(#clip0_7_8446)">
<path id="Vector" d="M10.0779 3.6231C10.0909 3.61554 10.1017 3.6047 10.1092 3.59168C10.1166 3.57865 10.1206 3.56389 10.1206 3.54888C10.1206 3.53386 10.1166 3.5191 10.1092 3.50608C10.1017 3.49305 10.0909 3.48221 10.0779 3.47465L6.79642 1.56812C6.58645 1.44642 6.34807 1.38232 6.10537 1.38232C5.86268 1.38232 5.6243 1.44642 5.41433 1.56812L2.13345 3.47465C2.12048 3.48221 2.10972 3.49305 2.10224 3.50608C2.09476 3.5191 2.09082 3.53386 2.09082 3.54888C2.09082 3.56389 2.09476 3.57865 2.10224 3.59168C2.10972 3.6047 2.12048 3.61554 2.13345 3.6231L6.06251 5.93439C6.07573 5.94218 6.09079 5.94628 6.10613 5.94628C6.12147 5.94628 6.13652 5.94218 6.14974 5.93439L10.0779 3.6231Z" fill="white"/>
<path id="Vector_2" d="M1.76563 4.20732C1.75252 4.19975 1.73765 4.19578 1.72252 4.1958C1.70739 4.19583 1.69253 4.19984 1.67945 4.20745C1.66637 4.21506 1.65553 4.22599 1.64802 4.23913C1.64052 4.25227 1.63662 4.26716 1.63672 4.2823V8.01821C1.63704 8.19825 1.6845 8.37506 1.77435 8.53106C1.86421 8.68707 1.99334 8.81683 2.14891 8.90745L5.63281 10.9964C5.64587 11.0039 5.66068 11.0079 5.67576 11.0079C5.69084 11.0079 5.70565 11.0039 5.71871 10.9964C5.73178 10.9889 5.74263 10.978 5.75017 10.965C5.75772 10.9519 5.7617 10.9371 5.76172 10.922V6.58757C5.7617 6.5725 5.75773 6.5577 5.75019 6.54465C5.74264 6.5316 5.7318 6.52077 5.71875 6.51323L1.76563 4.20732Z" fill="white"/>
<path id="Vector_3" d="M6.44922 6.60272V10.9211C6.44923 10.9362 6.45322 10.951 6.46077 10.964C6.46831 10.9771 6.47916 10.9879 6.49223 10.9954C6.50529 11.003 6.5201 11.0069 6.53518 11.0069C6.55026 11.0069 6.56507 11.003 6.57812 10.9954L10.0618 8.90649C10.2173 8.816 10.3463 8.68641 10.4362 8.53061C10.5261 8.37481 10.5737 8.1982 10.5742 8.01833V4.28241C10.5742 4.26735 10.5702 4.25257 10.5626 4.23955C10.555 4.22653 10.5442 4.21572 10.5311 4.20822C10.5181 4.20071 10.5033 4.19676 10.4882 4.19678C10.4731 4.19679 10.4584 4.20076 10.4453 4.20829L6.49219 6.5286C6.47917 6.53612 6.46835 6.54692 6.46081 6.55993C6.45327 6.57293 6.44927 6.58769 6.44922 6.60272Z" fill="white"/>
</g>
<defs>
<clipPath id="clip0_7_8446">
<rect width="11" height="11" fill="white" transform="translate(0.605469 0.695312)"/>
</clipPath>
</defs>
</svg>
