<svg width="137" height="26" viewBox="0 0 137 26" fill="none" xmlns="http://www.w3.org/2000/svg">
<rect x="0.154762" y="0.154762" width="25.6905" height="25.6905" rx="12.8452" stroke="url(#paint0_linear_7_8478)" stroke-width="0.309524"/>
<path fill-rule="evenodd" clip-rule="evenodd" d="M13.0489 8.9223C10.7699 8.9223 8.92206 10.7698 8.92206 13.0492C8.92206 15.3282 10.7699 17.1757 13.0489 17.1757C14.3157 17.1757 15.4489 16.6047 16.2059 15.7063L19.3302 18.336C17.8241 20.1236 15.5693 21.2597 13.0489 21.2597C8.51422 21.2597 4.83838 17.5836 4.83838 13.0492C4.83838 8.51446 8.51422 4.83862 13.0489 4.83862V8.9223ZM20.1434 17.1835L16.6145 15.127C16.735 14.9209 16.8381 14.7034 16.9217 14.4765L20.7547 15.8892C20.5882 16.3407 20.3829 16.7733 20.1434 17.1835ZM17.1754 13.049H21.2594C21.2594 12.5627 21.2168 12.0863 21.1357 11.6231L17.1133 12.3324C17.154 12.5652 17.1754 12.8046 17.1754 13.049ZM19.3602 7.79761L16.221 10.4096C16.0673 10.225 15.8977 10.0542 15.7144 9.89895L18.3522 6.78162C18.7169 7.0905 19.0543 7.43038 19.3602 7.79761Z" fill="url(#paint1_linear_7_8478)"/>
<path d="M34.644 18V16.376H35.932V9.824H34.644V8.2H38.676C39.992 8.2 40.9907 8.536 41.672 9.208C42.3627 9.87067 42.708 10.86 42.708 12.176V14.024C42.708 15.34 42.3627 16.334 41.672 17.006C40.9907 17.6687 39.992 18 38.676 18H34.644ZM37.78 16.32H38.704C39.4507 16.32 39.9967 16.124 40.342 15.732C40.6873 15.34 40.86 14.7893 40.86 14.08V12.12C40.86 11.4013 40.6873 10.8507 40.342 10.468C39.9967 10.076 39.4507 9.88 38.704 9.88H37.78V16.32ZM44.2482 18V8.2H46.0962V12.092H46.3482L49.5262 8.2H51.8922L47.8042 13.03L52.0322 18H49.5962L46.3482 14.024H46.0962V18H44.2482ZM55.9761 18.196C55.3041 18.196 54.6927 18.0467 54.1421 17.748C53.6007 17.44 53.1667 16.9967 52.8401 16.418C52.5227 15.83 52.3641 15.116 52.3641 14.276V11.924C52.3641 10.664 52.7187 9.698 53.4281 9.026C54.1374 8.34467 55.0987 8.004 56.3121 8.004C57.5161 8.004 58.4447 8.326 59.0981 8.97C59.7607 9.60467 60.0921 10.468 60.0921 11.56V11.616H58.2721V11.504C58.2721 11.1587 58.1974 10.846 58.0481 10.566C57.9081 10.286 57.6934 10.0667 57.4041 9.908C57.1147 9.74 56.7507 9.656 56.3121 9.656C55.6587 9.656 55.1454 9.85667 54.7721 10.258C54.3987 10.6593 54.2121 11.2053 54.2121 11.896V14.304C54.2121 14.9853 54.3987 15.536 54.7721 15.956C55.1454 16.3667 55.6681 16.572 56.3401 16.572C57.0121 16.572 57.5021 16.3947 57.8101 16.04C58.1181 15.6853 58.2721 15.2373 58.2721 14.696V14.556H55.9481V12.988H60.0921V18H58.3841V17.062H58.1321C58.0667 17.2207 57.9594 17.3887 57.8101 17.566C57.6701 17.7433 57.4554 17.8927 57.1661 18.014C56.8767 18.1353 56.4801 18.196 55.9761 18.196ZM65.4123 18V8.2H71.7123V9.88H67.2603V12.218H71.3203V13.898H67.2603V16.32H71.7963V18H65.4123ZM76.0202 18.196C75.4696 18.196 74.9516 18.0607 74.4662 17.79C73.9902 17.51 73.6076 17.104 73.3182 16.572C73.0289 16.04 72.8842 15.396 72.8842 14.64V14.416C72.8842 13.66 73.0289 13.016 73.3182 12.484C73.6076 11.952 73.9902 11.5507 74.4662 11.28C74.9422 11 75.4602 10.86 76.0202 10.86C76.4402 10.86 76.7902 10.9113 77.0702 11.014C77.3596 11.1073 77.5929 11.2287 77.7702 11.378C77.9476 11.5273 78.0829 11.686 78.1762 11.854H78.4282V8.2H80.1922V18H78.4562V17.16H78.2042C78.0456 17.4213 77.7982 17.6593 77.4622 17.874C77.1356 18.0887 76.6549 18.196 76.0202 18.196ZM76.5522 16.656C77.0936 16.656 77.5462 16.4833 77.9102 16.138C78.2742 15.7833 78.4562 15.27 78.4562 14.598V14.458C78.4562 13.786 78.2742 13.2773 77.9102 12.932C77.5556 12.5773 77.1029 12.4 76.5522 12.4C76.0109 12.4 75.5582 12.5773 75.1942 12.932C74.8302 13.2773 74.6482 13.786 74.6482 14.458V14.598C74.6482 15.27 74.8302 15.7833 75.1942 16.138C75.5582 16.4833 76.0109 16.656 76.5522 16.656ZM81.812 14.556V14.332C81.812 13.604 81.9566 12.9833 82.246 12.47C82.5353 11.9473 82.918 11.5507 83.394 11.28C83.8793 11 84.4066 10.86 84.976 10.86C85.6106 10.86 86.0913 10.972 86.418 11.196C86.7446 11.42 86.9826 11.6533 87.132 11.896H87.384V11.056H89.12V19.232C89.12 19.708 88.98 20.086 88.7 20.366C88.42 20.6553 88.0466 20.8 87.58 20.8H82.932V19.26H86.964C87.2253 19.26 87.356 19.12 87.356 18.84V17.034H87.104C87.0106 17.1833 86.88 17.3373 86.712 17.496C86.544 17.6453 86.32 17.7713 86.04 17.874C85.76 17.9767 85.4053 18.028 84.976 18.028C84.4066 18.028 83.8793 17.8927 83.394 17.622C82.918 17.342 82.5353 16.9453 82.246 16.432C81.9566 15.9093 81.812 15.284 81.812 14.556ZM85.48 16.488C86.0213 16.488 86.474 16.3153 86.838 15.97C87.202 15.6247 87.384 15.1393 87.384 14.514V14.374C87.384 13.7393 87.202 13.254 86.838 12.918C86.4833 12.5727 86.0306 12.4 85.48 12.4C84.9386 12.4 84.486 12.5727 84.122 12.918C83.758 13.254 83.576 13.7393 83.576 14.374V14.514C83.576 15.1393 83.758 15.6247 84.122 15.97C84.486 16.3153 84.9386 16.488 85.48 16.488ZM94.2397 18.196C93.549 18.196 92.9377 18.0513 92.4057 17.762C91.883 17.4633 91.4724 17.048 91.1737 16.516C90.8844 15.9747 90.7397 15.34 90.7397 14.612V14.444C90.7397 13.716 90.8844 13.086 91.1737 12.554C91.463 12.0127 91.869 11.5973 92.3917 11.308C92.9144 11.0093 93.521 10.86 94.2117 10.86C94.893 10.86 95.4857 11.014 95.9897 11.322C96.4937 11.6207 96.8857 12.0407 97.1657 12.582C97.4457 13.114 97.5857 13.7347 97.5857 14.444V15.046H92.5317C92.5504 15.522 92.7277 15.9093 93.0637 16.208C93.3997 16.5067 93.8104 16.656 94.2957 16.656C94.7904 16.656 95.1544 16.5487 95.3877 16.334C95.621 16.1193 95.7984 15.8813 95.9197 15.62L97.3617 16.376C97.231 16.6187 97.0397 16.8847 96.7877 17.174C96.545 17.454 96.2184 17.6967 95.8077 17.902C95.397 18.098 94.8744 18.196 94.2397 18.196ZM92.5457 13.73H95.7937C95.7564 13.3287 95.593 13.0067 95.3037 12.764C95.0237 12.5213 94.655 12.4 94.1977 12.4C93.7217 12.4 93.3437 12.5213 93.0637 12.764C92.7837 13.0067 92.611 13.3287 92.5457 13.73ZM102.654 18V8.2H106.168L108.114 16.74H108.366V8.2H110.186V18H106.672L104.726 9.46H104.474V18H102.654ZM115.393 18.196C114.703 18.196 114.082 18.056 113.531 17.776C112.981 17.496 112.547 17.09 112.229 16.558C111.912 16.026 111.753 15.3867 111.753 14.64V14.416C111.753 13.6693 111.912 13.03 112.229 12.498C112.547 11.966 112.981 11.56 113.531 11.28C114.082 11 114.703 10.86 115.393 10.86C116.084 10.86 116.705 11 117.255 11.28C117.806 11.56 118.24 11.966 118.557 12.498C118.875 13.03 119.033 13.6693 119.033 14.416V14.64C119.033 15.3867 118.875 16.026 118.557 16.558C118.24 17.09 117.806 17.496 117.255 17.776C116.705 18.056 116.084 18.196 115.393 18.196ZM115.393 16.628C115.935 16.628 116.383 16.4553 116.737 16.11C117.092 15.7553 117.269 15.2513 117.269 14.598V14.458C117.269 13.8047 117.092 13.3053 116.737 12.96C116.392 12.6053 115.944 12.428 115.393 12.428C114.852 12.428 114.404 12.6053 114.049 12.96C113.695 13.3053 113.517 13.8047 113.517 14.458V14.598C113.517 15.2513 113.695 15.7553 114.049 16.11C114.404 16.4553 114.852 16.628 115.393 16.628ZM123.462 18.196C122.911 18.196 122.393 18.0607 121.908 17.79C121.432 17.51 121.049 17.104 120.76 16.572C120.47 16.04 120.326 15.396 120.326 14.64V14.416C120.326 13.66 120.47 13.016 120.76 12.484C121.049 11.952 121.432 11.5507 121.908 11.28C122.384 11 122.902 10.86 123.462 10.86C123.882 10.86 124.232 10.9113 124.512 11.014C124.801 11.1073 125.034 11.2287 125.212 11.378C125.389 11.5273 125.524 11.686 125.618 11.854H125.87V8.2H127.634V18H125.898V17.16H125.646C125.487 17.4213 125.24 17.6593 124.904 17.874C124.577 18.0887 124.096 18.196 123.462 18.196ZM123.994 16.656C124.535 16.656 124.988 16.4833 125.352 16.138C125.716 15.7833 125.898 15.27 125.898 14.598V14.458C125.898 13.786 125.716 13.2773 125.352 12.932C124.997 12.5773 124.544 12.4 123.994 12.4C123.452 12.4 123 12.5773 122.636 12.932C122.272 13.2773 122.09 13.786 122.09 14.458V14.598C122.09 15.27 122.272 15.7833 122.636 16.138C123 16.4833 123.452 16.656 123.994 16.656ZM132.753 18.196C132.063 18.196 131.451 18.0513 130.919 17.762C130.397 17.4633 129.986 17.048 129.687 16.516C129.398 15.9747 129.253 15.34 129.253 14.612V14.444C129.253 13.716 129.398 13.086 129.687 12.554C129.977 12.0127 130.383 11.5973 130.905 11.308C131.428 11.0093 132.035 10.86 132.725 10.86C133.407 10.86 133.999 11.014 134.503 11.322C135.007 11.6207 135.399 12.0407 135.679 12.582C135.959 13.114 136.099 13.7347 136.099 14.444V15.046H131.045C131.064 15.522 131.241 15.9093 131.577 16.208C131.913 16.5067 132.324 16.656 132.809 16.656C133.304 16.656 133.668 16.5487 133.901 16.334C134.135 16.1193 134.312 15.8813 134.433 15.62L135.875 16.376C135.745 16.6187 135.553 16.8847 135.301 17.174C135.059 17.454 134.732 17.6967 134.321 17.902C133.911 18.098 133.388 18.196 132.753 18.196ZM131.059 13.73H134.307C134.27 13.3287 134.107 13.0067 133.817 12.764C133.537 12.5213 133.169 12.4 132.711 12.4C132.235 12.4 131.857 12.5213 131.577 12.764C131.297 13.0067 131.125 13.3287 131.059 13.73Z" fill="white"/>
<defs>
<linearGradient id="paint0_linear_7_8478" x1="1.44444" y1="1.11299e-07" x2="23.6664" y2="26.1419" gradientUnits="userSpaceOnUse">
<stop stop-color="#E7E3F4"/>
<stop offset="1" stop-color="#A898DB"/>
</linearGradient>
<linearGradient id="paint1_linear_7_8478" x1="5.75066" y1="4.83862" x2="19.7856" y2="21.3494" gradientUnits="userSpaceOnUse">
<stop stop-color="#E7E3F4"/>
<stop offset="1" stop-color="#A898DB"/>
</linearGradient>
</defs>
</svg>
