<svg width="12" height="12" viewBox="0 0 12 12" fill="none" xmlns="http://www.w3.org/2000/svg">
<g id="Icon">
<path id="Oval" fill-rule="evenodd" clip-rule="evenodd" d="M5.73389 7.57031C6.49328 7.57031 7.10889 6.9547 7.10889 6.19531C7.10889 5.43592 6.49328 4.82031 5.73389 4.82031C4.9745 4.82031 4.35889 5.43592 4.35889 6.19531C4.35889 6.9547 4.9745 7.57031 5.73389 7.57031Z" stroke="white" stroke-linecap="round" stroke-linejoin="round"/>
<path id="Shape" fill-rule="evenodd" clip-rule="evenodd" d="M9.12572 7.57048C9.00089 7.85331 9.06079 8.18364 9.27697 8.40464L9.30447 8.43214C9.4766 8.60408 9.57331 8.83739 9.57331 9.08068C9.57331 9.32398 9.4766 9.55729 9.30447 9.72923C9.13253 9.90135 8.89922 9.99807 8.65593 9.99807C8.41263 9.99807 8.17932 9.90135 8.00738 9.72923L7.97988 9.70173C7.75888 9.48555 7.42855 9.42565 7.14572 9.55048C6.86867 9.66922 6.68859 9.94114 6.68738 10.2426V10.3205C6.68738 10.8267 6.27698 11.2371 5.77072 11.2371C5.26446 11.2371 4.85405 10.8267 4.85405 10.3205V10.2792C4.84679 9.96878 4.65049 9.69433 4.35905 9.58714C4.07622 9.46232 3.74589 9.52221 3.52488 9.73839L3.49738 9.76589C3.32545 9.93802 3.09213 10.0347 2.84884 10.0347C2.60555 10.0347 2.37224 9.93802 2.2003 9.76589C2.02817 9.59396 1.93145 9.36064 1.93145 9.11735C1.93145 8.87406 2.02817 8.64075 2.2003 8.46881L2.2278 8.44131C2.44398 8.22031 2.50388 7.88998 2.37905 7.60714C2.26031 7.33009 1.98839 7.15001 1.68697 7.14881H1.60905C1.10279 7.14881 0.692383 6.7384 0.692383 6.23214C0.692383 5.72588 1.10279 5.31548 1.60905 5.31548H1.6503C1.96074 5.30821 2.23519 5.11192 2.34238 4.82048C2.46721 4.53764 2.40731 4.20731 2.19113 3.98631L2.16363 3.95881C1.9915 3.78687 1.89479 3.55356 1.89479 3.31027C1.89479 3.06698 1.9915 2.83366 2.16363 2.66173C2.33557 2.4896 2.56888 2.39288 2.81217 2.39288C3.05547 2.39288 3.28878 2.4896 3.46072 2.66173L3.48822 2.68923C3.70922 2.90541 4.03955 2.9653 4.32238 2.84048H4.35905C4.6361 2.72174 4.81618 2.44981 4.81738 2.14839V2.07048C4.81738 1.56421 5.22779 1.15381 5.73405 1.15381C6.24031 1.15381 6.65072 1.56421 6.65072 2.07048V2.11173C6.65192 2.41314 6.832 2.68507 7.10905 2.80381C7.39188 2.92863 7.72221 2.86874 7.94322 2.65256L7.97072 2.62506C8.14265 2.45293 8.37597 2.35621 8.61926 2.35621C8.86255 2.35621 9.09586 2.45293 9.2678 2.62506C9.43993 2.797 9.53665 3.03031 9.53665 3.2736C9.53665 3.51689 9.43993 3.7502 9.2678 3.92214L9.2403 3.94964C9.02412 4.17064 8.96422 4.50098 9.08905 4.78381V4.82048C9.20779 5.09752 9.47971 5.27761 9.78113 5.27881H9.85905C10.3653 5.27881 10.7757 5.68921 10.7757 6.19548C10.7757 6.70174 10.3653 7.11214 9.85905 7.11214H9.8178C9.51638 7.11334 9.24446 7.29343 9.12572 7.57048Z" stroke="white" stroke-linecap="round" stroke-linejoin="round"/>
</g>
</svg>
