<svg width="69" height="40" viewBox="0 0 69 40" fill="none" xmlns="http://www.w3.org/2000/svg">
<g id="Amazon_Music_logo 1" clip-path="url(#clip0_6850_123310)">
<g id="g923">
<path id="path844" d="M45.5114 17.3077C45.0499 17.6154 44.3576 17.8462 43.5114 17.8462C42.2037 17.8462 40.973 17.6924 39.7422 17.3077C39.4345 17.2308 39.2037 17.1539 39.0499 17.1539C38.8191 17.1539 38.7422 17.3077 38.7422 17.6154V18.3847C38.7422 18.6154 38.8191 18.7693 38.896 18.9231C38.973 19 39.1268 19.1539 39.3576 19.2308C40.5883 19.7693 41.973 20 43.5114 20C45.1268 20 46.3576 19.6154 47.3576 18.8462C48.3576 18.077 48.8191 17.077 48.8191 15.7693C48.8191 14.8462 48.5883 14.1539 48.1268 13.5385C47.6653 13 46.896 12.4616 45.8191 12.077L43.6653 11.2308C42.8191 10.9231 42.2037 10.6154 41.973 10.3077C41.6653 10 41.5114 9.69235 41.5114 9.15389C41.5114 8.00005 42.3576 7.38466 44.1268 7.38466C45.1268 7.38466 46.1268 7.53851 47.0499 7.8462C47.3576 7.92312 47.5883 8.00005 47.6653 8.00005C47.896 8.00005 48.0499 7.8462 48.0499 7.53851V6.76928C48.0499 6.53851 47.973 6.38466 47.896 6.23082C47.8191 6.07697 47.6653 6.00005 47.4345 5.92312C46.2806 5.53851 45.1268 5.30774 43.973 5.30774C42.5114 5.30774 41.2806 5.69235 40.3576 6.38466C39.4345 7.07697 38.973 8.07697 38.973 9.23082C38.973 11 39.973 12.3077 41.973 13.077L44.2806 13.9231C45.0499 14.2308 45.5114 14.4616 45.8191 14.7693C46.1268 15.077 46.2037 15.3847 46.2037 15.8462C46.2037 16.4616 45.973 17 45.5114 17.3077Z" fill="url(#paint0_linear_6850_123310)"/>
<path id="path855" d="M33.4355 6.23084V16.4616C32.1279 17.3078 30.8202 17.7693 29.5125 17.7693C28.6663 17.7693 28.0509 17.5385 27.6663 17.077C27.2817 16.6155 27.1279 15.9232 27.1279 14.9232V6.23084C27.1279 5.84623 26.974 5.69238 26.5894 5.69238H24.974C24.5894 5.69238 24.4355 5.84623 24.4355 6.23084V15.7693C24.4355 17.077 24.7432 18.1539 25.4355 18.8462C26.1279 19.5385 27.1279 19.9232 28.4355 19.9232C30.2048 19.9232 31.974 19.3078 33.6663 18.077L33.8202 19.0001C33.8202 19.2308 33.8971 19.3078 34.0509 19.3847C34.1279 19.4616 34.2817 19.4616 34.5125 19.4616H35.6663C36.0509 19.4616 36.2048 19.3078 36.2048 18.9232V6.23084C36.2048 5.84623 36.0509 5.69238 35.6663 5.69238H34.0509C33.5894 5.69238 33.4355 5.92315 33.4355 6.23084Z" fill="url(#paint1_linear_6850_123310)"/>
<path id="path866" d="M18.8206 19.5385H20.436C20.8206 19.5385 20.9745 19.3847 20.9745 19V9.38466C20.9745 8.07697 20.6668 7.07697 19.9745 6.38466C19.2822 5.69235 18.3591 5.30774 17.0514 5.30774C15.2822 5.30774 13.436 5.92312 11.6668 7.23082C11.0514 5.92312 9.89754 5.30774 8.20523 5.30774C6.51292 5.30774 4.82061 5.92312 3.12831 7.07697L2.97446 6.23082C2.97446 6.00005 2.89754 5.92312 2.74369 5.8462C2.66677 5.76928 2.51292 5.76928 2.35907 5.76928H1.12831C0.74369 5.76928 0.589844 5.92312 0.589844 6.30774V19.077C0.589844 19.4616 0.74369 19.6154 1.12831 19.6154H2.74369C3.12831 19.6154 3.28215 19.4616 3.28215 19.077V8.69235C4.58984 7.92312 5.89754 7.46159 7.28215 7.46159C8.05138 7.46159 8.58984 7.69236 8.89754 8.15389C9.20523 8.61543 9.436 9.23082 9.436 10.1539V19C9.436 19.3847 9.58984 19.5385 9.97446 19.5385H11.5898C11.9745 19.5385 12.1283 19.3847 12.1283 19V9.53851V9.07697C12.1283 8.92312 12.1283 8.76928 12.1283 8.69235C13.5129 7.8462 14.8206 7.46159 16.1283 7.46159C16.8975 7.46159 17.436 7.69236 17.7437 8.15389C18.0514 8.61543 18.2822 9.23082 18.2822 10.1539V19C18.2822 19.3847 18.436 19.5385 18.8206 19.5385Z" fill="url(#paint2_linear_6850_123310)"/>
<path id="path877" d="M60.7429 29.7692C52.3583 33.3077 43.2044 35.0769 34.8967 35.0769C22.5891 35.0769 10.666 31.6923 1.05059 26.0769C0.896747 26 0.742901 25.9231 0.589055 25.9231C0.0505932 25.9231 -0.257099 26.5385 0.281362 27.0769C9.20444 35.1539 21.0506 40 34.1275 40C43.5121 40 54.3583 37.0769 61.8198 31.5385C63.1275 30.6154 62.0506 29.2308 60.7429 29.7692Z" fill="url(#paint3_linear_6850_123310)"/>
<path id="path888" d="M60.5122 8.76926C61.2045 8.00003 62.2814 7.61541 63.8199 7.61541C64.5891 7.61541 65.3583 7.69234 66.0506 7.9231C66.2814 8.00003 66.3583 8.00003 66.5122 8.00003C66.7429 8.00003 66.8968 7.84618 66.8968 7.46157V6.69234C66.8968 6.46157 66.8199 6.2308 66.7429 6.15387C66.666 6.07695 66.5122 5.92311 66.3583 5.84618C65.3583 5.61541 64.3583 5.38464 63.4352 5.38464C61.2814 5.38464 59.666 6.00003 58.4352 7.30772C57.2814 8.53849 56.666 10.3846 56.666 12.6923C56.666 15 57.2045 16.7693 58.3583 18C59.5122 19.2308 61.1276 19.8462 63.2814 19.8462C64.4353 19.8462 65.5122 19.6923 66.3583 19.3077C66.5891 19.2308 66.7429 19.1539 66.8199 19C66.8968 18.9231 66.8968 18.6923 66.8968 18.4616V17.6923C66.8968 17.3077 66.7429 17.1539 66.5122 17.1539C66.4352 17.1539 66.2814 17.1539 66.1276 17.2308C65.2814 17.4616 64.4353 17.6154 63.666 17.6154C62.2045 17.6154 61.1276 17.2308 60.4352 16.4616C59.7429 15.6923 59.4353 14.4616 59.4353 12.8462V12.4616C59.5122 10.7693 59.8199 9.53849 60.5122 8.76926Z" fill="url(#paint4_linear_6850_123310)"/>
<path id="path899" d="M63.9733 37C67.9733 33.6154 69.0502 26.6154 68.2041 25.5384C67.8195 25.0769 65.9733 24.6154 63.6656 24.6154C61.2041 24.6154 58.281 25.1538 56.0502 26.6923C55.3579 27.1538 55.5118 27.7692 56.2041 27.6923C58.5887 27.3846 63.9733 26.7692 64.9733 28C65.8964 29.2307 63.8964 34.3077 62.9733 36.5384C62.7425 37.2307 63.281 37.4615 63.9733 37Z" fill="url(#paint5_linear_6850_123310)"/>
<path id="path910" d="M53.2808 5.69238H51.6654C51.2808 5.69238 51.127 5.84623 51.127 6.23084V19.0001C51.127 19.3847 51.2808 19.5385 51.6654 19.5385H53.2808C53.6654 19.5385 53.8193 19.3847 53.8193 19.0001V6.23084C53.8193 5.92315 53.6654 5.69238 53.2808 5.69238Z" fill="url(#paint6_linear_6850_123310)"/>
<path id="path921" d="M53.7422 0.461539C53.4345 0.153846 52.973 0 52.4345 0C51.896 0 51.5114 0.153846 51.2037 0.461539C50.896 0.769231 50.7422 1.15385 50.7422 1.61538C50.7422 2.07692 50.896 2.53846 51.2037 2.76923C51.5114 3.07692 51.896 3.23077 52.4345 3.23077C52.973 3.23077 53.3576 3.07692 53.6653 2.76923C53.973 2.46154 54.1268 2.07692 54.1268 1.61538C54.1268 1.15385 54.0499 0.692308 53.7422 0.461539Z" fill="url(#paint7_linear_6850_123310)"/>
</g>
</g>
<defs>
<linearGradient id="paint0_linear_6850_123310" x1="14.7679" y1="41.6071" x2="58.4508" y2="-2.07588" gradientUnits="userSpaceOnUse">
<stop stop-color="#0C6CB3"/>
<stop offset="0.2911" stop-color="#1E84C4"/>
<stop offset="0.8873" stop-color="#4CC0EF"/>
<stop offset="1" stop-color="#4CC0EF"/>
</linearGradient>
<linearGradient id="paint1_linear_6850_123310" x1="8.02134" y1="34.8595" x2="51.7043" y2="-8.82344" gradientUnits="userSpaceOnUse">
<stop stop-color="#0C6CB3"/>
<stop offset="0.2911" stop-color="#1E84C4"/>
<stop offset="0.8873" stop-color="#4CC0EF"/>
<stop offset="1" stop-color="#4CC0EF"/>
</linearGradient>
<linearGradient id="paint2_linear_6850_123310" x1="-1.72092" y1="25.1168" x2="41.962" y2="-18.5662" gradientUnits="userSpaceOnUse">
<stop stop-color="#0C6CB3"/>
<stop offset="0.2911" stop-color="#1E84C4"/>
<stop offset="0.8873" stop-color="#4CC0EF"/>
<stop offset="1" stop-color="#4CC0EF"/>
</linearGradient>
<linearGradient id="paint3_linear_6850_123310" x1="16.5052" y1="43.3436" x2="60.1881" y2="-0.33932" gradientUnits="userSpaceOnUse">
<stop stop-color="#0C6CB3"/>
<stop offset="0.2911" stop-color="#1E84C4"/>
<stop offset="0.8873" stop-color="#4CC0EF"/>
<stop offset="1" stop-color="#4CC0EF"/>
</linearGradient>
<linearGradient id="paint4_linear_6850_123310" x1="24.4707" y1="51.3092" x2="68.1537" y2="7.6262" gradientUnits="userSpaceOnUse">
<stop stop-color="#0C6CB3"/>
<stop offset="0.2911" stop-color="#1E84C4"/>
<stop offset="0.8873" stop-color="#4CC0EF"/>
<stop offset="1" stop-color="#4CC0EF"/>
</linearGradient>
<linearGradient id="paint5_linear_6850_123310" x1="32.4919" y1="59.3306" x2="76.1748" y2="15.6477" gradientUnits="userSpaceOnUse">
<stop stop-color="#0C6CB3"/>
<stop offset="0.2911" stop-color="#1E84C4"/>
<stop offset="0.8873" stop-color="#4CC0EF"/>
<stop offset="1" stop-color="#4CC0EF"/>
</linearGradient>
<linearGradient id="paint6_linear_6850_123310" x1="19.1218" y1="45.9608" x2="62.8047" y2="2.27789" gradientUnits="userSpaceOnUse">
<stop stop-color="#0C6CB3"/>
<stop offset="0.2911" stop-color="#1E84C4"/>
<stop offset="0.8873" stop-color="#4CC0EF"/>
<stop offset="1" stop-color="#4CC0EF"/>
</linearGradient>
<linearGradient id="paint7_linear_6850_123310" x1="13.6192" y1="40.4584" x2="57.3022" y2="-3.22457" gradientUnits="userSpaceOnUse">
<stop stop-color="#0C6CB3"/>
<stop offset="0.2911" stop-color="#1E84C4"/>
<stop offset="0.8873" stop-color="#4CC0EF"/>
<stop offset="1" stop-color="#4CC0EF"/>
</linearGradient>
<clipPath id="clip0_6850_123310">
<rect width="68.4738" height="40" fill="white"/>
</clipPath>
</defs>
</svg>
