<svg width="25" height="24" viewBox="0 0 25 24" fill="none" xmlns="http://www.w3.org/2000/svg">
<path d="M5.66663 9H4.66663H5.66663ZM19.6666 9H20.6666H19.6666ZM14.3966 21L15.2616 21.5018L16.1328 20H14.3966V21ZM10.9366 21V20H9.20047L10.0716 21.5018L10.9366 21ZM22.6666 16H2.66663V18H22.6666V16ZM2.66663 18C4.87577 18 6.66663 16.2091 6.66663 14H4.66663C4.66663 15.1046 3.7712 16 2.66663 16V18ZM6.66663 14V9H4.66663V14H6.66663ZM6.66663 9C6.66663 5.68629 9.35292 3 12.6666 3V1C8.24835 1 4.66663 4.58172 4.66663 9H6.66663ZM12.6666 3C15.9803 3 18.6666 5.68629 18.6666 9H20.6666C20.6666 4.58172 17.0849 1 12.6666 1V3ZM18.6666 9V14H20.6666V9H18.6666ZM18.6666 14C18.6666 16.2091 20.4575 18 22.6666 18V16C21.5621 16 20.6666 15.1046 20.6666 14H18.6666ZM13.5316 20.4982C13.3527 20.8066 13.0232 20.9965 12.6666 20.9965V22.9965C13.7362 22.9965 14.7249 22.427 15.2616 21.5018L13.5316 20.4982ZM12.6666 20.9965C12.3101 20.9965 11.9805 20.8066 11.8016 20.4982L10.0716 21.5018C10.6083 22.427 11.597 22.9965 12.6666 22.9965V20.9965ZM10.9366 22H14.3966V20H10.9366V22Z" fill="#FF9100"/>
</svg>
