<svg width="40" height="40" viewBox="0 0 40 40" fill="none" xmlns="http://www.w3.org/2000/svg">
<g id="24/media/book">
<path id="Rectangle" d="M20 9.9999L19.55 9.3999L19.25 9.6249V9.9999H20ZM36.6667 6.66657H37.4167V6.03122L36.79 5.92677L36.6667 6.66657ZM36.6667 33.3332L36.3881 34.0296L37.4167 34.441V33.3332H36.6667ZM20 36.6666H19.25L20.4685 37.2522L20 36.6666ZM20.45 10.5999C23.6153 8.22596 27.6125 7.411 30.8801 7.20678C32.5053 7.1052 33.9284 7.15601 34.9439 7.23218C35.4512 7.27022 35.8555 7.3145 36.1309 7.34893C36.2686 7.36614 36.374 7.38088 36.4438 7.39113C36.4788 7.39625 36.5048 7.40025 36.5215 7.40287C36.5299 7.40419 36.5359 7.40515 36.5396 7.40575C36.5414 7.40604 36.5426 7.40624 36.5433 7.40635C36.5436 7.4064 36.5438 7.40643 36.5438 7.40643C36.5438 7.40643 36.5437 7.40642 36.5437 7.40642C36.5435 7.40639 36.5434 7.40636 36.6667 6.66657C36.79 5.92677 36.7897 5.92673 36.7894 5.92668C36.7893 5.92666 36.7889 5.9266 36.7886 5.92655C36.7881 5.92646 36.7873 5.92633 36.7864 5.92619C36.7846 5.92589 36.7822 5.9255 36.7792 5.92501C36.7732 5.92404 36.7648 5.9227 36.754 5.92101C36.7325 5.91763 36.7016 5.91288 36.6616 5.90702C36.5817 5.89529 36.4658 5.87911 36.317 5.86051C36.0195 5.82333 35.5905 5.77646 35.0561 5.73638C33.9883 5.65629 32.4947 5.60294 30.7866 5.7097C27.3875 5.92214 23.0514 6.77385 19.55 9.3999L20.45 10.5999ZM35.9167 6.66657V33.3332H37.4167V6.66657H35.9167ZM36.6667 33.3332C36.9452 32.6369 36.9448 32.6367 36.9444 32.6366C36.9442 32.6365 36.9438 32.6363 36.9434 32.6362C36.9427 32.6359 36.9418 32.6355 36.9409 32.6351C36.9389 32.6344 36.9364 32.6334 36.9334 32.6322C36.9275 32.6299 36.9195 32.6268 36.9095 32.623C36.8895 32.6154 36.8616 32.6049 36.8259 32.5921C36.7545 32.5663 36.6522 32.5307 36.5209 32.4887C36.2584 32.4047 35.8798 32.2948 35.4015 32.1854C34.4456 31.9669 33.0868 31.7499 31.4583 31.7499C28.1935 31.7499 23.8531 32.6236 19.5315 36.0809L20.4685 37.2522C24.4802 34.0429 28.4732 33.2499 31.4583 33.2499C32.9549 33.2499 34.2003 33.4495 35.0673 33.6477C35.5004 33.7467 35.8379 33.8451 36.0637 33.9173C36.1766 33.9535 36.2614 33.983 36.3162 34.0028C36.3436 34.0127 36.3634 34.0201 36.3755 34.0247C36.3815 34.027 36.3856 34.0286 36.3878 34.0295C36.3888 34.0299 36.3894 34.0301 36.3894 34.0301C36.3895 34.0301 36.3894 34.0301 36.3892 34.03C36.389 34.03 36.3888 34.0299 36.3887 34.0298C36.3884 34.0297 36.3881 34.0296 36.6667 33.3332ZM20.75 36.6666C20.75 28.3314 20.75 28.335 20.75 9.9999H19.25C19.25 28.3326 19.25 28.3338 19.25 36.6666H20.75Z" fill="white"/>
<path id="Rectangle_2" d="M20 9.9999L20.45 9.3999L20.75 9.6249V9.9999H20ZM3.33333 6.66657H2.58333V6.03122L3.21004 5.92677L3.33333 6.66657ZM3.33333 33.3332L3.61188 34.0296L2.58333 34.441V33.3332H3.33333ZM20 36.6666H20.75L19.5315 37.2522L20 36.6666ZM19.55 10.5999C16.3847 8.22596 12.3875 7.411 9.11988 7.20678C7.49473 7.1052 6.07161 7.15601 5.05609 7.23218C4.54881 7.27022 4.14451 7.3145 3.86907 7.34893C3.73138 7.36614 3.626 7.38088 3.55615 7.39113C3.52124 7.39625 3.49521 7.40025 3.47849 7.40287C3.47013 7.40419 3.46409 7.40515 3.46043 7.40575C3.4586 7.40604 3.45737 7.40624 3.45673 7.40635C3.45641 7.4064 3.45625 7.40643 3.45623 7.40643C3.45622 7.40643 3.45632 7.40642 3.45632 7.40642C3.45646 7.40639 3.45663 7.40636 3.33333 6.66657C3.21004 5.92677 3.21029 5.92673 3.21058 5.92668C3.21073 5.92666 3.21106 5.9266 3.21135 5.92655C3.21194 5.92646 3.21269 5.92633 3.21359 5.92619C3.21538 5.92589 3.21778 5.9255 3.22079 5.92501C3.22679 5.92404 3.2352 5.9227 3.24596 5.92101C3.26748 5.91763 3.29843 5.91288 3.33838 5.90702C3.41827 5.89529 3.53424 5.87911 3.68302 5.86051C3.98049 5.82333 4.40953 5.77646 4.94391 5.73638C6.01172 5.65629 7.50527 5.60294 9.21345 5.7097C12.6125 5.92214 16.9486 6.77385 20.45 9.3999L19.55 10.5999ZM4.08333 6.66657V33.3332H2.58333V6.66657H4.08333ZM3.33333 33.3332C3.05479 32.6369 3.05517 32.6367 3.05559 32.6366C3.05577 32.6365 3.05622 32.6363 3.05658 32.6362C3.05731 32.6359 3.05816 32.6355 3.05914 32.6351C3.06111 32.6344 3.06358 32.6334 3.06656 32.6322C3.07252 32.6299 3.08051 32.6268 3.0905 32.623C3.11047 32.6154 3.13842 32.6049 3.17411 32.5921C3.24548 32.5663 3.34783 32.5307 3.4791 32.4887C3.74157 32.4047 4.12019 32.2948 4.59851 32.1854C5.55443 31.9669 6.91322 31.7499 8.54167 31.7499C11.8065 31.7499 16.1469 32.6236 20.4685 36.0809L19.5315 37.2522C15.5198 34.0429 11.5268 33.2499 8.54167 33.2499C7.04512 33.2499 5.79974 33.4495 4.93274 33.6477C4.4996 33.7467 4.16208 33.8451 3.93626 33.9173C3.8234 33.9535 3.73857 33.983 3.6838 34.0028C3.65642 34.0127 3.63657 34.0201 3.62449 34.0247C3.61845 34.027 3.61436 34.0286 3.61225 34.0295C3.61119 34.0299 3.61063 34.0301 3.61057 34.0301C3.61053 34.0301 3.61063 34.0301 3.61085 34.03C3.61095 34.03 3.61121 34.0299 3.61127 34.0298C3.61156 34.0297 3.61188 34.0296 3.33333 33.3332ZM19.25 36.6666C19.25 28.3314 19.25 28.335 19.25 9.9999H20.75C20.75 28.3326 20.75 28.3338 20.75 36.6666H19.25Z" fill="white"/>
</g>
</svg>
