<svg width="40" height="40" viewBox="0 0 40 40" fill="none" xmlns="http://www.w3.org/2000/svg">
<path d="M25.0994 12.7408C25.0583 12.6205 25.0116 12.5059 24.957 12.3975C25.0291 12.5206 25.0758 12.6357 25.0994 12.7408Z" fill="white"/>
<path d="M20.1558 1.66718C9.90162 1.71404 1.62648 10.0924 1.67206 20.3832C1.71877 30.673 10.0693 38.9768 20.3235 38.931C30.5776 38.8842 38.8528 30.5058 38.8072 20.2161C38.7605 9.92526 30.4111 1.622 20.1558 1.66718ZM17.8054 19.3855C15.971 19.3855 14.4843 17.8948 14.4843 16.0546C14.4843 14.2155 15.971 12.7237 17.8054 12.7237C19.6381 12.7237 21.1248 14.2155 21.1248 16.0546C21.1248 17.8954 19.6381 19.3855 17.8054 19.3855ZM20.4523 22.9863L20.4698 22.9649L20.4883 22.9434C21.4359 23.5566 22.5169 23.7729 23.5979 23.8051C24.6799 23.8333 25.7823 23.7514 26.8666 23.5323C27.9498 23.3065 29.015 22.9728 30.0436 22.5464C30.6215 22.3076 31.1949 22.0467 31.7419 21.7395C31.7458 21.7367 31.7486 21.7356 31.7526 21.7328C32.0936 21.5272 32.4261 21.311 32.7519 21.0879C32.8223 21.0371 32.8915 20.984 32.9596 20.9293L32.9674 20.9389L32.9956 20.9722C32.1611 21.735 31.1668 22.3014 30.1551 22.8005C29.1326 23.2839 28.0669 23.6791 26.9662 23.9654C25.8695 24.25 24.7233 24.4651 23.5641 24.3596C22.4241 24.2579 21.2204 23.8576 20.4523 22.9863ZM28.9722 19.3855C28.9711 18.9863 29.2919 18.6627 29.6886 18.6605C30.0864 18.6594 30.4088 18.9795 30.4111 19.3793C30.4122 19.7774 30.0915 20.1032 29.6948 20.1043C29.2986 20.1054 28.9751 19.7836 28.9722 19.3855ZM23.285 37.2563C22.5675 32.2145 26.9561 27.2766 29.4303 24.7492C29.9919 24.176 30.8596 23.3867 31.6676 22.5481C34.8795 19.5351 35.5182 15.9343 28.9458 14.1336C27.7 13.7717 26.4091 13.259 25.1003 12.7406C25.0592 12.6204 25.0125 12.5057 24.9579 12.3973C24.8077 12.1381 24.5454 11.8389 24.1471 11.4995C23.2923 10.7553 21.6875 10.7756 20.3015 11.1043C18.7693 10.7423 17.2573 10.6141 15.8055 10.9625C9.44864 12.7203 8.42621 15.8321 8.17862 19.5803C7.84212 23.6311 7.64461 26.6498 6.11687 30.0998C4.2093 27.3392 3.08501 23.9908 3.07038 20.3765C3.02818 10.8615 10.6804 3.11382 20.1625 3.07091C29.6447 3.028 37.3661 10.7067 37.4083 20.2218C37.4471 28.7204 31.344 35.8113 23.285 37.2563Z" fill="white"/>
<path d="M20.1392 16.0849C20.1392 17.3791 19.0931 18.4277 17.8045 18.4277C16.5148 18.4277 15.4688 17.3791 15.4688 16.0849C15.4688 14.7908 16.5148 13.7422 17.8045 13.7422C19.0926 13.7428 20.1392 14.7908 20.1392 16.0849Z" fill="white"/>
</svg>
