<svg width="40" height="40" viewBox="0 0 40 40" fill="none" xmlns="http://www.w3.org/2000/svg">
<path d="M34.5043 24.5722C34.2054 24.7782 33.8564 24.8997 33.4942 24.9241C33.132 24.9484 32.77 24.8746 32.4462 24.7104C31.6862 24.281 31.2765 23.2742 31.2765 21.9022V17.6972C31.2765 15.6786 30.477 14.2424 29.1395 13.8525C26.8791 13.1912 25.1912 15.9599 24.5397 17.0013L20.542 23.4716V15.575C20.4976 13.7538 19.9053 12.6631 18.785 12.3373C18.0447 12.1202 16.9342 12.209 15.8534 13.8575L6.91534 28.2047C5.7261 25.9294 5.10947 23.3985 5.11885 20.8312C5.11885 12.1844 12.0284 5.15139 20.542 5.15139C29.0556 5.15139 35.9898 12.1844 35.9898 20.8312V20.8756C35.9898 20.8756 35.9898 20.9052 35.9898 20.92C36.0737 22.5931 35.5308 23.9257 34.5092 24.5722H34.5043ZM39.4397 20.8361V20.7522C39.3706 10.2151 30.9212 1.66699 20.542 1.66699C10.1628 1.66699 1.66406 10.2645 1.66406 20.8312C1.66406 31.3979 10.1332 40.0003 20.542 40.0003C25.3159 40.0001 29.9082 38.1702 33.3741 34.8872C33.7105 34.5703 33.9085 34.1335 33.9251 33.6716C33.9417 33.2097 33.7757 32.7599 33.4629 32.4195C33.3132 32.254 33.1323 32.1197 32.9305 32.0243C32.7288 31.929 32.5101 31.8744 32.2872 31.8639C32.0643 31.8533 31.8415 31.887 31.6316 31.9628C31.4217 32.0387 31.2289 32.1553 31.0643 32.306C29.5721 33.7215 27.8093 34.8208 25.8817 35.538C23.9541 36.2551 21.9015 36.5754 19.847 36.4795C17.7926 36.3837 15.7786 35.8736 13.9262 34.98C12.0738 34.0864 10.421 32.8277 9.06718 31.2795L17.1119 18.3487V24.3156C17.1119 27.1831 18.2224 28.1109 19.1552 28.3824C20.0879 28.6538 21.5143 28.4663 23.0097 26.038L27.4516 18.8472C27.5898 18.6152 27.723 18.4178 27.8415 18.245V21.9022C27.8415 24.5821 28.9174 26.7241 30.8027 27.7802C31.66 28.243 32.626 28.4666 33.5995 28.4276C34.5729 28.3885 35.5179 28.0882 36.3353 27.5582C38.4082 26.2108 39.5384 23.7727 39.42 20.8361H39.4397Z" fill="white"/>
</svg>
