<svg width="40" height="40" viewBox="0 0 40 40" fill="none" xmlns="http://www.w3.org/2000/svg">
<path fill-rule="evenodd" clip-rule="evenodd" d="M28.7246 33.1846C28.7246 33.1846 27.5944 31.8347 26.6526 30.6418C30.7651 29.4802 32.3347 26.906 32.3347 26.906C31.0476 27.7536 29.8233 28.3501 28.7246 28.7582C27.1549 29.4175 25.6481 29.857 24.1726 30.1081C21.1589 30.6732 18.3964 30.5162 16.0419 30.0767C14.2525 29.7314 12.7143 29.2291 11.4272 28.7268C10.7052 28.4443 9.92034 28.099 9.13552 27.6595C9.04135 27.5967 8.94717 27.5653 8.85299 27.5025C8.7902 27.4711 8.75881 27.4397 8.72742 27.4083C8.16235 27.0944 7.84842 26.8746 7.84842 26.8746C7.84842 26.8746 9.35527 29.3861 13.3421 30.579C12.4004 31.7719 11.2388 33.1846 11.2388 33.1846C4.30105 32.9648 1.66406 28.4129 1.66406 28.4129C1.66406 18.3044 6.18461 10.1109 6.18461 10.1109C10.7052 6.72054 15.006 6.81471 15.006 6.81471L15.3199 7.19143C9.6692 8.82385 7.06361 11.3039 7.06361 11.3039C7.06361 11.3039 7.75424 10.9272 8.91577 10.3935C12.2748 8.91802 14.9432 8.50992 16.0419 8.41574C16.2303 8.38435 16.3872 8.35296 16.5756 8.35296C18.4905 8.10181 20.6566 8.03903 22.9169 8.29017C25.8992 8.63549 29.1013 9.51449 32.3661 11.3039C32.3661 11.3039 29.8861 8.94942 24.5493 7.317L24.9888 6.81471C24.9888 6.81471 29.2896 6.72054 33.8102 10.1109C33.8102 10.1109 38.3307 18.3044 38.3307 28.4129C38.3307 28.4129 35.6623 32.9648 28.7246 33.1846ZM25.5853 18.5242C23.7959 18.5242 22.3832 20.0938 22.3832 22.0088C22.3832 23.9237 23.8273 25.4934 25.5853 25.4934C27.3747 25.4934 28.7874 23.9237 28.7874 22.0088C28.7874 20.0938 27.3747 18.5242 25.5853 18.5242ZM14.127 18.5242C12.3376 18.5242 10.9249 20.0938 10.9249 22.0088C10.9249 23.9237 12.369 25.4934 14.127 25.4934C15.9163 25.4934 17.329 23.9237 17.329 22.0088C17.3604 20.0938 15.9163 18.5242 14.127 18.5242Z" fill="white"/>
</svg>
