<svg width="100" height="49" viewBox="0 0 100 49" fill="none" xmlns="http://www.w3.org/2000/svg">
<circle cx="22" cy="24.5" r="22" fill="white"/>
<path fill-rule="evenodd" clip-rule="evenodd" d="M64.9421 24.5C64.9421 30.6066 69.8934 35.5571 76 35.5571C79.3943 35.5571 82.4308 34.0271 84.459 31.6198L92.8306 38.666C88.795 43.4558 82.7534 46.5 76 46.5C63.8493 46.5 54 36.65 54 24.5C54 12.3493 63.8493 2.5 76 2.5V13.4421C69.8934 13.4421 64.9421 18.3926 64.9421 24.5ZM95.0097 35.5782L85.5542 30.0679C85.8769 29.5155 86.1532 28.9327 86.3773 28.3247L96.6476 32.11C96.2015 33.3198 95.6515 34.4791 95.0097 35.5782ZM87.0571 24.5H98C98 23.1967 97.8859 21.9202 97.6685 20.6792L86.8905 22.5797C86.9997 23.2034 87.0571 23.845 87.0571 24.5ZM92.9111 10.4288L84.4997 17.4277C84.0878 16.9331 83.6333 16.4753 83.1423 16.0593L90.2103 7.70651C91.1874 8.53414 92.0915 9.44484 92.9111 10.4288Z" fill="white"/>
</svg>
