<svg width="152" height="49" viewBox="0 0 152 49" fill="none" xmlns="http://www.w3.org/2000/svg">
<circle cx="22" cy="24.5" r="22" fill="white"/>
<circle cx="74" cy="24.5" r="22" fill="white"/>
<path fill-rule="evenodd" clip-rule="evenodd" d="M116.942 24.5C116.942 30.6066 121.893 35.5571 128 35.5571C131.394 35.5571 134.431 34.0271 136.459 31.6198L144.831 38.666C140.795 43.4558 134.753 46.5 128 46.5C115.849 46.5 106 36.65 106 24.5C106 12.3493 115.849 2.5 128 2.5V13.4421C121.893 13.4421 116.942 18.3926 116.942 24.5ZM147.01 35.5782L137.554 30.0679C137.877 29.5155 138.153 28.9327 138.377 28.3247L148.648 32.11C148.202 33.3198 147.652 34.4791 147.01 35.5782ZM139.057 24.5H150C150 23.1967 149.886 21.9202 149.669 20.6792L138.891 22.5797C139 23.2034 139.057 23.845 139.057 24.5ZM144.911 10.4288L136.5 17.4277C136.088 16.9331 135.633 16.4753 135.142 16.0593L142.21 7.70651C143.187 8.53414 144.091 9.44484 144.911 10.4288Z" fill="white"/>
</svg>
