<svg width="41" height="40" viewBox="0 0 41 40" fill="none" xmlns="http://www.w3.org/2000/svg">
<path fill-rule="evenodd" clip-rule="evenodd" d="M20.0002 0.491211C8.95637 0.491211 0 9.44635 0 20.4939C0 29.3311 5.73065 36.8275 13.6789 39.4724C14.6797 39.6566 15.0443 39.039 15.0443 38.5085C15.0443 38.0345 15.0272 36.7759 15.0173 35.1072C9.45368 36.3155 8.27979 32.4255 8.27979 32.4255C7.36991 30.1145 6.05851 29.4993 6.05851 29.4993C4.24243 28.2592 6.19603 28.2837 6.19603 28.2837C8.20366 28.4249 9.25967 30.3454 9.25967 30.3454C11.0438 33.4016 13.9417 32.5188 15.0812 32.0067C15.2629 30.715 15.7799 29.8333 16.3508 29.3336C11.9095 28.8289 7.23976 27.1123 7.23976 19.4477C7.23976 17.2645 8.01948 15.4778 9.29896 14.0805C9.09267 13.5746 8.40627 11.5399 9.49542 8.78697C9.49542 8.78697 11.174 8.24914 14.9952 10.8376C16.5903 10.3931 18.302 10.172 20.0026 10.1635C21.7021 10.172 23.4126 10.3931 25.0101 10.8376C28.8289 8.24914 30.505 8.78697 30.505 8.78697C31.5966 11.5399 30.9102 13.5746 30.7051 14.0805C31.987 15.4778 32.7606 17.2645 32.7606 19.4477C32.7606 27.1319 28.0835 28.8228 23.6287 29.3176C24.3458 29.9353 24.9855 31.1558 24.9855 33.0222C24.9855 35.6954 24.9609 37.8528 24.9609 38.5085C24.9609 39.0439 25.322 39.6664 26.3362 39.4712C34.2783 36.8201 40.0041 29.3287 40.0041 20.4939C40.0041 9.44635 31.0477 0.491211 20.0002 0.491211Z" fill="white"/>
</svg>
