<svg width="41" height="40" viewBox="0 0 41 40" fill="none" xmlns="http://www.w3.org/2000/svg">
<path fill-rule="evenodd" clip-rule="evenodd" d="M20.9963 0.491211C9.95247 0.491211 0.996094 9.44635 0.996094 20.4939C0.996094 29.3311 6.72675 36.8275 14.675 39.4724C15.6758 39.6566 16.0404 39.039 16.0404 38.5085C16.0404 38.0345 16.0233 36.7759 16.0134 35.1072C10.4498 36.3155 9.27589 32.4255 9.27589 32.4255C8.36601 30.1145 7.0546 29.4993 7.0546 29.4993C5.23852 28.2592 7.19213 28.2837 7.19213 28.2837C9.19976 28.4249 10.2558 30.3454 10.2558 30.3454C12.0399 33.4016 14.9378 32.5188 16.0773 32.0067C16.259 30.715 16.776 29.8333 17.3469 29.3336C12.9056 28.8289 8.23585 27.1123 8.23585 19.4477C8.23585 17.2645 9.01557 15.4778 10.2951 14.0805C10.0888 13.5746 9.40236 11.5399 10.4915 8.78697C10.4915 8.78697 12.1701 8.24914 15.9913 10.8376C17.5864 10.3931 19.2981 10.172 20.9987 10.1635C22.6982 10.172 24.4086 10.3931 26.0062 10.8376C29.825 8.24914 31.5011 8.78697 31.5011 8.78697C32.5927 11.5399 31.9063 13.5746 31.7012 14.0805C32.9831 15.4778 33.7567 17.2645 33.7567 19.4477C33.7567 27.1319 29.0796 28.8228 24.6248 29.3176C25.3419 29.9353 25.9816 31.1558 25.9816 33.0222C25.9816 35.6954 25.957 37.8528 25.957 38.5085C25.957 39.0439 26.318 39.6664 27.3323 39.4712C35.2744 36.8201 41.0002 29.3287 41.0002 20.4939C41.0002 9.44635 32.0438 0.491211 20.9963 0.491211Z" fill="#0C0C0C"/>
</svg>
