<svg width="40" height="40" viewBox="0 0 40 40" fill="none" xmlns="http://www.w3.org/2000/svg">
<path fill-rule="evenodd" clip-rule="evenodd" d="M35.2804 3.33301H4.72483C3.89149 3.33301 3.33594 3.88856 3.33594 4.7219V35.2775C3.33594 36.1108 3.89149 36.6663 4.72483 36.6663H35.2804C36.1137 36.6663 36.6693 36.1108 36.6693 35.2775V4.7219C36.6693 3.88856 36.1137 3.33301 35.2804 3.33301ZM13.197 31.8052H8.33594V15.833H13.3359V31.8052H13.197ZM31.8082 31.8052H26.8082V24.0275C26.8082 22.2219 26.8082 19.8608 24.3082 19.8608C21.6693 19.8608 21.3915 21.8052 21.3915 23.8886V31.8052H16.3915V15.833H21.1137V18.0552C21.8082 16.8052 23.3359 15.5552 25.8359 15.5552C30.8359 15.5552 31.8082 18.8886 31.8082 23.1941V31.8052ZM10.697 13.6108C9.16927 13.6108 7.78038 12.3608 7.78038 10.6941C7.78038 9.16634 9.03038 7.77745 10.697 7.77745C12.2248 7.77745 13.6137 9.02745 13.6137 10.6941C13.6137 12.3608 12.3637 13.6108 10.697 13.6108Z" fill="white"/>
</svg>
