<svg width="40" height="40" viewBox="0 0 40 40" fill="none" xmlns="http://www.w3.org/2000/svg">
<path d="M12.0053 29.9043C17.7167 29.9043 22.3463 25.2424 22.3463 19.4921C22.3463 13.7417 17.7163 9.08016 12.0053 9.08016C6.29434 9.08016 1.66406 13.7417 1.66406 19.4921C1.66406 25.2424 6.29399 29.9043 12.0053 29.9043ZM28.5196 29.2944C31.3753 29.2944 33.6903 24.9062 33.6903 19.4921H33.6906C33.6906 14.0793 31.3756 9.68973 28.52 9.68973C25.6643 9.68973 23.3493 14.0793 23.3493 19.4921C23.3493 24.9048 25.6639 29.2944 28.5196 29.2944ZM36.5122 28.2734C37.5163 28.2734 38.3307 24.3419 38.3307 19.4921C38.3307 14.6436 37.5167 10.7107 36.5122 10.7107C35.5077 10.7107 34.694 14.6425 34.694 19.4921C34.694 24.3416 35.5081 28.2734 36.5122 28.2734Z" fill="white"/>
</svg>
