<svg width="384" height="384" viewBox="0 0 384 384" fill="none" xmlns="http://www.w3.org/2000/svg">
<g clip-path="url(#clip0_6039_107340)">
<path d="M13.334 93.3333V26.6667H20.3684L62.4824 72.4183V26.6667H67.388V93.3333H60.2611L18.2396 47.4883V93.3333H13.334ZM62.4824 88.3847V79.2344L18.2396 31.6153V40.859L62.4824 88.3847Z" fill="black"/>
<path d="M13.334 225.333V158.667H20.3684L62.4824 204.418V158.667H67.388V225.333H60.2611L18.2396 179.488V225.333H13.334ZM62.4824 220.385V211.234L18.2396 163.615V172.859L62.4824 220.385Z" fill="black"/>
<path d="M13.334 357.333V290.667H20.3684L62.4824 336.418V290.667H67.388V357.333H60.2611L18.2396 311.488V357.333H13.334ZM62.4824 352.385V343.234L18.2396 295.615V304.859L62.4824 352.385Z" fill="black"/>
<path d="M165.334 93.3333V26.6667H172.368L214.482 72.4183V26.6667H219.388V93.3333H212.261L170.24 47.4883V93.3333H165.334ZM214.482 88.3847V79.2344L170.24 31.6153V40.859L214.482 88.3847Z" fill="black"/>
<path d="M165.334 225.333V158.667H172.368L214.482 204.418V158.667H219.388V225.333H212.261L170.24 179.488V225.333H165.334ZM214.482 220.385V211.234L170.24 163.615V172.859L214.482 220.385Z" fill="black"/>
<path d="M165.334 357.333V290.667H172.368L214.482 336.418V290.667H219.388V357.333H212.261L170.24 311.488V357.333H165.334ZM214.482 352.385V343.234L170.24 295.615V304.859L214.482 352.385Z" fill="black"/>
<path d="M317.334 93.3333V26.6667H324.368L366.482 72.4183V26.6667H371.388V93.3333H364.261L322.24 47.4883V93.3333H317.334ZM366.482 88.3847V79.2344L322.24 31.6153V40.859L366.482 88.3847Z" fill="black"/>
<path d="M317.334 225.333V158.667H324.368L366.482 204.418V158.667H371.388V225.333H364.261L322.24 179.488V225.333H317.334ZM366.482 220.385V211.234L322.24 163.615V172.859L366.482 220.385Z" fill="black"/>
<path d="M317.334 357.333V290.667H324.368L366.482 336.418V290.667H371.388V357.333H364.261L322.24 311.488V357.333H317.334ZM366.482 352.385V343.234L322.24 295.615V304.859L366.482 352.385Z" fill="black"/>
</g>
<defs>
<clipPath id="clip0_6039_107340">
<rect width="384" height="384" fill="white"/>
</clipPath>
</defs>
</svg>
