<svg width="48" height="49" viewBox="0 0 48 49" fill="none" xmlns="http://www.w3.org/2000/svg">
<g id="24/brand/origintrail">
<path id="Mask" fill-rule="evenodd" clip-rule="evenodd" d="M12.9421 24.5C12.9421 30.6066 17.8934 35.5571 24 35.5571C27.3943 35.5571 30.4308 34.0271 32.459 31.6198L40.8306 38.666C36.795 43.4558 30.7534 46.5 24 46.5C11.8493 46.5 2 36.65 2 24.5C2 12.3493 11.8493 2.5 24 2.5V13.4421C17.8934 13.4421 12.9421 18.3926 12.9421 24.5ZM43.0097 35.5782L33.5542 30.0679C33.8769 29.5155 34.1532 28.9327 34.3773 28.3247L44.6476 32.11C44.2015 33.3198 43.6515 34.4791 43.0097 35.5782ZM35.0571 24.5H46C46 23.1967 45.8859 21.9202 45.6685 20.6792L34.8905 22.5797C34.9997 23.2034 35.0571 23.845 35.0571 24.5ZM40.9111 10.4288L32.4997 17.4277C32.0878 16.9331 31.6333 16.4753 31.1423 16.0593L38.2103 7.70651C39.1874 8.53414 40.0915 9.44484 40.9111 10.4288Z" fill="white"/>
</g>
</svg>
