<svg width="213" height="213" viewBox="0 0 213 213" fill="none" xmlns="http://www.w3.org/2000/svg">
<path fill-rule="evenodd" clip-rule="evenodd" d="M57.6657 106.453C57.6657 133.447 79.5522 155.33 106.546 155.33C121.55 155.33 134.973 148.567 143.939 137.926L180.945 169.073C163.105 190.246 136.399 203.702 106.546 203.702C52.8351 203.702 9.29688 160.161 9.29688 106.453C9.29688 52.7423 52.8351 9.2041 106.546 9.2041V57.573C79.5522 57.573 57.6657 79.4559 57.6657 106.453ZM190.578 155.423L148.781 131.065C150.207 128.624 151.429 126.048 152.42 123.36L197.818 140.093C195.847 145.44 193.415 150.565 190.578 155.423ZM155.425 106.453H203.797C203.797 100.692 203.293 95.0497 202.332 89.5637L154.689 97.9646C155.172 100.722 155.425 103.558 155.425 106.453ZM181.302 44.2529L144.12 75.1907C142.299 73.0045 140.29 70.981 138.119 69.1421L169.363 32.2191C173.682 35.8776 177.678 39.9033 181.302 44.2529Z" fill="#6344DF"/>
</svg>
