<svg width="40" height="40" viewBox="0 0 40 40" fill="none" xmlns="http://www.w3.org/2000/svg">
<g id="Podcasts_(iOS) 1" clip-path="url(#clip0_6850_123320)">
<g id="XMLID_632_">
<path id="XMLID_662_" fill-rule="evenodd" clip-rule="evenodd" d="M39.2133 34.6667C38.8267 35.6533 37.9333 37.04 36.6533 38.0267C35.92 38.5867 35.04 39.1333 33.84 39.4933C32.56 39.88 30.9733 40 29 40H11C9.02667 40 7.45333 39.8667 6.16 39.4933C4.96 39.1333 4.08 38.6 3.34667 38.0267C2.08 37.0533 1.17333 35.6533 0.786667 34.6667C0.0133333 32.68 0 30.4267 0 29V11C0 9.57333 0.0133333 7.32 0.786667 5.33333C1.17333 4.34667 2.06667 2.96 3.34667 1.97333C4.08 1.41333 4.96 0.866667 6.16 0.506667C7.45333 0.133333 9.02667 0 11 0H29C30.9733 0 32.5467 0.133333 33.84 0.506667C35.04 0.866667 35.92 1.4 36.6533 1.97333C37.92 2.94667 38.8267 4.34667 39.2133 5.33333C40 7.32 40 9.58667 40 11V29C40 30.4267 39.9867 32.68 39.2133 34.6667Z" fill="url(#paint0_linear_6850_123320)"/>
<g id="Group">
<path id="XMLID_657_" d="M23.4269 24.1466C23.3736 23.6666 23.2136 23.32 22.8936 23C22.2936 22.3733 21.2402 21.96 20.0002 21.96C18.7602 21.96 17.7069 22.36 17.1069 23C16.8002 23.3333 16.6269 23.6666 16.5736 24.1466C16.4669 25.08 16.5336 25.88 16.6402 27.1733C16.7469 28.4 16.9469 30.04 17.2002 31.6933C17.3869 32.88 17.5336 33.52 17.6669 33.9733C17.8936 34.72 18.7069 35.36 20.0002 35.36C21.2936 35.36 22.1202 34.7066 22.3336 33.9733C22.4669 33.52 22.6136 32.88 22.8002 31.6933C23.0536 30.0266 23.2536 28.4 23.3602 27.1733C23.4802 25.88 23.5336 25.08 23.4269 24.1466Z" fill="white"/>
<path id="XMLID_655_" d="M23.2788 17.3467C23.2788 19.16 21.8121 20.6266 19.9987 20.6266C18.1854 20.6266 16.7188 19.16 16.7188 17.3467C16.7188 15.5333 18.1854 14.0667 19.9987 14.0667C21.8121 14.0667 23.2788 15.5467 23.2788 17.3467Z" fill="white"/>
<path id="XMLID_653_" d="M19.9595 4.42666C12.3062 4.45332 6.0395 10.6667 5.93283 18.32C5.85283 24.52 9.81283 29.8267 15.3462 31.7733C15.4795 31.8267 15.6128 31.7067 15.5995 31.5733C15.5328 31.0933 15.4528 30.6133 15.3995 30.1333C15.3728 29.96 15.2662 29.8267 15.1195 29.7467C10.7462 27.84 7.69283 23.4533 7.74616 18.3733C7.81283 11.7067 13.2528 6.27999 19.9062 6.22666C26.7195 6.17332 32.2795 11.6933 32.2795 18.4933C32.2795 23.52 29.2395 27.84 24.9062 29.7467C24.7462 29.8133 24.6395 29.96 24.6262 30.1333C24.5595 30.6133 24.4928 31.0933 24.4262 31.5733C24.3995 31.72 24.5462 31.8267 24.6795 31.7733C30.1595 29.8533 34.0928 24.6267 34.0928 18.4933C34.0662 10.7333 27.7328 4.41332 19.9595 4.42666Z" fill="white"/>
<path id="XMLID_651_" d="M19.64 9.09329C14.6533 9.27996 10.6533 13.4 10.5867 18.3866C10.5467 21.6666 12.1867 24.5733 14.7067 26.2933C14.8267 26.3733 15 26.28 15 26.1333C14.96 25.56 14.96 25.0533 14.9867 24.52C15 24.3466 14.9333 24.1866 14.8 24.0666C13.2667 22.6266 12.3333 20.5733 12.3867 18.3066C12.4933 14.3066 15.7067 11.0533 19.7067 10.8933C24.0533 10.72 27.6267 14.2133 27.6267 18.5066C27.6267 20.6933 26.6933 22.6666 25.2133 24.0666C25.0933 24.1866 25.0267 24.3466 25.0267 24.52C25.0533 25.04 25.04 25.5466 25.0133 26.12C25 26.2666 25.1733 26.3733 25.3067 26.28C27.7867 24.5866 29.4267 21.72 29.4267 18.4933C29.44 13.1866 25 8.87996 19.64 9.09329Z" fill="white"/>
</g>
</g>
</g>
<defs>
<linearGradient id="paint0_linear_6850_123320" x1="20" y1="0" x2="20" y2="40" gradientUnits="userSpaceOnUse">
<stop stop-color="#F452FF"/>
<stop offset="1" stop-color="#832BC1"/>
</linearGradient>
<clipPath id="clip0_6850_123320">
<rect width="40" height="40" fill="white"/>
</clipPath>
</defs>
</svg>
