<svg width="40" height="40" viewBox="0 0 40 40" fill="none" xmlns="http://www.w3.org/2000/svg">
<path fill-rule="evenodd" clip-rule="evenodd" d="M39.9801 19.9901C39.9801 31.0303 31.0303 39.9801 19.9901 39.9801C8.94986 39.9801 0 31.0303 0 19.9901C0 8.94986 8.94986 0 19.9901 0C31.0303 0 39.9801 8.94986 39.9801 19.9901ZM33.3217 19.9901C33.2621 18.3802 31.9106 17.1231 30.2957 17.1777C29.5801 17.2026 28.8994 17.4957 28.3826 17.9877C26.1068 16.4373 23.4335 15.5877 20.6857 15.528L21.9826 9.292L26.2609 10.1914C26.3801 11.2895 27.364 12.0845 28.4621 11.9653C29.5602 11.846 30.3553 10.8622 30.236 9.76405C30.1168 8.66592 29.1329 7.87088 28.0348 7.99014C27.4037 8.05474 26.8373 8.42244 26.5242 8.96902L21.6248 7.99014C21.2919 7.91561 20.959 8.1243 20.8845 8.46219V8.47213L19.4087 15.4088C16.6261 15.4535 13.918 16.3082 11.6124 17.8684C10.4398 16.7653 8.5913 16.82 7.4882 17.9976C6.38509 19.1703 6.43975 21.0187 7.61739 22.1218C7.84596 22.3355 8.10932 22.5193 8.40248 22.6485C8.38261 22.9417 8.38261 23.2349 8.40248 23.528C8.40248 28.005 13.6199 31.6473 20.0547 31.6473C26.4894 31.6473 31.7068 28.01 31.7068 23.528C31.7267 23.2349 31.7267 22.9417 31.7068 22.6485C32.7106 22.1467 33.3416 21.1131 33.3217 19.9901ZM24.9441 27.4883C23.523 28.5566 21.7839 29.1032 20.005 29.0286C18.2261 29.1032 16.487 28.5566 15.0658 27.4883C14.877 27.2597 14.9118 26.9168 15.1404 26.728C15.3391 26.564 15.6224 26.564 15.8261 26.728C17.0286 27.6075 18.4944 28.0547 19.9851 27.9851C21.4758 28.0646 22.9466 27.6373 24.164 26.7678C24.3826 26.5541 24.7404 26.5591 24.954 26.7777C25.1677 26.9963 25.1627 27.3541 24.9441 27.5678V27.4883ZM22.5839 22.0621C22.5839 23.1652 23.4832 24.1391 24.5863 24.1391H24.6708C25.7739 24.0944 26.6335 23.1652 26.5888 22.0621C26.5888 20.959 25.6894 20.0596 24.5863 20.0596C23.4832 20.0596 22.5839 20.959 22.5839 22.0621ZM13.3317 21.9925C13.3317 20.8894 14.2311 19.99 15.3342 19.99C16.4373 19.99 17.3366 20.8894 17.3366 21.9925C17.3366 23.0956 16.4373 23.995 15.3342 23.995C14.2261 23.9851 13.3317 23.0956 13.3317 21.9925Z" fill="white"/>
</svg>
