<svg width="160" height="174" viewBox="0 0 160 174" fill="none" xmlns="http://www.w3.org/2000/svg">
<path d="M87.6875 14L84.6106 94L87.6875 174L72.3029 174L75.3798 94L72.3029 14L87.6875 14Z" fill="#0C0C0C"/>
<path d="M160 101.693L80 98.6159L0 101.693L1.34497e-06 86.3082L80 89.3852L160 86.3083L160 101.693Z" fill="#0C0C0C"/>
<path d="M131.141 156.009L76.7478 97.2645L18.0036 42.8717L28.8821 31.9931L83.2749 90.7374L142.019 145.13L131.141 156.009Z" fill="#0C0C0C"/>
<path d="M141.984 42.8682L83.2401 97.261L28.8473 156.005L17.9687 145.127L76.713 90.7338L131.106 31.9896L141.984 42.8682Z" fill="#0C0C0C"/>
<circle cx="111" cy="16" r="16" fill="#EB7D6A"/>
</svg>
