<svg width="50" height="50" viewBox="0 0 50 50" fill="none" xmlns="http://www.w3.org/2000/svg">
<path d="M27.4062 0L26.4447 25L27.4062 50L22.5986 50L23.5601 25L22.5986 -2.10151e-07L27.4062 0Z" fill="#0C0C0C"/>
<path d="M50 27.4033L25 26.4418L0 27.4033L4.20302e-07 22.5956L25 23.5572L50 22.5956L50 27.4033Z" fill="#0C0C0C"/>
<path d="M40.9844 44.376L23.9866 26.0184L5.62904 9.02064L9.02859 5.62108L26.0263 23.9787L44.3839 40.9764L40.9844 44.376Z" fill="#0C0C0C"/>
<path d="M44.3672 9.02148L26.0096 26.0192L9.01185 44.3768L5.61229 40.9773L23.9699 23.9795L40.9676 5.62193L44.3672 9.02148Z" fill="#0C0C0C"/>
</svg>
