<svg width="282" height="282" viewBox="0 0 282 282" fill="none" xmlns="http://www.w3.org/2000/svg">
<path d="M247.997 252.531C248.748 252.531 249.357 251.922 249.357 251.17C249.357 250.419 248.748 249.81 247.997 249.81V252.531ZM0 45.3377H171.15V42.6174H0V45.3377ZM171.15 141.907H124.678V144.627H171.15V141.907ZM124.678 252.531H247.997V249.81H124.678V252.531ZM69.3666 197.219C69.3666 227.767 94.1305 252.531 124.678 252.531V249.81C95.6329 249.81 72.0868 226.264 72.0868 197.219H69.3666ZM124.678 141.907C94.1305 141.907 69.3666 166.671 69.3666 197.219H72.0868C72.0868 168.173 95.6329 144.627 124.678 144.627V141.907ZM219.434 93.6222C219.434 120.289 197.816 141.907 171.15 141.907V144.627C199.319 144.627 222.154 121.791 222.154 93.6222H219.434ZM171.15 45.3377C197.816 45.3377 219.434 66.9554 219.434 93.6222H222.154C222.154 65.4531 199.319 42.6174 171.15 42.6174V45.3377Z" fill="#6344DF"/>
<circle cx="220.338" cy="94.302" r="17.2283" fill="#0C0C0C"/>
<circle cx="71.6305" cy="195.859" r="9.97428" fill="#6344DF"/>
</svg>
