<svg width="40" height="40" viewBox="0 0 40 40" fill="none" xmlns="http://www.w3.org/2000/svg">
    <path fill-rule="evenodd" clip-rule="evenodd" d="M19.3333 13.25C15.9736 13.25 13.25 15.9736 13.25 19.3333C13.25 22.6931 15.9736 25.4167 19.3333 25.4167C20.7429 25.4167 22.0404 24.9373 23.0719 24.1326L25.4696 26.5303L25.9999 27.0607L27.0606 26L26.5303 25.4697L24.1326 23.072C24.9372 22.0405 25.4167 20.7429 25.4167 19.3333C25.4167 15.9736 22.6931 13.25 19.3333 13.25ZM22.7427 22.3966C23.4726 21.5848 23.9167 20.5109 23.9167 19.3333C23.9167 16.802 21.8646 14.75 19.3333 14.75C16.802 14.75 14.75 16.802 14.75 19.3333C14.75 21.8646 16.802 23.9167 19.3333 23.9167C20.5109 23.9167 21.5848 23.4726 22.3966 22.7427L22.7427 22.3966Z" fill="#646566"/>
</svg>
