<svg width="282" height="282" viewBox="0 0 282 282" fill="none" xmlns="http://www.w3.org/2000/svg">
<circle cx="38.538" cy="82.0615" r="12.2412" fill="#6344DF"/>
<circle cx="141.002" cy="24.0289" r="18.5884" fill="#6344DF"/>
<circle cx="140.546" cy="144.174" r="82.5145" fill="#6344DF"/>
<path fill-rule="evenodd" clip-rule="evenodd" d="M110.883 144.175C110.883 160.555 124.165 173.835 140.546 173.835C149.651 173.835 157.796 169.731 163.237 163.273L185.693 182.175C174.868 195.023 158.661 203.189 140.546 203.189C107.952 203.189 81.5312 176.767 81.5312 144.175C81.5312 111.581 107.952 85.1602 140.546 85.1602V114.512C124.165 114.512 110.883 127.792 110.883 144.175ZM191.542 173.892L166.178 159.111C167.044 157.629 167.785 156.066 168.386 154.435L195.936 164.588C194.739 167.834 193.264 170.944 191.542 173.892ZM170.209 144.175H199.563C199.563 140.679 199.257 137.255 198.674 133.926L169.763 139.023C170.055 140.697 170.209 142.418 170.209 144.175ZM185.908 106.429L163.344 125.203C162.239 123.876 161.02 122.648 159.703 121.533L178.663 99.1263C181.284 101.346 183.709 103.789 185.908 106.429Z" fill="white"/>
<path d="M193.633 60.7539L192.916 79.3998L193.633 98.0458L190.047 98.0458L190.764 79.3998L190.047 60.7539L193.633 60.7539Z" fill="#0C0C0C"/>
<path d="M210.484 81.1914L191.838 80.4743L173.193 81.1914L173.193 77.6056L191.838 78.3228L210.484 77.6057L210.484 81.1914Z" fill="#0C0C0C"/>
<path d="M203.75 93.8496L191.072 80.1578L177.381 67.4803L179.916 64.9448L192.594 78.6365L206.286 91.3141L203.75 93.8496Z" fill="#0C0C0C"/>
<path d="M206.625 67.8213L192.933 80.4988L180.256 94.1906L177.72 91.6551L191.412 78.9775L204.089 65.2858L206.625 67.8213Z" fill="#0C0C0C"/>
<path d="M42.1719 9.06787L41.8057 18.5888L42.1719 28.1097L40.3409 28.1097L40.7071 18.5888L40.3409 9.06787L42.1719 9.06787Z" fill="#0C0C0C"/>
<path d="M50.7734 19.5044L41.2525 19.1382L31.7316 19.5044L31.7316 17.6735L41.2525 18.0396L50.7734 17.6735L50.7734 19.5044Z" fill="#0C0C0C"/>
<path d="M47.3438 25.9683L40.8704 18.977L33.8792 12.5037L35.1738 11.209L41.6472 18.2002L48.6384 24.6736L47.3438 25.9683Z" fill="#0C0C0C"/>
<path d="M48.6406 12.5029L41.6494 18.9763L35.176 25.9675L33.8814 24.6728L40.8726 18.1995L47.346 11.2083L48.6406 12.5029Z" fill="#0C0C0C"/>
</svg>
