<svg width="40" height="40" viewBox="0 0 40 40" fill="none" xmlns="http://www.w3.org/2000/svg">
<path fill-rule="evenodd" clip-rule="evenodd" d="M40.0024 7.88862C38.4288 8.55056 36.8546 8.96393 35.2816 9.12995C37.0583 8.08754 38.26 6.61501 38.8862 4.71235C37.2612 5.65515 35.5268 6.30033 33.6825 6.64791C32.0578 4.96031 30.0614 4.11621 27.6921 4.11621C25.4247 4.11621 23.4916 4.89787 21.8921 6.46148C20.293 8.02509 19.4936 9.91526 19.4936 12.1323C19.4936 12.7278 19.5612 13.3401 19.6967 13.9688C16.346 13.8034 13.2029 12.9803 10.2669 11.4996C7.33092 10.0185 4.8392 8.0455 2.79174 5.58021C2.04715 6.82093 1.67485 8.16948 1.67485 9.62556C1.67485 10.9988 2.00478 12.273 2.66494 13.4476C3.32479 14.6222 4.21331 15.5736 5.33019 16.3016C4.01018 16.252 2.77491 15.9126 1.62438 15.2839V15.3832C1.62438 17.319 2.24622 19.0188 3.4899 20.4834C4.73358 21.948 6.30314 22.8701 8.19825 23.2506C7.48762 23.4325 6.76827 23.5235 6.04082 23.5235C5.56696 23.5235 5.05073 23.4821 4.49245 23.3999C5.01709 25.0046 5.98162 26.3239 7.38606 27.3581C8.7905 28.3926 10.3812 28.9257 12.158 28.9592C9.17992 31.242 5.78722 32.3837 1.97986 32.3837C1.25209 32.3837 0.592243 32.3511 0 32.2847C3.80737 34.6836 8.00385 35.8829 12.5898 35.8829C15.5002 35.8829 18.2331 35.4323 20.7877 34.5307C23.3433 33.629 25.526 32.4212 27.3366 30.9069C29.147 29.3933 30.7082 27.6517 32.0195 25.6827C33.3307 23.7139 34.3077 21.6584 34.9511 19.5157C35.5941 17.3727 35.9156 15.2263 35.9156 13.0751C35.9156 12.6118 35.9072 12.2645 35.8901 12.0327C37.4979 10.8916 38.8687 9.50981 40.0024 7.88862Z" fill="white"/>
</svg>
