<svg width="16" height="16" viewBox="0 0 16 16" fill="none" xmlns="http://www.w3.org/2000/svg">
<path fill-rule="evenodd" clip-rule="evenodd" d="M7.99999 1.25C6.11302 1.25 4.58332 2.77969 4.58332 4.66667C4.58332 6.55364 6.11302 8.08333 7.99999 8.08333C9.88696 8.08333 11.4167 6.55364 11.4167 4.66667C11.4167 2.77969 9.88696 1.25 7.99999 1.25ZM6.08332 4.66667C6.08332 3.60812 6.94144 2.75 7.99999 2.75C9.05854 2.75 9.91666 3.60812 9.91666 4.66667C9.91666 5.72521 9.05854 6.58333 7.99999 6.58333C6.94144 6.58333 6.08332 5.72521 6.08332 4.66667ZM5.33332 9.25C3.44635 9.25 1.91666 10.7797 1.91666 12.6667V14V14.75H3.41666V14V12.6667C3.41666 11.6081 4.27478 10.75 5.33332 10.75H10.6667C11.7252 10.75 12.5833 11.6081 12.5833 12.6667V14V14.75H14.0833V14V12.6667C14.0833 10.7797 12.5536 9.25 10.6667 9.25H5.33332Z" fill="#404040"/>
</svg>
