<svg width="40" height="40" viewBox="0 0 40 40" fill="none" xmlns="http://www.w3.org/2000/svg">
<path id="Vector" d="M19.9999 0C8.95449 0 0 8.95425 0 19.9996C0 31.0455 8.95449 39.999 19.9999 39.999C31.0465 39.999 40 31.0455 40 19.9996C40 8.95496 31.0465 0.000955293 19.9996 0.000955293L19.9999 0ZM29.1717 28.8452C28.8135 29.4327 28.0444 29.619 27.4569 29.2584C22.7612 26.3901 16.8498 25.7405 9.88805 27.3311C9.21719 27.4839 8.54848 27.0636 8.39564 26.3925C8.24207 25.7214 8.66073 25.0527 9.33326 24.8998C16.9518 23.1593 23.4867 23.9087 28.7585 27.1305C29.346 27.4911 29.5323 28.2577 29.1717 28.8452ZM31.6196 23.3995C31.1683 24.1332 30.2082 24.3649 29.475 23.9135C24.0991 20.6091 15.9043 19.6522 9.54558 21.5823C8.72092 21.8314 7.84992 21.3667 7.59963 20.5434C7.35126 19.7188 7.81625 18.8495 8.63948 18.5987C15.9028 16.3948 24.9326 17.4624 31.1062 21.2561C31.8394 21.7075 32.071 22.6673 31.6196 23.3995ZM31.8298 17.7289C25.3839 13.9003 14.7491 13.5483 8.59482 15.4161C7.60656 15.7158 6.56146 15.158 6.26198 14.1697C5.96249 13.181 6.51991 12.1366 7.50888 11.8361C14.5735 9.6915 26.3177 10.1059 33.739 14.5115C34.6298 15.039 34.9212 16.187 34.3934 17.0748C33.8679 17.9637 32.7168 18.2567 31.8308 17.7289H31.8298Z" fill="#1ED760"/>
</svg>
