<svg width="40" height="40" viewBox="0 0 40 40" fill="none" xmlns="http://www.w3.org/2000/svg">
<path fill-rule="evenodd" clip-rule="evenodd" d="M36.3915 13.333C36.3915 13.333 36.1137 10.9719 35.0026 9.99967C33.7526 8.61079 32.3637 8.61079 31.6693 8.61079C26.9471 8.33301 20.0026 8.33301 20.0026 8.33301C20.0026 8.33301 13.0582 8.33301 8.33594 8.61079C7.64149 8.74967 6.2526 8.74967 5.0026 9.99967C4.03038 10.9719 3.61372 13.333 3.61372 13.333C3.61372 13.333 3.33594 15.9719 3.33594 18.7497V21.2497C3.33594 23.8886 3.61372 26.6663 3.61372 26.6663C3.61372 26.6663 3.89149 29.0275 5.0026 29.9997C6.2526 31.3886 7.91927 31.2497 8.61372 31.3886C11.2526 31.6663 20.0026 31.6663 20.0026 31.6663C20.0026 31.6663 26.9471 31.6663 31.6693 31.2497C32.3637 31.1108 33.7526 31.1108 35.0026 29.8608C35.9748 28.8886 36.3915 26.5275 36.3915 26.5275C36.3915 26.5275 36.6693 23.8886 36.6693 21.1108V18.6108C36.6693 15.9719 36.3915 13.333 36.3915 13.333ZM16.5304 24.3052V14.9997L25.5582 19.7219L16.5304 24.3052Z" fill="white"/>
</svg>
