<svg width="24" height="24" viewBox="0 0 24 24" fill="none" xmlns="http://www.w3.org/2000/svg">
    <path fill-rule="evenodd" clip-rule="evenodd" d="M17.2363 19.911C17.2363 19.911 16.5582 19.1011 15.9932 18.3853C18.4606 17.6884 19.4024 16.1439 19.4024 16.1439C18.6301 16.6525 17.8955 17.0103 17.2363 17.2552C16.2945 17.6508 15.3904 17.9145 14.5051 18.0651C12.6969 18.4042 11.0394 18.31 9.62671 18.0463C8.55308 17.8391 7.63014 17.5377 6.85788 17.2364C6.42466 17.0669 5.95377 16.8597 5.48288 16.596C5.42637 16.5583 5.36986 16.5395 5.31336 16.5018C5.27569 16.483 5.25685 16.4641 5.23801 16.4453C4.89897 16.2569 4.71062 16.1251 4.71062 16.1251C4.71062 16.1251 5.61473 17.6319 8.00685 18.3477C7.44178 19.0634 6.74486 19.911 6.74486 19.911C2.58219 19.7792 1 17.048 1 17.048C1 10.983 3.71233 6.06685 3.71233 6.06685C6.42466 4.03261 9.00514 4.08912 9.00514 4.08912L9.19349 4.31514C5.80308 5.29459 4.23973 6.78261 4.23973 6.78261C4.23973 6.78261 4.65411 6.55658 5.35103 6.23638C7.36644 5.3511 8.96747 5.10624 9.62671 5.04973C9.73973 5.0309 9.8339 5.01206 9.94692 5.01206C11.0959 4.86138 12.3955 4.8237 13.7517 4.97439C15.5411 5.18158 17.4623 5.70898 19.4212 6.78261C19.4212 6.78261 17.9332 5.36994 14.7312 4.39049L14.9949 4.08912C14.9949 4.08912 17.5753 4.03261 20.2877 6.06685C20.2877 6.06685 23 10.983 23 17.048C23 17.048 21.399 19.7792 17.2363 19.911ZM15.3527 11.1148C14.2791 11.1148 13.4315 12.0566 13.4315 13.2056C13.4315 14.3545 14.2979 15.2963 15.3527 15.2963C16.4264 15.2963 17.274 14.3545 17.274 13.2056C17.274 12.0566 16.4264 11.1148 15.3527 11.1148ZM8.47774 11.1148C7.40411 11.1148 6.55651 12.0566 6.55651 13.2056C6.55651 14.3545 7.42295 15.2963 8.47774 15.2963C9.55137 15.2963 10.399 14.3545 10.399 13.2056C10.4178 12.0566 9.55137 11.1148 8.47774 11.1148Z" fill="white"/>
</svg>
